<svg width="303" height="301" viewBox="0 0 303 301" fill="none" xmlns="http://www.w3.org/2000/svg">
<path d="M263.161 258.602C257.061 265.011 251.29 269.143 246.73 272.41C193.129 310.796 129.705 299.606 116.225 296.873C96.321 292.838 57.8448 285.039 30.0284 252.388C-12.0562 202.992 -5.50295 125.169 27.141 73.7981C33.1118 64.4018 64.6536 12.2466 128.76 3.88363C167.557 -1.17861 212.782 9.03108 245.532 36.4166C314.278 93.9015 309.385 210.033 263.161 258.602Z" fill="url(#paint0_linear_1169_8172)"/>
<path d="M41.4416 160.077C42.1648 141.077 43.6535 65.519 24.3531 17.6376C22.9749 14.2182 17.827 13.3682 16.2485 16.6786C7.09252 35.8802 -23.6622 95.3164 38.0367 161.381C39.2244 162.653 41.3745 161.802 41.4405 160.077H41.4416Z" fill="#B3D7A5"/>
<path opacity="0.24" d="M38.3617 160.391C38.1993 160.271 38.0683 160.106 37.9893 159.905C23.5706 122.9 19.1209 92.7978 17.9268 74.0612C16.6298 53.7065 18.7236 42.2855 18.8135 41.8087C18.9261 41.21 19.5053 40.8152 20.1061 40.9285C20.707 41.0396 21.1033 41.6178 20.9907 42.2164C20.9051 42.6749 12.6954 88.893 40.055 159.105C40.2758 159.674 39.9933 160.313 39.4227 160.533C39.0546 160.676 38.6562 160.609 38.3606 160.39L38.3617 160.391Z" fill="white"/>
<g opacity="0.84">
<path d="M56.0748 184.235C57.6348 186.567 61.0766 186.556 62.6464 184.233C71.3119 171.417 92.5231 132.969 76.9254 81.8901C63.754 38.757 60.7226 14.1243 60.1238 2.84785C59.9972 0.462889 56.8911 -0.377404 55.5724 1.61491C41.0249 23.5941 -0.454523 99.712 56.0758 184.234L56.0748 184.235Z" fill="#B3D7A5"/>
<path opacity="0.24" d="M59.5381 183.304C59.157 183.068 58.9329 182.62 59.0043 182.151C59.1083 181.479 69.166 114.2 53.6842 53.8585C53.5261 53.2415 53.8996 52.6137 54.5178 52.4562C55.1371 52.2998 55.7672 52.6709 55.9253 53.2868C71.5251 114.094 61.3948 181.822 61.2909 182.499C61.1934 183.128 60.6034 183.561 59.9722 183.464C59.8131 183.439 59.6669 183.384 59.5381 183.304Z" fill="white"/>
</g>
<path d="M271.482 130.56C274.267 67.2635 220.935 13.5236 152.362 10.5287C83.7881 7.53373 25.9408 56.4178 23.156 119.714C20.3711 183.011 73.7032 236.751 142.277 239.745C210.85 242.74 268.697 193.856 271.482 130.56Z" fill="#AEC8A4"/>
<path opacity="0.11" d="M140.605 208.662C194.465 208.662 238.128 167.566 238.128 116.872C238.128 66.1775 194.465 25.0817 140.605 25.0817C86.7449 25.0817 43.0825 66.1775 43.0825 116.872C43.0825 167.566 86.7449 208.662 140.605 208.662Z" fill="white"/>
<g opacity="0.68">
<g style="mix-blend-mode:soft-light">
<path d="M179.081 125.703C179.051 145.936 177.659 166.21 174.081 186.157C173.174 191.14 172.124 196.098 170.873 201.01C169.618 205.92 168.168 210.787 166.394 215.545C164.604 220.291 162.528 224.969 159.712 229.244C158.292 231.366 156.682 233.399 154.697 235.072C153.704 235.903 152.614 236.641 151.414 237.18C150.217 237.716 148.909 238.056 147.582 238.08C146.255 238.118 144.928 237.859 143.707 237.37C142.481 236.884 141.365 236.181 140.348 235.377C138.313 233.757 136.669 231.746 135.224 229.641C132.359 225.396 130.253 220.728 128.445 215.989C126.648 211.239 125.184 206.376 123.918 201.469C122.654 196.561 121.594 191.605 120.68 186.623C118.857 176.66 117.614 166.6 116.775 156.512C115.942 146.423 115.525 136.302 115.473 126.179C115.448 121.117 115.586 116.057 115.767 111.002C115.958 105.945 116.237 100.891 116.61 95.8451C117.362 85.753 118.483 75.6835 120.152 65.6971C120.989 60.705 121.965 55.7334 123.139 50.807C124.316 45.8818 125.683 40.9954 127.381 36.2147C128.234 33.8265 129.166 31.4642 130.229 29.1569C131.291 26.8507 132.479 24.5941 133.875 22.4615C135.275 20.3376 136.884 18.3108 138.887 16.6885C139.888 15.8838 140.992 15.1848 142.201 14.7102C143.405 14.2302 144.712 13.9864 146.011 14.036C147.311 14.0727 148.593 14.3963 149.776 14.9151C150.961 15.4361 152.049 16.1459 153.048 16.9495C155.047 18.5675 156.701 20.5458 158.168 22.6234C161.086 26.8075 163.284 31.421 165.19 36.1154C167.081 40.8228 168.642 45.652 170.002 50.532C171.358 55.4141 172.505 60.3501 173.498 65.3142C177.428 85.1921 179.025 105.468 179.083 125.705L179.081 125.703ZM177.579 125.703C177.597 115.622 177.213 105.537 176.371 95.4902C175.542 85.4445 174.286 75.4268 172.415 65.5202C171.481 60.568 170.393 55.6428 169.098 50.7736C167.799 45.9066 166.299 41.0882 164.473 36.3948C162.634 31.7144 160.501 27.1171 157.671 22.9631C156.248 20.9007 154.644 18.9418 152.718 17.3486C151.755 16.5569 150.711 15.8611 149.579 15.3477C148.45 14.8418 147.233 14.5095 145.996 14.4772C144.759 14.4383 143.524 14.6864 142.381 15.1546C141.233 15.6184 140.179 16.3023 139.218 17.0908C137.297 18.6819 135.739 20.6828 134.385 22.7884C133.034 24.9026 131.884 27.1441 130.858 29.4384C129.831 31.7339 128.931 34.0865 128.111 36.466C126.48 41.2295 125.172 46.1029 124.056 51.0163C122.942 55.9308 122.024 60.8905 121.245 65.8708C119.693 75.8335 118.685 85.8781 118.047 95.9411C117.403 106.005 117.18 116.093 117.198 126.175C117.171 136.257 117.51 146.34 118.262 156.395C119.019 166.447 120.181 176.474 121.918 186.402C122.788 191.365 123.806 196.303 125.024 201.19C126.244 206.075 127.66 210.914 129.403 215.632C131.156 220.337 133.205 224.967 135.975 229.136C137.369 231.204 138.955 233.164 140.877 234.718C141.837 235.49 142.883 236.157 144.013 236.614C145.14 237.072 146.349 237.327 147.56 237.286C148.77 237.254 149.964 236.936 151.071 236.43C152.181 235.92 153.203 235.22 154.143 234.421C156.023 232.812 157.576 230.828 158.945 228.743C161.667 224.54 163.686 219.901 165.419 215.188C167.139 210.461 168.54 205.618 169.748 200.729C170.953 195.839 171.958 190.899 172.819 185.934C174.545 176.004 175.692 165.975 176.454 155.924C177.227 145.872 177.583 135.786 177.579 125.703Z" fill="white"/>
</g>
<g style="mix-blend-mode:soft-light">
<path d="M230.311 125.703C230.241 138.732 228.561 151.768 225.059 164.332C221.497 176.869 216.128 188.929 208.838 199.756C205.193 205.164 201.063 210.255 196.448 214.873C191.836 219.49 186.735 223.633 181.197 227.106C175.655 230.565 169.668 233.334 163.402 235.212C157.138 237.096 150.601 238.077 144.057 238.084C137.513 238.084 130.973 237.107 124.708 235.229C118.438 233.355 112.447 230.59 106.898 227.135C101.355 223.666 96.2461 219.526 91.6265 214.912C87.0047 210.295 82.8668 205.206 79.2129 199.798C71.9083 188.97 66.5275 176.904 62.9494 164.362C61.1879 158.079 59.879 151.672 59.0118 145.209C58.1489 138.744 57.7159 132.225 57.6855 125.703C57.7191 119.181 58.1565 112.662 59.0237 106.198C59.8952 99.7359 61.2085 93.3307 62.9743 87.0506C66.5622 74.5131 71.9505 62.4557 79.2605 51.6387C82.9155 46.2356 87.0545 41.1518 91.6763 36.5415C96.2959 31.9334 101.402 27.7978 106.944 24.3395C112.49 20.8932 118.48 18.149 124.739 16.2764C130.994 14.3963 137.523 13.4147 144.058 13.4082C150.593 13.4201 157.121 14.406 163.372 16.2915C169.628 18.1695 175.613 20.919 181.154 24.3687C186.69 27.8301 191.787 31.9701 196.401 36.5793C201.015 41.1917 205.145 46.2766 208.792 51.6797C216.086 62.4956 221.464 74.5477 225.034 87.0787C228.543 99.6388 230.232 112.672 230.311 125.702V125.703ZM228.588 125.703C228.569 112.821 226.958 99.9257 223.547 87.4907C220.117 75.0751 214.952 63.0889 207.841 52.3096C204.288 46.926 200.252 41.8508 195.732 37.2373C191.209 32.6313 186.215 28.4644 180.752 25.0008C175.283 21.5565 169.377 18.7843 163.184 16.9096C156.994 15.0327 150.531 14.0468 144.057 14.0252C137.583 14.0522 131.121 15.0435 124.935 16.9247C118.746 18.8048 112.844 21.5824 107.381 25.0299C101.925 28.4978 96.9369 32.668 92.4222 37.2761C87.9098 41.8918 83.8823 46.967 80.3367 52.3517C73.241 63.1299 68.0865 75.1107 64.674 87.5198C62.9732 93.7319 61.7422 100.066 60.9075 106.446C60.0717 112.828 59.6581 119.264 59.6441 125.702C59.6625 132.139 60.0793 138.575 60.9194 144.955C61.7574 151.336 62.9938 157.667 64.6989 163.876C68.1212 176.281 73.2832 188.253 80.3843 199.021C83.9311 204.4 87.9596 209.47 92.471 214.079C96.9856 218.68 101.969 222.846 107.424 226.304C112.886 229.742 118.786 232.5 124.964 234.38C131.14 236.263 137.59 237.26 144.056 237.292C150.521 237.265 156.974 236.275 163.153 234.396C169.334 232.521 175.239 229.768 180.707 226.334C186.167 222.881 191.16 218.717 195.682 214.119C200.202 209.512 204.238 204.442 207.792 199.064C214.907 188.295 220.081 176.318 223.52 163.907C226.939 151.478 228.558 138.584 228.587 125.703H228.588Z" fill="white"/>
</g>
<g style="mix-blend-mode:soft-light">
<path d="M43.4065 81.4588C43.3437 81.4588 43.2939 81.407 43.2939 81.3444C43.2939 81.2829 43.3448 81.2333 43.4065 81.2323L69.3099 81.0241L95.2133 80.9054L147.019 80.8105L198.825 80.9151L224.728 81.0446L250.631 81.27C250.674 81.27 250.707 81.3045 250.707 81.3466C250.707 81.3876 250.674 81.421 250.631 81.4221L224.728 81.6475L198.825 81.777L147.019 81.8816L95.2133 81.7867L69.3099 81.668L43.4065 81.4599V81.4588Z" fill="white"/>
</g>
<g style="mix-blend-mode:soft-light">
<path d="M73.346 38.1175C73.346 38.056 73.3969 38.0074 73.4575 38.0064C79.5874 37.9093 85.7174 37.8683 91.8473 37.7982L110.238 37.6795C116.368 37.6288 122.498 37.6342 128.629 37.6191L147.019 37.5846L183.8 37.6892L202.191 37.8187C208.32 37.8953 214.45 37.9406 220.581 38.0441C220.624 38.0441 220.657 38.0797 220.656 38.1207C220.656 38.1617 220.623 38.1941 220.581 38.1951C214.452 38.2987 208.322 38.344 202.191 38.4206L183.8 38.55L147.019 38.6546L128.629 38.6201C122.499 38.605 116.369 38.6104 110.238 38.5597L91.8473 38.4411C85.7174 38.371 79.5874 38.3289 73.4575 38.2329C73.3947 38.2329 73.3449 38.1811 73.346 38.1185V38.1175Z" fill="white"/>
</g>
<g style="mix-blend-mode:soft-light">
<path d="M34.4053 124.686C34.3425 124.686 34.2927 124.634 34.2927 124.572C34.2927 124.511 34.3436 124.461 34.4053 124.46L62.5584 124.252L90.7116 124.133L147.019 124.039L203.326 124.143L231.479 124.273L259.633 124.498C259.675 124.498 259.708 124.533 259.708 124.575C259.708 124.616 259.675 124.649 259.633 124.65L231.479 124.876L203.326 125.005L147.019 125.11L90.7116 125.015L62.5584 124.896L34.4053 124.688V124.686Z" fill="white"/>
</g>
<g style="mix-blend-mode:soft-light">
<path d="M43.4065 167.686L69.3099 167.478L95.2133 167.359L147.019 167.264L198.825 167.369L224.728 167.498L250.631 167.724C250.674 167.724 250.707 167.758 250.707 167.8C250.707 167.841 250.674 167.875 250.631 167.876L224.728 168.101L198.825 168.231L147.019 168.335L95.2133 168.241L69.3099 168.122L43.4065 167.914C43.3437 167.914 43.2939 167.862 43.2939 167.8C43.2939 167.739 43.3448 167.689 43.4065 167.688V167.686Z" fill="white"/>
</g>
<g style="mix-blend-mode:soft-light">
<path d="M224.684 211.025C224.684 211.244 224.506 211.421 224.286 211.421H77.1634C76.9437 211.421 76.7661 211.244 76.7661 211.025C76.7661 210.806 76.9437 210.629 77.1634 210.629H224.286C224.506 210.629 224.684 210.806 224.684 211.025Z" fill="white"/>
</g>
</g>
<path d="M46.623 105.207C46.4898 105.207 46.3534 105.185 46.2192 105.141C45.5577 104.919 45.2025 104.204 45.4245 103.545C45.5869 103.066 45.7547 102.589 45.9279 102.112C46.1661 101.458 46.8904 101.121 47.5465 101.357C48.2026 101.594 48.5414 102.316 48.3032 102.97C48.1365 103.428 47.9752 103.888 47.8193 104.349C47.6417 104.874 47.1491 105.207 46.6219 105.207H46.623ZM48.9063 99.3752C48.7341 99.3752 48.5598 99.3396 48.3931 99.2663C47.7554 98.9837 47.4685 98.2394 47.7522 97.604C47.959 97.1413 48.1701 96.6818 48.3866 96.2222C48.6833 95.5923 49.4368 95.3226 50.068 95.6182C50.7002 95.9137 50.972 96.6645 50.6742 97.2934C50.4653 97.7367 50.2607 98.1811 50.0615 98.6288C49.8525 99.098 49.3902 99.3763 48.9063 99.3763V99.3752ZM51.7038 93.7726C51.497 93.7726 51.2881 93.7219 51.0943 93.6162C50.4826 93.2807 50.2607 92.5137 50.5985 91.9054C50.8421 91.4642 51.0911 91.0252 51.3444 90.5872C51.6941 89.9843 52.4671 89.7793 53.0712 90.1266C53.6753 90.474 53.8832 91.2441 53.5335 91.8471C53.2888 92.27 53.0474 92.695 52.8114 93.1221C52.5808 93.5385 52.1488 93.7736 51.7038 93.7736V93.7726ZM54.9518 88.4212C54.7125 88.4212 54.4722 88.3544 54.2578 88.2131C53.6753 87.8301 53.514 87.0492 53.8973 86.4688C54.1755 86.0482 54.457 85.6307 54.7428 85.2143C55.1369 84.6405 55.924 84.4938 56.5 84.8864C57.0759 85.2791 57.2232 86.0633 56.8291 86.6371C56.5519 87.0405 56.278 87.4472 56.0084 87.8539C55.7659 88.2217 55.3632 88.4202 54.9518 88.4202V88.4212ZM58.596 83.3266C58.3275 83.3266 58.0568 83.2425 57.8284 83.0667C57.274 82.6438 57.1701 81.8532 57.5945 81.3009C57.9009 80.9029 58.2116 80.5059 58.5267 80.1111C58.9608 79.5664 59.7566 79.4758 60.3022 79.9072C60.8489 80.3398 60.941 81.1315 60.5068 81.6763C60.2015 82.0603 59.8984 82.4465 59.6007 82.8337C59.3516 83.1573 58.976 83.3266 58.597 83.3266H58.596ZM62.5833 78.4931C62.2867 78.4931 61.9901 78.3906 61.7497 78.1803C61.2246 77.7218 61.1727 76.9258 61.6339 76.4037C61.9662 76.0262 62.3019 75.6508 62.6407 75.2776C63.1095 74.7619 63.9085 74.722 64.426 75.188C64.9435 75.6551 64.9836 76.4512 64.5159 76.9668C64.1857 77.3303 63.8587 77.696 63.5339 78.0638C63.2838 78.3475 62.9352 78.4931 62.5833 78.4931ZM66.8695 73.9184C66.548 73.9184 66.2264 73.7965 65.9796 73.5538C65.4838 73.0641 65.4805 72.267 65.972 71.7729C66.3261 71.417 66.6833 71.0632 67.0439 70.7104C67.5419 70.2229 68.3419 70.2304 68.8313 70.7266C69.3196 71.2228 69.3131 72.02 68.8151 72.5075C68.4632 72.8516 68.1146 73.1979 67.7681 73.5452C67.5213 73.7933 67.1954 73.9184 66.8706 73.9184H66.8695ZM71.4156 69.6005C71.0702 69.6005 70.7259 69.4602 70.4769 69.1841C70.0092 68.6674 70.0514 67.8714 70.5689 67.4054C70.9425 67.0699 71.3181 66.7355 71.6971 66.4044C72.22 65.9459 73.019 65.9966 73.4813 66.5187C73.9425 67.0408 73.8905 67.8368 73.3665 68.2964C72.9962 68.621 72.6281 68.9479 72.2622 69.2758C72.0208 69.4926 71.7176 69.5994 71.4166 69.5994L71.4156 69.6005ZM76.19 65.5328C75.8219 65.5328 75.4571 65.3731 75.207 65.0668C74.7674 64.5264 74.8508 63.7335 75.3932 63.2956C75.7841 62.9796 76.176 62.6667 76.5711 62.355C77.1179 61.9235 77.9136 62.0152 78.3467 62.561C78.7797 63.1068 78.6877 63.8986 78.1399 64.3301C77.7534 64.6353 77.368 64.9427 76.9858 65.2523C76.7519 65.4411 76.4704 65.5339 76.19 65.5339V65.5328ZM81.1735 61.7067C80.7837 61.7067 80.4005 61.5287 80.1525 61.1911C79.74 60.6302 79.8624 59.8417 80.4254 59.4318C80.8324 59.1351 81.2406 58.8407 81.6509 58.5483C82.2193 58.1438 83.0085 58.2744 83.4145 58.8407C83.8205 59.4059 83.6895 60.1933 83.1222 60.5978C82.7195 60.8848 82.3178 61.1738 81.9194 61.4651C81.6942 61.629 81.4322 61.7078 81.1735 61.7078V61.7067ZM86.3366 58.1244C85.9263 58.1244 85.5246 57.9259 85.2821 57.5603C84.8967 56.9799 85.0558 56.199 85.6383 55.815C86.0584 55.5378 86.4795 55.2638 86.9017 54.9909C87.4885 54.6133 88.2702 54.7805 88.6491 55.3641C89.0281 55.9476 88.8602 56.7275 88.2745 57.1051C87.8599 57.3726 87.4452 57.6423 87.0338 57.9141C86.8195 58.0554 86.5769 58.1233 86.3366 58.1233V58.1244ZM91.6546 54.787C91.2247 54.787 90.8058 54.5691 90.5687 54.1743C90.2103 53.5778 90.4052 52.8044 91.0039 52.4473C91.4348 52.1895 91.8678 51.935 92.302 51.6826C92.9039 51.332 93.6791 51.5337 94.031 52.1345C94.3828 52.7353 94.1804 53.5066 93.5773 53.8572C93.1519 54.1053 92.7264 54.3555 92.3031 54.6079C92.0995 54.7298 91.8754 54.787 91.6546 54.787ZM97.1111 51.6933C96.6618 51.6933 96.2266 51.4539 95.9981 51.0321C95.6658 50.4205 95.8953 49.6557 96.5091 49.3256C96.9509 49.0883 97.3937 48.8532 97.8365 48.6202C98.4547 48.2966 99.219 48.5317 99.5438 49.1477C99.8686 49.7625 99.6326 50.5241 99.0144 50.8487C98.5781 51.0774 98.1439 51.3083 97.7098 51.5423C97.5182 51.6448 97.3125 51.6944 97.11 51.6944L97.1111 51.6933ZM102.692 48.8446C102.222 48.8446 101.772 48.5835 101.554 48.1337C101.25 47.5081 101.512 46.7541 102.14 46.451C102.591 46.2331 103.043 46.0184 103.494 45.8048C104.124 45.5082 104.879 45.7768 105.177 46.4057C105.475 47.0345 105.205 47.7853 104.574 48.0819C104.13 48.2912 103.685 48.5026 103.242 48.7173C103.065 48.8025 102.877 48.8435 102.692 48.8435V48.8446ZM108.399 46.2396C107.909 46.2396 107.444 45.9548 107.238 45.4791C106.961 44.8405 107.257 44.0995 107.897 43.8233C108.36 43.6248 108.822 43.4285 109.285 43.2354C109.931 42.9658 110.67 43.2689 110.94 43.9096C111.21 44.5514 110.906 45.2892 110.263 45.5578C109.808 45.7477 109.354 45.9408 108.9 46.136C108.737 46.2061 108.567 46.2396 108.4 46.2396H108.399ZM114.221 43.887C113.711 43.887 113.231 43.5774 113.039 43.0736C112.791 42.4232 113.12 41.6962 113.773 41.4491C114.244 41.2712 114.715 41.0964 115.186 40.9238C115.841 40.6844 116.567 41.0187 116.808 41.6724C117.048 42.325 116.711 43.0488 116.056 43.2883C115.594 43.4576 115.131 43.6292 114.668 43.8039C114.521 43.86 114.37 43.8859 114.22 43.8859L114.221 43.887ZM120.145 41.8019C119.614 41.8019 119.118 41.4642 118.945 40.9335C118.728 40.2723 119.091 39.5615 119.754 39.3457C120.233 39.1893 120.712 39.0372 121.19 38.8873C121.857 38.678 122.565 39.0469 122.775 39.7103C122.984 40.3737 122.615 41.0813 121.949 41.2895C121.479 41.4373 121.009 41.5872 120.538 41.7404C120.407 41.7825 120.275 41.803 120.145 41.803V41.8019ZM126.163 40.0005C125.607 40.0005 125.099 39.6327 124.945 39.0728C124.761 38.4019 125.157 37.7094 125.83 37.526C126.318 37.3933 126.804 37.2639 127.29 37.1377C127.965 36.9629 128.656 37.3663 128.832 38.0394C129.008 38.7125 128.603 39.4007 127.926 39.5755C127.451 39.6984 126.975 39.8257 126.497 39.9552C126.386 39.9854 126.273 40.0005 126.163 40.0005ZM132.264 38.5065C131.682 38.5065 131.158 38.1042 131.029 37.5141C130.881 36.8346 131.314 36.1636 131.996 36.0158C132.491 35.9091 132.983 35.8055 133.475 35.7052C134.157 35.5671 134.826 36.0061 134.966 36.6879C135.105 37.3696 134.664 38.034 133.98 38.1732C133.499 38.2703 133.017 38.3717 132.534 38.4763C132.443 38.4957 132.353 38.5054 132.265 38.5054L132.264 38.5065ZM164.907 37.5648C164.817 37.5648 164.723 37.5551 164.63 37.5346C164.16 37.43 163.685 37.3318 163.206 37.2401C162.52 37.1085 162.071 36.4495 162.203 35.7667C162.335 35.0839 162.994 34.6351 163.683 34.7678C164.188 34.8638 164.688 34.9674 165.182 35.0785C165.863 35.2306 166.292 35.9037 166.141 36.5821C166.009 37.1679 165.487 37.567 164.909 37.567L164.907 37.5648ZM138.438 37.3523C137.826 37.3523 137.288 36.909 137.191 36.2877C137.082 35.6006 137.554 34.9566 138.243 34.8487C138.744 34.77 139.242 34.6955 139.74 34.6254C140.426 34.5283 141.071 35.0062 141.169 35.6955C141.267 36.3837 140.786 37.0212 140.095 37.1193C139.61 37.1884 139.124 37.2606 138.636 37.3361C138.57 37.3469 138.504 37.3512 138.439 37.3512L138.438 37.3523ZM144.673 36.5811C144.026 36.5811 143.474 36.0892 143.415 35.4344C143.352 34.7419 143.865 34.1292 144.56 34.0667C145.066 34.0214 145.57 33.9804 146.072 33.9437C146.76 33.8941 147.373 34.414 147.424 35.1087C147.475 35.8023 146.951 36.4052 146.255 36.4559C145.767 36.4915 145.278 36.5315 144.786 36.5757C144.748 36.5789 144.71 36.5811 144.672 36.5811H144.673ZM158.71 36.5757C158.667 36.5757 158.624 36.5735 158.579 36.5692C158.098 36.5196 157.613 36.4764 157.123 36.4387C156.427 36.3847 155.906 35.7796 155.96 35.086C156.015 34.3924 156.625 33.8757 157.318 33.9275C157.828 33.9664 158.335 34.0117 158.837 34.0634C159.532 34.1346 160.037 34.7527 159.965 35.4441C159.898 36.0924 159.349 36.5757 158.709 36.5757H158.71ZM150.947 36.251C150.257 36.251 149.693 35.6987 149.683 35.0084C149.674 34.3126 150.232 33.742 150.929 33.7323C151.274 33.728 151.616 33.7247 151.956 33.7247H152.448C153.147 33.7312 153.709 34.2986 153.704 34.9943C153.7 35.6868 153.135 36.2456 152.441 36.2456H151.956C151.627 36.2445 151.295 36.2456 150.964 36.251C150.958 36.251 150.952 36.251 150.947 36.251Z" fill="white"/>
<path d="M45.4711 87.9121C54.7121 87.9121 62.2034 80.4483 62.2034 71.2412C62.2034 62.034 54.7121 54.5702 45.4711 54.5702C36.2301 54.5702 28.7388 62.034 28.7388 71.2412C28.7388 80.4483 36.2301 87.9121 45.4711 87.9121Z" fill="#738D6A"/>
<path d="M62.173 70.3469H28.7388C28.7388 70.3469 27.4071 79.5998 42.34 104.944C42.9918 106.05 44.1816 106.711 45.4689 106.711C46.7562 106.711 47.9481 106.062 48.5999 104.956C63.5318 79.6095 62.173 70.3469 62.173 70.3469Z" fill="#738D6A"/>
<path opacity="0.8" d="M45.4634 107.253V107.347H45.4688C44.0127 107.347 42.6529 106.548 41.921 105.306C33.1916 90.4913 29.9935 81.124 28.8481 75.8827C28.5211 74.6768 28.3338 73.4945 28.2743 72.2832C28.1736 71.0438 28.2504 70.5217 28.2591 70.4656L28.3035 70.1992C28.978 61.244 36.458 54.2747 45.471 54.2747C54.484 54.2747 62.1502 61.3422 62.6602 70.3685C62.6732 70.4872 62.697 70.786 62.6883 71.2876V71.3491C62.6883 72.9865 62.4566 74.6088 61.9987 76.1697C60.8132 81.4066 57.5956 90.6811 49.0145 105.247C48.2783 106.497 46.9683 107.252 45.4624 107.252L45.4634 107.253ZM29.1956 71.0966C29.1913 71.3469 29.1988 71.7039 29.2432 72.2411V72.239C29.2995 73.3867 29.4782 74.4923 29.7889 75.6368L29.7943 75.6562C30.9224 80.8263 34.0881 90.077 42.759 104.792C43.3176 105.739 44.3516 106.327 45.4656 106.328L45.4634 106.812V106.327C46.467 106.327 47.6146 105.734 48.1776 104.778C56.7024 90.3068 59.8854 81.11 61.0525 75.9431L61.0611 75.9129C61.4963 74.4351 61.6198 72.9002 61.6198 71.3501L61.5223 71.2822V71.2768C61.5223 70.7946 61.6046 70.5336 61.597 70.4645L61.6436 70.4365C61.1683 61.916 54.0683 55.2422 45.4472 55.2422C36.8261 55.2422 29.7315 62.0099 29.2411 70.6048L29.227 71.0966H29.1956Z" fill="white"/>
<path d="M52.357 77.9944C56.1301 74.2352 56.1301 68.1403 52.357 64.3811C48.584 60.6218 42.4666 60.6218 38.6936 64.381C34.9205 68.1403 34.9205 74.2352 38.6936 77.9944C42.4666 81.7537 48.584 81.7537 52.357 77.9944Z" fill="white"/>
<path d="M45.525 81.3517C39.8996 81.3517 35.3232 76.7921 35.3232 71.1873C35.3232 65.5825 39.8996 61.0229 45.525 61.0229C51.1504 61.0229 55.7268 65.5825 55.7268 71.1873C55.7268 76.7921 51.1504 81.3517 45.525 81.3517ZM45.525 62.0994C40.495 62.0994 36.4037 66.1768 36.4037 71.1873C36.4037 76.1977 40.4961 80.2751 45.525 80.2751C50.5539 80.2751 54.6463 76.1977 54.6463 71.1873C54.6463 66.1768 50.5539 62.0994 45.525 62.0994Z" fill="#B7CEAE"/>
<path d="M36.3605 61.1652C36.315 61.1652 36.2695 61.1458 36.2371 61.1092C36.1786 61.0412 36.1862 60.9398 36.2544 60.8816C38.9686 58.5592 42.4363 57.2798 46.0188 57.2798C46.1086 57.2798 46.1812 57.3521 46.1812 57.4416C46.1812 57.5312 46.1086 57.6034 46.0188 57.6034C42.5131 57.6034 39.1212 58.8547 36.4655 61.1275C36.4352 61.1534 36.3973 61.1663 36.3605 61.1663V61.1652Z" fill="white"/>
<path d="M31.1866 72.3803C31.0967 72.3803 31.0242 72.308 31.0242 72.2185C31.0242 69.4312 31.7993 66.7118 33.2674 64.3549C33.3151 64.2794 33.4147 64.2557 33.4904 64.3031C33.5662 64.3506 33.59 64.4498 33.5424 64.5253C32.1068 66.8316 31.3479 69.4916 31.3479 72.2195C31.3479 72.3091 31.2753 72.3813 31.1855 72.3813L31.1866 72.3803Z" fill="white"/>
<path d="M164.92 25.4901C171.647 25.4901 177.1 20.057 177.1 13.355C177.1 6.65293 171.647 1.21985 164.92 1.21985C158.194 1.21985 152.74 6.65293 152.74 13.355C152.74 20.057 158.194 25.4901 164.92 25.4901Z" fill="#738D6A"/>
<path d="M177.078 12.7045H152.741C152.741 12.7045 151.77 19.4398 162.641 37.8895C163.116 38.6942 163.983 39.1753 164.919 39.1764C165.856 39.1764 166.724 38.7039 167.198 37.8992C178.068 19.4484 177.078 12.7056 177.078 12.7056V12.7045Z" fill="#738D6A"/>
<path opacity="0.8" d="M164.915 39.5691V39.637H164.918C163.858 39.637 162.869 39.0556 162.336 38.1517C155.982 27.3681 153.653 20.5487 152.82 16.7334C152.581 15.8554 152.445 14.9957 152.402 14.1133C152.328 13.2105 152.384 12.8308 152.391 12.7909L152.423 12.5967C152.914 6.07827 158.36 1.00525 164.92 1.00525C171.481 1.00525 177.062 6.15054 177.434 12.7208C177.443 12.8071 177.461 13.025 177.454 13.3895V13.4338C177.454 14.6257 177.285 15.8058 176.953 16.9427C176.09 20.7548 173.747 27.5062 167.501 38.1085C166.966 39.0189 166.012 39.5691 164.916 39.5691H164.915ZM153.073 13.2504C153.07 13.4327 153.075 13.6927 153.108 14.0831C153.148 14.918 153.278 15.7227 153.504 16.5555L153.508 16.5695C154.33 20.333 156.634 27.0661 162.946 37.7785C163.352 38.4677 164.105 38.896 164.916 38.896V39.2476L164.915 38.8949C165.646 38.8949 166.481 38.4634 166.891 37.7677C173.097 27.2333 175.413 20.539 176.263 16.7777L176.27 16.7561C176.586 15.6807 176.676 14.5631 176.676 13.4349L176.604 13.3852V13.3809C176.604 13.0293 176.664 12.8394 176.658 12.7898L176.692 12.7693C176.347 6.56691 171.178 1.70963 164.902 1.70963C158.626 1.70963 153.462 6.63595 153.104 12.8923L153.095 13.2504H153.072H153.073Z" fill="white"/>
<path d="M166.998 20.0418C170.715 18.9207 172.817 15.0092 171.691 11.3053C170.566 7.60131 166.64 5.5075 162.923 6.62862C159.205 7.74973 157.104 11.6612 158.229 15.3652C159.354 19.0691 163.28 21.1629 166.998 20.0418Z" fill="white"/>
<path d="M164.959 20.7148C160.865 20.7148 157.533 17.3958 157.533 13.3162C157.533 9.23663 160.865 5.91754 164.959 5.91754C169.054 5.91754 172.385 9.23663 172.385 13.3162C172.385 17.3958 169.054 20.7148 164.959 20.7148ZM164.959 6.70066C161.298 6.70066 158.319 9.6681 158.319 13.3162C158.319 16.9643 161.298 19.9317 164.959 19.9317C168.621 19.9317 171.599 16.9643 171.599 13.3162C171.599 9.6681 168.621 6.70066 164.959 6.70066Z" fill="#B7CEAE"/>
<path d="M158.288 6.01997C158.255 6.01997 158.222 6.00594 158.198 5.97898C158.156 5.92936 158.161 5.85601 158.211 5.81394C160.187 4.12365 162.711 3.19275 165.319 3.19275C165.384 3.19275 165.437 3.2456 165.437 3.31032C165.437 3.37505 165.384 3.4279 165.319 3.4279C162.767 3.4279 160.298 4.33831 158.365 5.993C158.342 6.01242 158.315 6.02104 158.288 6.02104V6.01997Z" fill="#738D6A"/>
<path d="M154.523 14.1845C154.458 14.1845 154.405 14.1316 154.405 14.0669C154.405 12.0379 154.97 10.0586 156.037 8.34238C156.072 8.28737 156.145 8.2701 156.2 8.30462C156.255 8.33914 156.272 8.41141 156.238 8.46642C155.193 10.1448 154.641 12.0822 154.641 14.0669C154.641 14.1316 154.588 14.1845 154.523 14.1845Z" fill="white"/>
<path d="M56.6849 285.321C56.6892 285.229 56.6838 285.136 56.6556 285.042C55.0262 279.522 46.3445 276.013 46.3445 276.013L42.8649 276.195C40.7472 281.027 40.9302 284.006 41.2182 285.334C41.2257 285.371 41.2398 285.406 41.2517 285.442C44.1121 285.67 50.0071 285.857 56.6849 285.322V285.321Z" fill="url(#paint1_linear_1169_8172)"/>
<path d="M41.2518 285.441C41.3958 285.886 41.8029 286.234 42.3323 286.327C46.3922 287.039 52.8838 286.557 55.6109 286.302C56.2129 286.246 56.6622 285.814 56.6838 285.322C50.0061 285.856 44.1111 285.67 41.2507 285.442L41.2518 285.441Z" fill="url(#paint2_linear_1169_8172)"/>
<path d="M66.1783 284.409C63.0917 284.323 61.4948 283.96 60.6687 283.625C60.6666 283.93 60.6687 284.242 60.6785 284.564C60.6893 284.909 60.9448 285.184 61.2599 285.181L78.2098 285.073C78.7511 285.069 79.0672 284.444 78.8323 283.95C76.6096 284.133 70.9495 284.542 66.1772 284.409H66.1783Z" fill="url(#paint3_linear_1169_8172)"/>
<path d="M78.8333 283.95C78.8128 283.906 78.7954 283.862 78.7662 283.822C77.2689 281.738 73.4569 277.589 65.9228 275.788L62.3089 275.675C62.3089 275.675 60.699 278.462 60.6687 283.624C61.4937 283.96 63.0906 284.322 66.1783 284.408C70.9506 284.541 76.6107 284.132 78.8333 283.949V283.95Z" fill="url(#paint4_linear_1169_8172)"/>
<path d="M59.8375 192.387C59.8375 192.387 67.4593 234.758 67.3013 276.292C67.298 277.049 61.7581 278.054 61.638 277.353C60.4156 270.212 52.3131 223.725 48.3171 217.193C48.3171 217.193 46.6942 258.34 47.5343 276.93C47.5549 277.392 42.3744 278.126 42.2965 277.59C41.426 271.546 35.5678 229.501 35.78 203.585C35.7919 202.123 37.1507 189.948 37.1507 189.948C45.761 191.437 52.3207 194.033 59.8364 192.386L59.8375 192.387Z" fill="#34432F"/>
<path d="M32.1833 168.055C27.1576 157.016 26.6228 149.261 32.1833 145.963C32.5145 145.879 32.8523 145.813 33.1955 145.77C34.9667 145.546 37.4157 145.236 40.2381 144.865C40.2381 144.865 40.2468 144.865 40.263 144.861C40.6723 144.771 46.3161 143.569 52.4461 143.19C58.3356 142.823 64.6659 143.219 67.222 146.095C67.222 146.095 68.9748 150.442 72.2693 154.75C77.0026 160.938 79.326 167.835 81.7847 166.491C82.4559 166.125 82.9529 163.663 83.4671 162.548C85.2589 162.76 88.8219 163.298 91.5999 166.251C89.5472 177.376 82.7461 181.975 66.0766 168.314C62.9109 177.234 59.4248 188.503 60.5572 196.681C60.6514 197.378 60.083 198.126 59.3837 198.227C55.5879 198.789 43.5391 200.227 37.6625 197.88C37.3193 197.745 36.3688 197.56 36.3688 197.189C36.3807 194.488 37.0638 183.745 32.5947 169.646C32.4323 169.123 32.2937 168.593 32.1833 168.054V168.055Z" fill="url(#paint5_linear_1169_8172)"/>
<path d="M43.3347 134.268L42.2012 145.801C42.2012 145.801 48.7133 147.756 53.4499 144.426L50.1196 133.943L43.3336 134.267L43.3347 134.268Z" fill="url(#paint6_linear_1169_8172)"/>
<path d="M54.3884 124.439C54.4653 124.64 54.7933 138.815 54.7933 138.815L46.6659 138.829L44.3523 125.439C44.3523 125.439 53.0947 121.089 54.3895 124.439H54.3884Z" fill="url(#paint7_linear_1169_8172)"/>
<path d="M47.1369 127.113C46.8728 127.36 46.7385 127.713 46.7721 128.072L47.426 135.113C47.4357 135.219 47.4596 135.323 47.4985 135.423C47.7151 135.974 48.5455 137.672 50.2755 136.729C51.7501 135.926 53.1164 135.209 54.2261 135.174C54.8735 135.154 55.4083 135.673 55.4213 136.32C55.4473 137.65 55.4441 140.334 55.1063 142.719C55.0218 143.317 54.4838 143.745 53.8796 143.707C52.2838 143.607 49.1734 143.318 46.6746 142.519C46.2643 142.387 45.9612 142.043 45.8832 141.621C45.5389 139.763 44.5527 134.557 44.0471 133.131C43.5772 131.805 41.7518 131.347 40.8998 131.202C40.5761 131.147 40.2924 130.963 40.1116 130.69C39.5714 129.87 38.793 128.099 40.9345 126.757C41.4671 126.424 41.6198 125.713 41.2961 125.176C40.7158 124.214 40.2989 122.728 41.9911 121.458C43.7049 120.172 45.3646 120.777 46.3812 121.426C46.8316 121.713 47.4368 121.696 47.8342 121.34C48.0106 121.181 48.2531 121.091 48.5823 121.174C50.256 121.596 49.967 119.268 50.8266 118.542C52.0316 117.524 53.3362 119.006 53.8223 120.098C54.0919 120.705 54.2835 121.345 54.579 121.94C55.0424 122.871 55.7645 123.673 56.6436 124.233C56.7779 124.319 56.923 124.407 56.9977 124.548C57.1027 124.749 57.0269 125.006 56.8753 125.175C56.7238 125.343 56.5094 125.441 56.3004 125.53C54.5801 126.259 52.797 126.335 51.002 125.74C49.4419 125.222 47.8645 126.435 47.1369 127.115V127.113Z" fill="black"/>
<path d="M44.6837 135.612C44.6837 135.612 44.8288 131.433 43.1431 130.792C41.4574 130.152 39.4069 131.149 40.5426 133.919C41.9554 137.364 44.6837 135.613 44.6837 135.613V135.612Z" fill="url(#paint8_linear_1169_8172)"/>
<path d="M56.9825 124.126C54.4707 110.978 35.728 116.469 40.0282 128.215C46.5187 126.3 54.2466 122.864 56.9825 124.126Z" fill="url(#paint9_linear_1169_8172)"/>
<path d="M46.1202 126.034L57.0095 129.013C57.2855 129.088 57.5833 129.014 57.79 128.816C59.2938 127.374 61.0499 126.701 63.0062 126.635C63.2542 126.627 63.3094 126.284 63.0777 126.195L56.6035 123.717C56.5959 123.714 56.5894 123.712 56.5818 123.711C53.2083 122.952 49.6799 124.031 46.0964 125.766C45.9773 125.824 45.9935 126 46.1213 126.034H46.1202Z" fill="url(#paint10_linear_1169_8172)"/>
<path d="M43.1059 184.131C39.8363 184.192 37.1514 181.569 37.1514 178.31V152.406C37.1514 149.003 39.897 146.233 43.3127 146.196C53.5643 146.085 74.7084 146.079 92.008 147.531C94.3692 147.73 96.2054 149.657 96.2909 152.016L97.9073 177.061C98.0275 180.374 95.3988 183.142 92.0718 183.204L43.1059 184.131Z" fill="url(#paint11_linear_1169_8172)"/>
<path opacity="0.37" d="M65.1377 168.253L72.176 169.009C73.1612 169.115 74.0013 168.306 73.9288 167.322L72.3903 146.463C69.4401 146.371 66.53 146.303 63.7227 146.254V166.681C63.7227 167.489 64.3333 168.166 65.1388 168.253H65.1377Z" fill="white"/>
<path d="M68.0221 164.637C68.0437 165.012 68.3555 165.302 68.728 165.302C68.742 165.302 68.7561 165.302 68.7691 165.3C69.1599 165.278 69.4577 164.944 69.4349 164.556L68.3739 146.351C67.8976 146.339 67.4266 146.329 66.9546 146.319L68.0221 164.638V164.637Z" fill="white"/>
<path d="M67.1247 186.832C68.3935 185.07 67.4408 183.896 67.4408 183.896C61.0369 181.618 51.8594 181.798 44.9012 173.097C42.0744 174.59 44.3577 175.477 41.2603 179.967C55.8327 189.311 67.1236 186.832 67.1236 186.832H67.1247Z" fill="url(#paint12_linear_1169_8172)"/>
<path d="M37.5186 154.124C37.6085 164.586 40.9149 172.559 56.6674 180.677L53.4498 185.651C45.7803 184.94 32.2851 174.74 28.2111 167.169C27.2064 165.301 25.8174 159.424 26.0199 155.285C26.4356 146.766 35.2429 138.984 37.5186 154.124Z" fill="url(#paint13_linear_1169_8172)"/>
<path d="M66.9851 186.783C70.8317 188.199 73.4691 185.899 75.1818 183.411C71.5885 183.001 69.3301 182.951 66.3723 183.544L66.9851 186.783Z" fill="url(#paint14_linear_1169_8172)"/>
<path d="M98.3322 160.127C97.3546 159.888 95.159 156.929 94.9251 158.01C94.6913 159.09 95.3539 160.462 95.2553 160.922C95.1568 161.382 94.4206 163.957 95.0063 165.038C95.4286 165.818 96.2579 168.271 96.6877 169.576C96.8306 170.01 96.9464 170.582 97.4011 170.531C97.8559 170.48 98.2077 169.871 98.2499 169.417C98.2673 169.234 99.3098 160.366 98.3322 160.128V160.127Z" fill="url(#paint15_linear_1169_8172)"/>
<path d="M297.463 160.762H184.224V238.357H297.463V160.762Z" fill="#FF9418"/>
<path d="M273.994 231.037V188.315H244.919V231.037H273.994Z" fill="#71C1DC"/>
<mask id="mask0_1169_8172" style="mask-type:luminance" maskUnits="userSpaceOnUse" x="244" y="188" width="30" height="44">
<path d="M273.994 231.037V188.315H244.919V231.037H273.994Z" fill="white"/>
</mask>
<g mask="url(#mask0_1169_8172)">
<g style="mix-blend-mode:soft-light" opacity="0.8">
<path d="M255.319 231.037H267.962L244.368 188.315H231.719L255.319 231.037Z" fill="#D6F0EF"/>
</g>
<g style="mix-blend-mode:soft-light" opacity="0.8">
<path d="M273.03 231.037H277.81L254.21 188.315H249.43L273.03 231.037Z" fill="#D6F0EF"/>
</g>
<g style="mix-blend-mode:multiply" opacity="0.6">
<path d="M260.587 194.941H244.918V231.036H260.587V194.941Z" fill="#71C1DC"/>
</g>
<g style="mix-blend-mode:multiply" opacity="0.6">
<path d="M273.994 215.503H268.375V231.038H273.994V215.503Z" fill="#71C1DC"/>
</g>
</g>
<path d="M241.774 185.186V234.166H277.146V185.186H241.774ZM244.919 231.037V209.679H273.995V207.616H244.919V188.322H273.995V231.043H244.919V231.037Z" fill="#80412F"/>
<path d="M240.847 234.219H241.774V185.182H240.847V234.219Z" fill="#A46D47"/>
<path d="M237.695 231.037V188.315H208.62V231.037H237.695Z" fill="#71C1DC"/>
<mask id="mask1_1169_8172" style="mask-type:luminance" maskUnits="userSpaceOnUse" x="208" y="188" width="30" height="44">
<path d="M237.695 231.037V188.315H208.62V231.037H237.695Z" fill="white"/>
</mask>
<g mask="url(#mask1_1169_8172)">
<g style="mix-blend-mode:multiply" opacity="0.6">
<path d="M237.695 218.438H208.619V231.037H237.695V218.438Z" fill="#71C1DC"/>
</g>
<g style="mix-blend-mode:multiply" opacity="0.6">
<path d="M224.288 208.034H208.62V217.734H224.288V208.034Z" fill="#71C1DC"/>
</g>
<g style="mix-blend-mode:multiply" opacity="0.6">
<path d="M224.288 197.604H208.619V207.304H224.288V197.604Z" fill="#71C1DC"/>
</g>
<g style="mix-blend-mode:multiply" opacity="0.6">
<path d="M237.664 210.552H231.092V217.727H237.664V210.552Z" fill="#71C1DC"/>
</g>
<g style="mix-blend-mode:multiply" opacity="0.6">
<path d="M237.664 202.703H231.092V209.878H237.664V202.703Z" fill="#71C1DC"/>
</g>
<g style="mix-blend-mode:soft-light" opacity="0.8">
<path d="M219.019 231.037H231.668L208.068 188.315H195.425L219.019 231.037Z" fill="#D6F0EF"/>
</g>
<g style="mix-blend-mode:soft-light" opacity="0.8">
<path d="M236.73 231.037H241.51L217.91 188.315H213.13L236.73 231.037Z" fill="#D6F0EF"/>
</g>
</g>
<path d="M205.474 185.186V234.166H240.846V185.186H205.474ZM208.619 231.037V209.679H237.695V207.616H208.619V188.322H237.695V231.043H208.619V231.037Z" fill="#80412F"/>
<path d="M204.547 234.219H205.475V185.182H204.547V234.219Z" fill="#A46D47"/>
<path d="M297.469 155.576H184.224V178.255C185.408 179.545 187.112 180.356 189.004 180.356C192.581 180.356 195.488 177.469 195.488 173.903C195.488 177.463 198.389 180.356 201.972 180.356C205.556 180.356 208.456 177.469 208.456 173.903C208.456 177.463 211.357 180.356 214.941 180.356C218.518 180.356 221.425 177.469 221.425 173.903C221.425 177.463 224.326 180.356 227.909 180.356C231.493 180.356 234.393 177.469 234.393 173.903C234.393 177.463 237.294 180.356 240.878 180.356C244.455 180.356 247.362 177.469 247.362 173.903C247.362 177.463 250.263 180.356 253.846 180.356C257.43 180.356 260.33 177.469 260.33 173.903C260.33 177.463 263.231 180.356 266.815 180.356C270.392 180.356 273.299 177.469 273.299 173.903C273.299 177.463 276.199 180.356 279.783 180.356C283.367 180.356 286.267 177.469 286.267 173.903C286.267 177.463 289.168 180.356 292.751 180.356C294.625 180.356 296.31 179.558 297.488 178.298V155.576H297.469Z" fill="#C98439"/>
<path d="M188.985 173.149C185.408 173.149 182.501 170.263 182.501 166.697V148.363H195.469V166.697C195.469 170.257 192.569 173.149 188.985 173.149Z" fill="#76440A"/>
<path d="M195.469 148.368H208.438V166.702C208.438 170.262 205.531 173.155 201.953 173.155C198.376 173.155 195.469 170.262 195.469 166.702V148.368Z" fill="#E2E0E3"/>
<path d="M292.707 173.149C289.13 173.149 286.223 170.263 286.223 166.697V148.363H299.191V166.697C299.191 170.257 296.291 173.149 292.707 173.149Z" fill="#76440A"/>
<path d="M214.915 173.149C211.338 173.149 208.431 170.263 208.431 166.697V148.363H221.399V166.697C221.399 170.257 218.499 173.149 214.915 173.149Z" fill="#76440A"/>
<path d="M221.399 148.368H234.368V166.702C234.368 170.262 231.461 173.155 227.884 173.155C224.306 173.155 221.399 170.262 221.399 166.702V148.368Z" fill="#E2E0E3"/>
<path d="M240.846 173.149C237.269 173.149 234.362 170.263 234.362 166.697V148.363H247.331V166.697C247.331 170.257 244.43 173.149 240.846 173.149Z" fill="#76440A"/>
<path d="M247.331 148.368H260.299V166.702C260.299 170.262 257.392 173.155 253.815 173.155C250.238 173.155 247.331 170.262 247.331 166.702V148.368Z" fill="#E2E0E3"/>
<path d="M266.777 173.149C263.2 173.149 260.293 170.263 260.293 166.697V148.363H273.261V166.697C273.261 170.257 270.361 173.149 266.777 173.149Z" fill="#76440A"/>
<path d="M273.26 148.368H286.229V166.702C286.229 170.262 283.322 173.155 279.745 173.155C276.167 173.155 273.26 170.262 273.26 166.702V148.368Z" fill="#E2E0E3"/>
<path d="M302.531 234.566H179.162V238.35H302.531V234.566Z" fill="#D28429"/>
<path d="M302.531 234.218H179.161V235.19H302.531V234.218Z" fill="#D28429"/>
<path d="M283.26 134.91H198.433V139.049H283.26V134.91Z" fill="#D28429"/>
<path d="M207.862 139.056H198.433L182.501 148.37H195.469L207.862 139.056Z" fill="#A6671E"/>
<path d="M217.284 139.057H207.862L195.469 148.37H208.432L217.284 139.057Z" fill="#F3EFF1"/>
<path d="M226.706 139.057H217.284L208.431 148.37H221.4L226.706 139.057Z" fill="#A6671E"/>
<path d="M283.26 139.057H273.838L286.224 148.37H299.192L283.26 139.057Z" fill="#A6671E"/>
<path d="M236.135 139.057H226.706L221.4 148.37H234.362L236.135 139.057Z" fill="#F3EFF1"/>
<path d="M245.558 139.057H236.135L234.362 148.37H247.331L245.558 139.057Z" fill="#A6671E"/>
<path d="M254.986 139.057H245.557L247.33 148.37H260.292L254.986 139.057Z" fill="#F3EFF1"/>
<path d="M264.409 139.057H254.986L260.293 148.37H273.261L264.409 139.057Z" fill="#A6671E"/>
<path d="M273.838 139.057H264.409L273.262 148.37H286.224L273.838 139.057Z" fill="#F3EFF1"/>
<path d="M239.575 75.5C250.57 75.5 259.485 84.371 259.485 95.3116C259.485 113.602 239.575 129.156 239.575 129.156C239.575 129.156 219.665 113.602 219.665 95.3116C219.665 84.371 228.58 75.5 239.575 75.5Z" fill="#52674A"/>
<path d="M239.575 75.5C240.502 75.5 241.41 75.5686 242.3 75.687C232.508 76.0237 224.226 83.5107 223.211 93.4788C221.35 111.676 239.575 129.156 239.575 129.156C239.575 129.156 219.665 113.602 219.665 95.3116C219.665 84.371 228.58 75.5 239.575 75.5Z" fill="#374532"/>
<path d="M240.22 105.113C245.323 105.113 249.461 100.996 249.461 95.9177C249.461 90.8393 245.323 86.7225 240.22 86.7225C235.116 86.7225 230.979 90.8393 230.979 95.9177C230.979 100.996 235.116 105.113 240.22 105.113Z" fill="#FFFEFF"/>
<path d="M172.327 212.267H166.293V238.5H172.327V212.267Z" fill="#A5784C"/>
<path d="M180.095 206.732C180.095 212.66 175.265 217.46 169.313 217.46C163.361 217.46 158.531 212.654 158.531 206.732C158.531 200.809 163.361 171.136 169.313 171.136C175.265 171.136 180.095 200.809 180.095 206.732Z" fill="#52674A"/>
<path d="M172.514 213.378C166.556 213.378 161.732 208.571 161.732 202.649C161.732 198.123 164.552 179.733 168.536 171.305C162.942 173.692 158.531 201.066 158.531 206.732C158.531 212.399 163.361 217.461 169.313 217.461C173.711 217.461 177.489 214.836 179.162 211.084C177.326 212.517 175.027 213.378 172.514 213.378Z" fill="#374532"/>
<path d="M83.0011 289.418H149.447V211.996C149.447 211.324 148.9 210.777 148.224 210.777H83L83 289.418H83.0011Z" fill="url(#paint16_linear_1169_8172)"/>
<path d="M157.625 289.447H93.7571V210.855H156.239C157.004 210.855 157.625 211.474 157.625 212.236V289.447Z" fill="url(#paint17_linear_1169_8172)"/>
<path opacity="0.37" d="M127.696 233.562L120.318 234.355C119.285 234.466 118.405 233.617 118.48 232.586L120.094 210.719C123.187 210.621 126.238 210.55 129.181 210.5V231.915C129.181 232.762 128.541 233.472 127.696 233.563V233.562Z" fill="white"/>
<path d="M124.672 229.772C124.649 230.165 124.322 230.468 123.932 230.468C123.918 230.468 123.902 230.468 123.888 230.467C123.479 230.444 123.166 230.094 123.191 229.686L124.304 210.601C124.803 210.589 125.298 210.578 125.793 210.567L124.673 229.772H124.672Z" fill="white"/>
<defs>
<linearGradient id="paint0_linear_1169_8172" x1="324.74" y1="349.079" x2="113.256" y2="126.002" gradientUnits="userSpaceOnUse">
<stop stop-color="#F2FFEE"/>
<stop offset="1" stop-color="#ECFFE5"/>
</linearGradient>
<linearGradient id="paint1_linear_1169_8172" x1="56.6858" y1="280.84" x2="41.0453" y2="280.84" gradientUnits="userSpaceOnUse">
<stop stop-color="#4F6C44"/>
<stop offset="1" stop-color="#373737"/>
</linearGradient>
<linearGradient id="paint2_linear_1169_8172" x1="56.6835" y1="286.011" x2="41.2507" y2="286.011" gradientUnits="userSpaceOnUse">
<stop stop-color="#CCE4C3"/>
<stop offset="1" stop-color="#AACB9E"/>
</linearGradient>
<linearGradient id="paint3_linear_1169_8172" x1="78.9105" y1="284.403" x2="60.668" y2="284.403" gradientUnits="userSpaceOnUse">
<stop stop-color="#CCE4C3"/>
<stop offset="1" stop-color="#AACB9E"/>
</linearGradient>
<linearGradient id="paint4_linear_1169_8172" x1="78.8329" y1="280.054" x2="60.668" y2="280.054" gradientUnits="userSpaceOnUse">
<stop stop-color="#4F6C44"/>
<stop offset="1" stop-color="#373737"/>
</linearGradient>
<linearGradient id="paint5_linear_1169_8172" x1="28.2117" y1="171.127" x2="91.6007" y2="171.127" gradientUnits="userSpaceOnUse">
<stop stop-color="#4B5647"/>
<stop offset="1" stop-color="#3C5134"/>
</linearGradient>
<linearGradient id="paint6_linear_1169_8172" x1="50.2885" y1="131.182" x2="41.15" y2="170.822" gradientUnits="userSpaceOnUse">
<stop stop-color="#FEBBBA"/>
<stop offset="1" stop-color="#FF928E"/>
</linearGradient>
<linearGradient id="paint7_linear_1169_8172" x1="51.4307" y1="125.68" x2="44.0069" y2="151.622" gradientUnits="userSpaceOnUse">
<stop stop-color="#FEBBBA"/>
<stop offset="1" stop-color="#FF928E"/>
</linearGradient>
<linearGradient id="paint8_linear_1169_8172" x1="35.5062" y1="149.951" x2="42.7567" y2="132.977" gradientUnits="userSpaceOnUse">
<stop stop-color="#FEBBBA"/>
<stop offset="1" stop-color="#FF928E"/>
</linearGradient>
<linearGradient id="paint9_linear_1169_8172" x1="74.3329" y1="103.293" x2="37.8109" y2="127.298" gradientUnits="userSpaceOnUse">
<stop stop-color="#FFB159"/>
<stop offset="1" stop-color="#FE8C08"/>
</linearGradient>
<linearGradient id="paint10_linear_1169_8172" x1="80.1973" y1="117.177" x2="62.0807" y2="141.644" gradientUnits="userSpaceOnUse">
<stop stop-color="#FFB159"/>
<stop offset="1" stop-color="#FE8C08"/>
</linearGradient>
<linearGradient id="paint11_linear_1169_8172" x1="157.835" y1="103.338" x2="36.634" y2="188.208" gradientUnits="userSpaceOnUse">
<stop stop-color="#FFB159"/>
<stop offset="1" stop-color="#FE8C08"/>
</linearGradient>
<linearGradient id="paint12_linear_1169_8172" x1="35.695" y1="170.583" x2="80.4906" y2="197.936" gradientUnits="userSpaceOnUse">
<stop stop-color="#FEBBBA"/>
<stop offset="1" stop-color="#FF928E"/>
</linearGradient>
<linearGradient id="paint13_linear_1169_8172" x1="26" y1="165.591" x2="56.6695" y2="165.591" gradientUnits="userSpaceOnUse">
<stop stop-color="#49663E"/>
<stop offset="1" stop-color="#596853"/>
</linearGradient>
<linearGradient id="paint14_linear_1169_8172" x1="41.1131" y1="187.302" x2="80.4624" y2="184.329" gradientUnits="userSpaceOnUse">
<stop stop-color="#FEBBBA"/>
<stop offset="1" stop-color="#FF928E"/>
</linearGradient>
<linearGradient id="paint15_linear_1169_8172" x1="91.4148" y1="146.698" x2="116.91" y2="223.451" gradientUnits="userSpaceOnUse">
<stop stop-color="#FEBBBA"/>
<stop offset="1" stop-color="#FF928E"/>
</linearGradient>
<linearGradient id="paint16_linear_1169_8172" x1="214.98" y1="378.07" x2="41.2103" y2="313.803" gradientUnits="userSpaceOnUse">
<stop stop-color="#FFB159"/>
<stop offset="1" stop-color="#FE8C08"/>
</linearGradient>
<linearGradient id="paint17_linear_1169_8172" x1="30.7687" y1="378.044" x2="199.313" y2="318.094" gradientUnits="userSpaceOnUse">
<stop stop-color="#FFB159"/>
<stop offset="1" stop-color="#FE8C08"/>
</linearGradient>
</defs>
</svg>
