<svg width="23" height="23" viewBox="0 0 23 23" fill="none" xmlns="http://www.w3.org/2000/svg">
<path d="M7.6667 21.0833H15.3334C19.1859 21.0833 19.8759 19.5404 20.0771 17.6621L20.7959 9.99542C21.0546 7.65708 20.3838 5.75 16.2917 5.75H6.70837C2.61629 5.75 1.94545 7.65708 2.2042 9.99542L2.92295 17.6621C3.1242 19.5404 3.8142 21.0833 7.6667 21.0833Z" stroke="#AEAEAE" stroke-width="1.5" stroke-miterlimit="10" stroke-linecap="round" stroke-linejoin="round"/>
<path d="M7.66675 5.75008V4.98341C7.66675 3.28716 7.66675 1.91675 10.7334 1.91675H12.2667C15.3334 1.91675 15.3334 3.28716 15.3334 4.98341V5.75008" stroke="#AEAEAE" stroke-width="1.5" stroke-miterlimit="10" stroke-linecap="round" stroke-linejoin="round"/>
<path d="M13.4166 12.4583V13.4167C13.4166 13.4262 13.4166 13.4263 13.4166 13.4358C13.4166 14.4804 13.407 15.3333 11.4999 15.3333C9.60242 15.3333 9.58325 14.49 9.58325 13.4454V12.4583C9.58325 11.5 9.58325 11.5 10.5416 11.5H12.4583C13.4166 11.5 13.4166 11.5 13.4166 12.4583Z" stroke="#AEAEAE" stroke-width="1.5" stroke-miterlimit="10" stroke-linecap="round" stroke-linejoin="round"/>
<path d="M20.748 10.5417C18.5342 12.1517 16.0042 13.1101 13.4167 13.4359" stroke="#AEAEAE" stroke-width="1.5" stroke-miterlimit="10" stroke-linecap="round" stroke-linejoin="round"/>
<path d="M2.51074 10.8005C4.66699 12.2764 7.10116 13.1676 9.58324 13.4455" stroke="#AEAEAE" stroke-width="1.5" stroke-miterlimit="10" stroke-linecap="round" stroke-linejoin="round"/>
</svg>
