<svg width="16" height="16" viewBox="0 0 16 16" fill="none" xmlns="http://www.w3.org/2000/svg">
<g clip-path="url(#clip0_701_858)">
<path fill-rule="evenodd" clip-rule="evenodd" d="M2.2657 6.11722C2.10483 6.04398 1.97963 5.90986 1.91762 5.74434C1.85562 5.57882 1.86188 5.39546 1.93503 5.23455C3.2597 2.32122 6.53237 0.706551 9.72637 1.56188C11.1355 1.9393 12.382 2.7684 13.2747 3.92211C14.1675 5.07582 14.6573 6.49047 14.669 7.94922C14.6737 8.55122 14.0057 8.88388 13.527 8.56122L11.7417 7.35855C11.071 6.90655 11.519 5.86055 12.3084 6.03388L13.0177 6.18988C12.6575 5.19332 12.0087 4.3266 11.1539 3.70025C10.2992 3.07389 9.2773 2.71628 8.21851 2.67301C7.15973 2.62975 6.11206 2.90278 5.20906 3.4573C4.30607 4.01182 3.58868 4.8227 3.14837 5.78655C3.07513 5.94742 2.94101 6.07262 2.77549 6.13462C2.60997 6.19663 2.4266 6.19037 2.2657 6.11722ZM13.7364 9.88588C13.8974 9.959 14.0227 10.0931 14.0848 10.2586C14.147 10.4241 14.1408 10.6076 14.0677 10.7686C12.7424 13.6819 9.4697 15.2972 6.2757 14.4412C4.86652 14.0637 3.62002 13.2344 2.72726 12.0806C1.8345 10.9268 1.34473 9.51205 1.33303 8.05322C1.32837 7.45122 1.99637 7.11855 2.47503 7.44122L4.26037 8.64388C4.93103 9.09588 4.48303 10.1419 3.6937 9.96855L2.98437 9.81255C3.34456 10.8091 3.99339 11.6758 4.84813 12.3022C5.70286 12.9285 6.72477 13.2862 7.78355 13.3294C8.84233 13.3727 9.89001 13.0997 10.793 12.5451C11.696 11.9906 12.4134 11.1797 12.8537 10.2159C12.9269 10.055 13.0611 9.92982 13.2266 9.86781C13.3921 9.8058 13.5755 9.81206 13.7364 9.88522V9.88588Z" fill="#191919"/>
</g>
<defs>
<clipPath id="clip0_701_858">
<rect width="16" height="16" fill="white"/>
</clipPath>
</defs>
</svg>
