<svg width="20" height="20" viewBox="0 0 20 20" fill="none" xmlns="http://www.w3.org/2000/svg">
<g id="check-circle" clip-path="url(#clip0_77_2917)">
<g id="Icon">
<path d="M9.99984 18.3334C14.6022 18.3334 18.3332 14.6025 18.3332 10.0001C18.3332 5.39771 14.6022 1.66675 9.99984 1.66675C5.39746 1.66675 1.6665 5.39771 1.6665 10.0001C1.6665 14.6025 5.39746 18.3334 9.99984 18.3334Z" fill="#FF6C29"/>
<path d="M6.24984 10.0001L8.74984 12.5001L13.7498 7.50008M18.3332 10.0001C18.3332 14.6025 14.6022 18.3334 9.99984 18.3334C5.39746 18.3334 1.6665 14.6025 1.6665 10.0001C1.6665 5.39771 5.39746 1.66675 9.99984 1.66675C14.6022 1.66675 18.3332 5.39771 18.3332 10.0001Z" stroke="#FF6C29" stroke-width="1.5" stroke-linecap="round" stroke-linejoin="round"/>
</g>
<path id="Icon_2" d="M6.25 10L8.75 12.5L13.75 7.5" stroke="white" stroke-width="1.5" stroke-linecap="round" stroke-linejoin="round"/>
</g>
<defs>
<clipPath id="clip0_77_2917">
<rect width="20" height="20" fill="white"/>
</clipPath>
</defs>
</svg>
