<svg width="101" height="210" viewBox="0 0 101 210" fill="none" xmlns="http://www.w3.org/2000/svg">
<path d="M37.1523 200.902C41.1199 201.25 48.0067 201.816 53.4352 202.058C56.6987 202.205 58.5772 201.88 59.6597 201.44C59.658 201.563 59.6546 201.68 59.6495 201.789C59.6239 202.369 59.1594 202.833 58.5823 202.866C48.3246 203.448 40.1662 203.067 37.2614 202.888C36.6605 202.85 36.3034 202.187 36.6102 201.668C36.7637 201.408 36.9503 201.153 37.1523 200.901V200.902Z" fill="url(#paint0_linear_266_3435)"/>
<path d="M53.4381 202.06C48.0096 201.817 41.1229 201.251 37.1553 200.903C41.0564 196.043 53.4381 192.766 53.4381 192.766H56.9352C59.3405 196.288 59.6891 199.64 59.6627 201.441C58.5802 201.881 56.7017 202.206 53.4381 202.06V202.06Z" fill="url(#paint1_linear_266_3435)"/>
<path d="M57.5213 186.97L57.194 193.547C57.1582 194.259 56.634 194.857 55.9317 194.96C55.2328 195.061 54.2969 195.074 53.3048 194.739C52.6945 194.533 52.2411 194.01 52.1286 193.373L50.9976 186.971H57.5213V186.97Z" fill="url(#paint2_linear_266_3435)"/>
<path d="M98.1095 208.491C99.8304 208.176 100.609 207.003 100.935 205.749C100.938 205.76 100.939 205.771 100.942 205.782C101.195 207.106 100.609 208.477 99.4349 209.129C98.0166 209.917 96.4663 210.051 95.2628 209.986C93.9715 209.916 92.7859 209.214 92.1339 208.092L92.1245 208.074C93.4209 208.917 95.2406 209.015 98.1104 208.49L98.1095 208.491Z" fill="url(#paint3_linear_266_3435)"/>
<path d="M89.9969 188.995H92.8812C97.2741 188.878 100.032 201.039 100.936 205.748C100.609 207.003 99.8311 208.176 98.1102 208.491C95.2404 209.016 93.4207 208.917 92.1243 208.075C89.7514 203.976 88.5744 197.973 88.0093 194.469C87.3658 190.483 89.9978 188.995 89.9978 188.995H89.9969Z" fill="url(#paint4_linear_266_3435)"/>
<path d="M92.5131 182.892L94.1146 189.36C94.3106 190.153 93.9373 190.974 93.2154 191.35C92.3196 191.817 91.0582 192.308 89.899 192.166C89.3535 192.099 88.9009 191.709 88.7211 191.188L86.3704 184.382L92.5139 182.892H92.5131Z" fill="url(#paint5_linear_266_3435)"/>
<path d="M36.1758 97.6964C36.1758 97.6964 50.4872 188.546 50.2511 189.046C50.2511 189.046 54.2033 190.871 58.5127 189.279C58.5127 189.279 57.2189 140.713 54.1863 122.092C54.1863 122.092 78.6106 165.5 86.3667 187.129C86.3667 187.129 90.4119 186.639 93.7607 184.401C93.7607 184.401 67.463 106.268 60.4466 95.8613L36.1758 97.6964Z" fill="#34432F"/>
<path d="M33.922 34.2623C32.8992 34.3238 31.8909 34.5228 30.9243 34.863C20.4365 38.554 12.1996 37.6252 5.86765 34.7202C4.39995 36.699 2.03645 40.8141 1.00684 47.732C12.5328 56.4444 27.0275 54.1488 31.7673 53.072C30.5263 62.4223 30.5382 77.2138 35.6053 98.8981C35.7383 99.4659 36.2181 99.8858 36.796 99.9342C40.034 100.206 50.8722 100.852 61.2927 98.4748C61.7607 98.3684 62.0163 97.8576 61.8305 97.4136L61.7359 97.1868C60.8674 95.1111 60.4788 92.8657 60.6032 90.6168C60.9816 83.7863 62.7911 68.3525 66.6479 57.7748C66.8721 58.16 67.0817 58.54 67.2846 58.9183C67.9826 51.9614 70.6069 45.1179 72.4591 38.2164C57.3686 33.3456 39.4237 33.9351 33.9211 34.2623H33.922Z" fill="url(#paint6_linear_266_3435)"/>
<path d="M57.4642 21.6294C57.4642 21.6294 58.5185 32.9489 59.4467 36.298C59.5873 36.8061 59.37 37.3419 58.9157 37.605C57.3406 38.5191 53.5622 40.0106 48.3937 37.438C47.5567 37.0216 47.053 36.1352 47.0922 35.1969L47.5474 24.2582L57.4642 21.6294Z" fill="url(#paint7_linear_266_3435)"/>
<path d="M47.3151 7.14478C47.3151 7.14478 43.9433 15.0114 43.7166 19.1395C43.4899 23.2685 42.6146 25.9475 47.3151 26.7785C52.0157 27.6095 55.9756 25.2317 58.1209 21.1192C58.1209 21.1192 61.4825 14.782 60.7282 12.1869C59.9739 9.59185 47.3151 7.14478 47.3151 7.14478Z" fill="url(#paint8_linear_266_3435)"/>
<path d="M56.5167 18.1636L56.2491 18.0442C55.9082 17.8918 55.7624 17.4798 55.9337 17.1439C56.5969 15.8429 57.889 12.8626 56.2193 12.1676C54.6467 11.5123 52.9446 11.1444 51.3278 10.619C49.8268 10.1308 46.9119 9.62008 46.1286 8.01178C45.9019 7.54695 46.1499 6.99816 46.3945 6.54285C46.8514 5.69022 47.3082 4.83673 47.7651 3.98411C48.1512 3.26306 48.5509 2.52469 49.1663 1.99234C50.5752 0.774433 52.256 1.84346 53.8149 2.13603C59.6141 3.22324 63.4478 5.60626 63.5433 9.67634C63.5493 9.93516 63.8203 10.0789 64.0377 9.94382C64.4655 9.67894 65.1508 9.55429 66.067 10.3368C67.66 11.6967 67.008 15.2249 63.5169 18.1264C63.3507 18.264 63.3524 18.5272 63.5322 18.6458C64.1655 19.0639 65.109 20.0602 62.6637 21.3872C60.1349 22.76 58.247 22.6475 57.5199 22.5254C57.3392 22.4951 57.2225 22.3168 57.2617 22.135L58.0381 18.5583C58.0825 18.3558 57.9299 18.1645 57.7262 18.1645H56.5176L56.5167 18.1636Z" fill="black"/>
<path d="M56.3704 18.916C56.3704 18.916 57.6565 13.8911 59.8751 15.3003C62.0937 16.7095 58.7236 20.9302 56.9406 21.1181L56.3704 18.916Z" fill="url(#paint9_linear_266_3435)"/>
<path d="M44.5305 8.48438C50.0451 -8.12059 72.9266 2.34721 65.3818 16.815C57.4612 13.1725 48.2347 7.33571 44.5305 8.48438Z" fill="url(#paint10_linear_266_3435)"/>
<path d="M58.0124 12.903L43.6319 14.8221C43.2662 14.8706 42.9023 14.7217 42.6739 14.4274C41.0144 12.2885 38.8989 11.1017 36.4212 10.6672C36.1075 10.6127 36.0982 10.1573 36.4076 10.0846L45.0826 8.02621C45.0919 8.02361 45.1022 8.02275 45.1115 8.02188C49.5385 7.63928 53.8368 9.67 58.0908 12.5585C58.2323 12.6546 58.1811 12.8797 58.0115 12.903H58.0124Z" fill="url(#paint11_linear_266_3435)"/>
<path d="M61.1427 96.7402C64.4412 96.8042 67.1481 94.1061 67.1481 90.7562V64.1241C67.1481 60.6253 64.3789 57.7783 60.9338 57.7402C50.5943 57.6259 29.2691 57.6199 11.8203 59.1131C9.43888 59.3165 7.58763 61.2987 7.5007 63.7242L5.8702 89.4717C5.74917 92.877 8.3999 95.7222 11.7555 95.7871L61.1418 96.7402H61.1427Z" fill="url(#paint12_linear_266_3435)"/>
<path d="M61.1574 67.0063C61.2018 69.2725 61.1353 72.8683 61.0807 75.1907C61.0526 76.3991 60.0077 77.3201 58.8255 77.1798L50.3159 76.1671C49.1823 76.0321 48.3836 74.9708 48.5532 73.8247L49.5973 66.7484C49.7456 65.7434 50.5954 65.0007 51.5952 65.0007H59.1366C60.2352 65.0007 61.1353 65.8906 61.1566 67.0063H61.1574Z" fill="white"/>
<path opacity="0.37" d="M38.9231 80.419L31.8249 81.1963C30.8319 81.3053 29.9839 80.4735 30.0572 79.4616L31.6092 58.0179C34.5847 57.9218 37.5201 57.8526 40.3516 57.8032V78.8037C40.3516 79.6339 39.7353 80.3307 38.9231 80.4198V80.419Z" fill="white"/>
<path d="M36.0151 76.7001C35.9929 77.0862 35.6784 77.3831 35.3025 77.3831C35.2889 77.3831 35.2744 77.3831 35.2608 77.3814C34.867 77.358 34.5661 77.0152 34.5891 76.6153L35.6596 57.9C36.1395 57.8879 36.616 57.8775 37.0916 57.8662L36.0142 76.6993L36.0151 76.7001Z" fill="white"/>
<path d="M57.2235 73.7659C57.348 73.7659 57.4528 73.668 57.4613 73.5391L57.8295 67.6443C57.8381 67.511 57.7383 67.3967 57.6071 67.388C57.469 67.3768 57.3633 67.4807 57.3548 67.614L56.9866 73.5088C56.9781 73.6421 57.0778 73.7563 57.209 73.765C57.2142 73.765 57.2193 73.765 57.2235 73.765V73.7659Z" fill="url(#paint13_linear_266_3435)"/>
<path d="M56.4641 73.7628C56.592 73.7628 56.6977 73.6598 56.7019 73.5291L56.8945 67.5218C56.8988 67.3885 56.7957 67.276 56.6644 67.2716C56.5127 67.2638 56.4232 67.372 56.4181 67.5053L56.2255 73.5127C56.2212 73.646 56.3243 73.7585 56.4556 73.7628H56.4633H56.4641Z" fill="url(#paint14_linear_266_3435)"/>
<path d="M55.4382 73.7619C55.3069 73.7559 55.2055 73.6425 55.2114 73.5092C55.306 71.4906 55.4859 67.6412 55.4884 67.5105C55.4893 67.3781 55.5958 67.2708 55.7262 67.2708C55.8566 67.2708 55.964 67.379 55.964 67.5123C55.964 67.6118 55.7322 72.544 55.6862 73.5317C55.6802 73.6615 55.5754 73.7619 55.4484 73.7619C55.445 73.7619 55.4407 73.7619 55.4373 73.7619H55.4382Z" fill="url(#paint15_linear_266_3435)"/>
<path d="M53.8636 74.0049C54.1184 74.0049 54.3298 73.7998 54.3383 73.5384C54.5395 67.7172 54.5045 67.5865 54.4807 67.499C54.4116 67.2411 54.1474 67.0896 53.896 67.1597C53.6633 67.2246 53.5176 67.454 53.5491 67.6903C53.5644 68.04 53.4579 71.4272 53.3863 73.5037C53.3769 73.7704 53.5823 73.9946 53.8448 74.0041C53.8508 74.0041 53.8568 74.0041 53.8619 74.0041L53.8636 74.0049Z" fill="url(#paint16_linear_266_3435)"/>
<path d="M52.8323 73.765C52.9635 73.765 53.0701 73.6568 53.0701 73.5235V67.6287C53.0701 67.4954 52.9635 67.3872 52.8323 67.3872C52.701 67.3872 52.5945 67.4954 52.5945 67.6287V73.5235C52.5945 73.6568 52.701 73.765 52.8323 73.765Z" fill="url(#paint17_linear_266_3435)"/>
<path d="M51.9982 73.7612C52.1278 73.7612 52.2335 73.6565 52.236 73.5249C52.2812 71.4769 52.3877 68.1313 52.4832 67.7288C52.525 67.6526 52.525 67.5565 52.4747 67.4778C52.4022 67.3652 52.2556 67.3349 52.1448 67.4085C52.0153 67.4951 51.8917 67.5764 51.7596 73.5137C51.757 73.647 51.861 73.7578 51.9923 73.7612H51.9982Z" fill="url(#paint18_linear_266_3435)"/>
<path d="M58.5032 74.3005C58.7547 74.3005 58.9652 74.1006 58.978 73.8418L59.295 67.6518C59.3087 67.3852 59.1067 67.1584 58.8442 67.1437C58.5953 67.1255 58.3583 67.335 58.3438 67.6016L58.0268 73.7915C58.0131 74.0582 58.2151 74.2849 58.4777 74.2997C58.4862 74.2997 58.4947 74.2997 58.5024 74.2997L58.5032 74.3005Z" fill="url(#paint19_linear_266_3435)"/>
<path d="M43.5822 58.7294C46.0514 58.777 48.0783 56.7575 48.0783 54.2499V34.3132C48.0783 31.6938 46.0054 29.5627 43.4263 29.5341C35.6863 29.4484 19.7222 29.4441 6.66035 30.5625C4.87813 30.7148 3.4914 32.1985 3.42662 34.0145L2.20609 53.289C2.11575 55.8382 4.09996 57.9685 6.61176 58.017L43.5831 58.7302L43.5822 58.7294Z" fill="url(#paint20_linear_266_3435)"/>
<path d="M43.5983 36.4751C43.6315 38.1717 43.5812 40.8629 43.5412 42.6019C43.5199 43.5064 42.7383 44.1963 41.8527 44.0907L35.4824 43.3325C34.6335 43.2312 34.036 42.4374 34.163 41.5787L34.9446 36.2812C35.0554 35.529 35.6921 34.9724 36.4404 34.9724H42.0854C42.9079 34.9724 43.5812 35.6389 43.5974 36.4742L43.5983 36.4751Z" fill="white"/>
<path opacity="0.37" d="M26.9521 46.5135L21.6387 47.0961C20.8955 47.1775 20.2605 46.5551 20.3159 45.7977L21.4776 29.745C23.7047 29.6731 25.902 29.6212 28.0226 29.584V45.3052C28.0226 45.9267 27.5615 46.4478 26.9529 46.5153L26.9521 46.5135Z" fill="white"/>
<path d="M24.7707 43.732C24.7545 44.0211 24.5184 44.2435 24.2379 44.2435C24.2277 44.2435 24.2166 44.2435 24.2064 44.2427C23.9115 44.2254 23.6865 43.9691 23.7035 43.6696L24.5047 29.6589C24.8644 29.6502 25.2207 29.6416 25.577 29.6338L24.7707 43.7328V43.732Z" fill="white"/>
<path d="M40.6492 41.5296C40.7421 41.5296 40.8213 41.4561 40.8273 41.36L41.1026 36.9471C41.1086 36.8476 41.0344 36.7619 40.9356 36.7549C40.8324 36.7471 40.7532 36.8242 40.7463 36.9246L40.471 41.3375C40.4651 41.437 40.5392 41.5227 40.6381 41.5296C40.6415 41.5296 40.6458 41.5296 40.6492 41.5296Z" fill="url(#paint21_linear_266_3435)"/>
<path d="M40.0825 41.5312C40.178 41.5312 40.2573 41.4542 40.2607 41.3564L40.4047 36.8587C40.4081 36.7583 40.3306 36.6752 40.2326 36.6717C40.1192 36.6656 40.0519 36.747 40.0484 36.8466L39.9044 41.3443C39.901 41.4447 39.9786 41.5278 40.0766 41.5312H40.0825Z" fill="url(#paint22_linear_266_3435)"/>
<path d="M39.3115 41.5305C39.2126 41.5262 39.1367 41.4414 39.1418 41.3418C39.2126 39.8313 39.3473 36.9497 39.349 36.8511C39.349 36.7524 39.4291 36.6719 39.5271 36.6719C39.6251 36.6719 39.7052 36.7532 39.7052 36.8528C39.7052 36.9272 39.5322 40.619 39.4973 41.3583C39.493 41.4552 39.4137 41.5305 39.3191 41.5305C39.3166 41.5305 39.3132 41.5305 39.3106 41.5305H39.3115Z" fill="url(#paint23_linear_266_3435)"/>
<path d="M38.1352 41.7124C38.3261 41.7124 38.4846 41.5583 38.4906 41.3636C38.6415 37.0061 38.615 36.9083 38.5971 36.8425C38.546 36.6495 38.3483 36.5361 38.1599 36.588C37.9852 36.6365 37.8769 36.8079 37.8999 36.9853C37.911 37.2476 37.8317 39.7821 37.7781 41.3376C37.7712 41.5376 37.9246 41.7055 38.1215 41.7116C38.1258 41.7116 38.1301 41.7116 38.1343 41.7116L38.1352 41.7124Z" fill="url(#paint24_linear_266_3435)"/>
<path d="M37.3632 41.5291C37.4621 41.5291 37.5413 41.4486 37.5413 41.3482V36.9353C37.5413 36.8349 37.4621 36.7544 37.3632 36.7544C37.2643 36.7544 37.1851 36.8349 37.1851 36.9353V41.3482C37.1851 41.4486 37.2643 41.5291 37.3632 41.5291Z" fill="url(#paint25_linear_266_3435)"/>
<path d="M36.7416 41.5317C36.838 41.5317 36.9181 41.4529 36.9198 41.3551C36.9539 39.8221 37.034 37.317 37.1047 37.0158C37.1363 36.9587 37.1354 36.8868 37.0979 36.828C37.0442 36.744 36.9334 36.7215 36.8516 36.776C36.7544 36.8409 36.6624 36.9015 36.5635 41.3464C36.5618 41.4468 36.6394 41.5291 36.7374 41.5317H36.7416Z" fill="url(#paint26_linear_266_3435)"/>
<path d="M41.6102 41.9348C41.7985 41.9348 41.9554 41.785 41.9656 41.592L42.2034 36.9584C42.2136 36.7584 42.0628 36.5888 41.8659 36.5784C41.6792 36.5654 41.5019 36.7212 41.4917 36.9212L41.2539 41.5548C41.2437 41.7547 41.3945 41.9244 41.5914 41.9348C41.5974 41.9348 41.6042 41.9348 41.6102 41.9348Z" fill="url(#paint27_linear_266_3435)"/>
<path d="M0.464554 41.0639C1.55042 40.793 3.98977 37.4413 4.24973 38.6662C4.50884 39.891 3.77328 41.4439 3.88238 41.9642C3.99148 42.4852 4.81056 45.4015 4.15939 46.6254C3.68975 47.5084 2.76839 50.2861 2.29194 51.7646C2.13341 52.2554 2.00471 52.9028 1.49928 52.8457C0.993849 52.7877 0.60263 52.0978 0.555753 51.5837C0.537001 51.3776 -0.62216 41.3349 0.463702 41.0639H0.464554Z" fill="url(#paint28_linear_266_3435)"/>
<path d="M78.2828 45.2005C76.9455 42.0835 72.6822 38.2886 72.4589 38.2168C70.6068 45.1183 67.3466 50.8183 66.6477 57.7752C71.2187 66.3015 70.1704 76.3564 67.3159 81.2462C68.7197 83.3635 70.3613 86.2459 71.783 89.8322C89.3571 79.1488 82.4004 54.7993 78.2819 45.2014L78.2828 45.2005Z" fill="url(#paint29_linear_266_3435)"/>
<path d="M55.7079 97.5596L40.4922 97.2229C40.4922 97.2229 53.7604 93.4142 54.5837 94.4512C54.5837 94.4512 62.8078 88.9633 67.3141 81.2429C68.7178 83.3602 70.3594 86.2427 71.7811 89.8289C67.7411 92.2379 62.4345 96.4222 55.7071 97.5596H55.7079Z" fill="url(#paint30_linear_266_3435)"/>
<path d="M56.137 94.885C56.137 94.885 56.4507 101.042 48.4925 100.148C44.1678 99.6623 37.1855 95.5662 37.1855 95.5662C37.1855 95.5662 55.3853 95.5169 56.137 94.885Z" fill="url(#paint31_linear_266_3435)"/>
<defs>
<linearGradient id="paint0_linear_266_3435" x1="59.6592" y1="202.039" x2="36.498" y2="202.039" gradientUnits="userSpaceOnUse">
<stop stop-color="#CCE4C3"/>
<stop offset="1" stop-color="#AACB9E"/>
</linearGradient>
<linearGradient id="paint1_linear_266_3435" x1="59.6635" y1="197.43" x2="37.1544" y2="197.43" gradientUnits="userSpaceOnUse">
<stop stop-color="#4F6C44"/>
<stop offset="1" stop-color="#373737"/>
</linearGradient>
<linearGradient id="paint2_linear_266_3435" x1="57.5204" y1="190.996" x2="50.9967" y2="190.996" gradientUnits="userSpaceOnUse">
<stop stop-color="#FEBBBA"/>
<stop offset="1" stop-color="#FF928E"/>
</linearGradient>
<linearGradient id="paint3_linear_266_3435" x1="101" y1="207.874" x2="92.1245" y2="207.874" gradientUnits="userSpaceOnUse">
<stop stop-color="#CCE4C3"/>
<stop offset="1" stop-color="#AACB9E"/>
</linearGradient>
<linearGradient id="paint4_linear_266_3435" x1="100.935" y1="198.903" x2="87.9075" y2="198.903" gradientUnits="userSpaceOnUse">
<stop stop-color="#4F6C44"/>
<stop offset="1" stop-color="#373737"/>
</linearGradient>
<linearGradient id="paint5_linear_266_3435" x1="94.1657" y1="187.541" x2="86.3695" y2="187.541" gradientUnits="userSpaceOnUse">
<stop stop-color="#FEBBBA"/>
<stop offset="1" stop-color="#FF928E"/>
</linearGradient>
<linearGradient id="paint6_linear_266_3435" x1="1.00769" y1="67.1364" x2="72.4599" y2="67.1364" gradientUnits="userSpaceOnUse">
<stop stop-color="#4B5647"/>
<stop offset="1" stop-color="#3C5134"/>
</linearGradient>
<linearGradient id="paint7_linear_266_3435" x1="55.7544" y1="47.1189" x2="52.2735" y2="29.1263" gradientUnits="userSpaceOnUse">
<stop stop-color="#FEBBBA"/>
<stop offset="1" stop-color="#FF928E"/>
</linearGradient>
<linearGradient id="paint8_linear_266_3435" x1="46.6086" y1="14.0688" x2="66.1023" y2="28.7563" gradientUnits="userSpaceOnUse">
<stop stop-color="#FEBBBA"/>
<stop offset="1" stop-color="#FF928E"/>
</linearGradient>
<linearGradient id="paint9_linear_266_3435" x1="49.0012" y1="10.8944" x2="68.4957" y2="25.5819" gradientUnits="userSpaceOnUse">
<stop stop-color="#FEBBBA"/>
<stop offset="1" stop-color="#FF928E"/>
</linearGradient>
<linearGradient id="paint10_linear_266_3435" x1="88.9472" y1="-18.9554" x2="39.2927" y2="9.94853" gradientUnits="userSpaceOnUse">
<stop stop-color="#FFB159"/>
<stop offset="1" stop-color="#FE8C08"/>
</linearGradient>
<linearGradient id="paint11_linear_266_3435" x1="79.8623" y1="0.247369" x2="57.8607" y2="31.1404" gradientUnits="userSpaceOnUse">
<stop stop-color="#FFB159"/>
<stop offset="1" stop-color="#FE8C08"/>
</linearGradient>
<linearGradient id="paint12_linear_266_3435" x1="127.587" y1="13.679" x2="3.81539" y2="98.7058" gradientUnits="userSpaceOnUse">
<stop stop-color="#FFB159"/>
<stop offset="1" stop-color="#FE8C08"/>
</linearGradient>
<linearGradient id="paint13_linear_266_3435" x1="54.5302" y1="66.3303" x2="70.0836" y2="88.5846" gradientUnits="userSpaceOnUse">
<stop stop-color="#09005D"/>
<stop offset="1" stop-color="#1A0F91"/>
</linearGradient>
<linearGradient id="paint14_linear_266_3435" x1="53.9804" y1="66.7099" x2="69.5338" y2="88.9641" gradientUnits="userSpaceOnUse">
<stop stop-color="#09005D"/>
<stop offset="1" stop-color="#1A0F91"/>
</linearGradient>
<linearGradient id="paint15_linear_266_3435" x1="53.321" y1="67.1712" x2="68.8743" y2="89.4256" gradientUnits="userSpaceOnUse">
<stop stop-color="#09005D"/>
<stop offset="1" stop-color="#1A0F91"/>
</linearGradient>
<linearGradient id="paint16_linear_266_3435" x1="52.1786" y1="67.9708" x2="67.7319" y2="90.2251" gradientUnits="userSpaceOnUse">
<stop stop-color="#09005D"/>
<stop offset="1" stop-color="#1A0F91"/>
</linearGradient>
<linearGradient id="paint17_linear_266_3435" x1="51.426" y1="68.4995" x2="66.9794" y2="90.7537" gradientUnits="userSpaceOnUse">
<stop stop-color="#09005D"/>
<stop offset="1" stop-color="#1A0F91"/>
</linearGradient>
<linearGradient id="paint18_linear_266_3435" x1="50.9567" y1="68.8229" x2="66.51" y2="91.0764" gradientUnits="userSpaceOnUse">
<stop stop-color="#09005D"/>
<stop offset="1" stop-color="#1A0F91"/>
</linearGradient>
<linearGradient id="paint19_linear_266_3435" x1="55.3121" y1="65.7803" x2="70.8655" y2="88.0346" gradientUnits="userSpaceOnUse">
<stop stop-color="#3F5238"/>
<stop offset="1" stop-color="#7E9675"/>
</linearGradient>
<linearGradient id="paint20_linear_266_3435" x1="93.3219" y1="-3.45003" x2="0.667339" y2="60.2" gradientUnits="userSpaceOnUse">
<stop stop-color="#FFB159"/>
<stop offset="1" stop-color="#FE8C08"/>
</linearGradient>
<linearGradient id="paint21_linear_266_3435" x1="38.6326" y1="35.9638" x2="50.2764" y2="52.6231" gradientUnits="userSpaceOnUse">
<stop stop-color="#09005D"/>
<stop offset="1" stop-color="#1A0F91"/>
</linearGradient>
<linearGradient id="paint22_linear_266_3435" x1="38.2228" y1="36.2519" x2="49.8666" y2="52.9112" gradientUnits="userSpaceOnUse">
<stop stop-color="#09005D"/>
<stop offset="1" stop-color="#1A0F91"/>
</linearGradient>
<linearGradient id="paint23_linear_266_3435" x1="37.727" y1="36.5966" x2="49.37" y2="53.2568" gradientUnits="userSpaceOnUse">
<stop stop-color="#09005D"/>
<stop offset="1" stop-color="#1A0F91"/>
</linearGradient>
<linearGradient id="paint24_linear_266_3435" x1="36.8737" y1="37.1948" x2="48.5168" y2="53.8549" gradientUnits="userSpaceOnUse">
<stop stop-color="#09005D"/>
<stop offset="1" stop-color="#1A0F91"/>
</linearGradient>
<linearGradient id="paint25_linear_266_3435" x1="36.3097" y1="37.588" x2="47.9528" y2="54.2472" gradientUnits="userSpaceOnUse">
<stop stop-color="#3F5238"/>
<stop offset="1" stop-color="#405239"/>
</linearGradient>
<linearGradient id="paint26_linear_266_3435" x1="35.9618" y1="37.8355" x2="47.6048" y2="54.4948" gradientUnits="userSpaceOnUse">
<stop stop-color="#1B1092"/>
<stop offset="0.0001" stop-color="#405238"/>
</linearGradient>
<linearGradient id="paint27_linear_266_3435" x1="39.222" y1="35.5561" x2="50.865" y2="52.2153" gradientUnits="userSpaceOnUse">
<stop stop-color="#09005D"/>
<stop offset="1" stop-color="#1A0F91"/>
</linearGradient>
<linearGradient id="paint28_linear_266_3435" x1="8.15307" y1="25.8664" x2="-21.1652" y2="112.455" gradientUnits="userSpaceOnUse">
<stop stop-color="#FEBBBA"/>
<stop offset="1" stop-color="#FF928E"/>
</linearGradient>
<linearGradient id="paint29_linear_266_3435" x1="66.6477" y1="64.024" x2="83.1692" y2="64.024" gradientUnits="userSpaceOnUse">
<stop stop-color="#49663E"/>
<stop offset="1" stop-color="#596853"/>
</linearGradient>
<linearGradient id="paint30_linear_266_3435" x1="-451.726" y1="-1225.67" x2="-482.118" y2="-1302.21" gradientUnits="userSpaceOnUse">
<stop stop-color="#FEBBBA"/>
<stop offset="1" stop-color="#FF928E"/>
</linearGradient>
<linearGradient id="paint31_linear_266_3435" x1="52.622" y1="80.2796" x2="83.0142" y2="3.74099" gradientUnits="userSpaceOnUse">
<stop stop-color="#FEBBBA"/>
<stop offset="1" stop-color="#FF928E"/>
</linearGradient>
</defs>
</svg>
