<svg width="16" height="17" viewBox="0 0 16 17" fill="none" xmlns="http://www.w3.org/2000/svg">
<g clip-path="url(#clip0_9_8842)">
<path d="M13.3336 5.16683V13.8335C13.3336 14.1871 13.1931 14.5263 12.9431 14.7763C12.693 15.0264 12.3539 15.1668 12.0003 15.1668H4.00028C3.64666 15.1668 3.30752 15.0264 3.05748 14.7763C2.80743 14.5263 2.66695 14.1871 2.66695 13.8335V5.16683H1.33362V3.8335H14.667V5.16683H13.3336ZM4.00028 5.16683V13.8335H12.0003V5.16683H4.00028ZM7.33362 6.50016H8.66695V7.8335H7.33362V6.50016ZM7.33362 8.50016H8.66695V9.8335H7.33362V8.50016ZM7.33362 10.5002H8.66695V11.8335H7.33362V10.5002ZM4.66695 1.8335H11.3336V3.16683H4.66695V1.8335Z" fill="#242424"/>
</g>
<defs>
<clipPath id="clip0_9_8842">
<rect width="16" height="16" fill="white" transform="translate(0 0.5)"/>
</clipPath>
</defs>
</svg>
