<svg width="23" height="23" viewBox="0 0 23 23" fill="none" xmlns="http://www.w3.org/2000/svg">
<path d="M14.9308 11.4999C14.9308 13.3974 13.3974 14.9308 11.4999 14.9308C9.60243 14.9308 8.06909 13.3974 8.06909 11.4999C8.06909 9.60243 9.60243 8.06909 11.4999 8.06909C13.3974 8.06909 14.9308 9.60243 14.9308 11.4999Z" stroke="#AEAEAE" stroke-width="1.5" stroke-linecap="round" stroke-linejoin="round"/>
<path d="M11.5001 19.4254C14.883 19.4254 18.0359 17.432 20.2305 13.982C21.093 12.6308 21.093 10.3595 20.2305 9.00827C18.0359 5.55827 14.883 3.56494 11.5001 3.56494C8.11718 3.56494 4.96426 5.55827 2.76968 9.00827C1.90718 10.3595 1.90718 12.6308 2.76968 13.982C4.96426 17.432 8.11718 19.4254 11.5001 19.4254Z" stroke="#AEAEAE" stroke-width="1.5" stroke-linecap="round" stroke-linejoin="round"/>
</svg>
