<svg width="20" height="20" viewBox="0 0 20 20" fill="none" xmlns="http://www.w3.org/2000/svg">
<g clip-path="url(#clip0_653_21430)">
<path d="M6.96721 0.658267C4.9689 1.3515 3.24556 2.66728 2.05032 4.41233C0.855082 6.15739 0.250946 8.23974 0.326651 10.3535C0.402355 12.4673 1.15391 14.5011 2.47092 16.1562C3.78794 17.8113 5.60099 19.0004 7.64377 19.5489C9.2999 19.9762 11.035 19.995 12.7 19.6036C14.2083 19.2648 15.6028 18.5401 16.7469 17.5005C17.9376 16.3854 18.802 14.9668 19.2469 13.3973C19.7304 11.6905 19.8164 9.89567 19.4985 8.15045H10.1985V12.0083H15.5844C15.4768 12.6236 15.2461 13.2108 14.9062 13.7349C14.5663 14.2589 14.1242 14.7091 13.6063 15.0583C12.9487 15.4935 12.2073 15.7862 11.4297 15.9176C10.6499 16.0627 9.85011 16.0627 9.07033 15.9176C8.27995 15.7544 7.53227 15.4282 6.87502 14.9598C5.819 14.2123 5.02608 13.1503 4.6094 11.9255C4.18579 10.6776 4.18579 9.32486 4.6094 8.07702C4.906 7.20235 5.39632 6.40598 6.04377 5.74733C6.7847 4.97975 7.72273 4.43108 8.75495 4.16151C9.78718 3.89195 10.8737 3.91191 11.8953 4.2192C12.6935 4.46409 13.4233 4.89214 14.0266 5.4692C14.6339 4.86504 15.2401 4.25931 15.8453 3.65202C16.1578 3.32545 16.4985 3.01452 16.8063 2.68014C15.8852 1.82314 14.8042 1.15624 13.625 0.717642C11.4777 -0.0620611 9.12811 -0.0830148 6.96721 0.658267Z" fill="white"/>
<path d="M6.96758 0.65805C9.1283 -0.0837359 11.4779 -0.0633337 13.6254 0.715863C14.8048 1.15744 15.8853 1.82755 16.8051 2.68774C16.4926 3.02211 16.1629 3.33461 15.8441 3.65961C15.2379 4.26482 14.6322 4.86795 14.027 5.46899C13.4237 4.89192 12.6938 4.46387 11.8957 4.21899C10.8744 3.91061 9.78792 3.8895 8.75542 4.15796C7.72292 4.42642 6.78432 4.97408 6.04258 5.74086C5.39513 6.39951 4.90481 7.19589 4.6082 8.07055L1.36914 5.56274C2.52853 3.26361 4.53594 1.50496 6.96758 0.65805Z" fill="#E33629"/>
<path d="M0.509175 8.04688C0.683143 7.18402 0.972184 6.34843 1.36855 5.5625L4.60761 8.07656C4.184 9.3244 4.184 10.6772 4.60761 11.925C3.52845 12.7583 2.44876 13.5958 1.36855 14.4375C0.376598 12.463 0.07407 10.2133 0.509175 8.04688Z" fill="#F8BD00"/>
<path d="M10.198 8.14844H19.498C19.8159 9.89366 19.7299 11.6885 19.2464 13.3953C18.8015 14.9648 17.9371 16.3834 16.7464 17.4984C15.7011 16.6828 14.6511 15.8734 13.6058 15.0578C14.124 14.7082 14.5663 14.2576 14.9063 13.733C15.2462 13.2084 15.4766 12.6205 15.5839 12.0047H10.198C10.1964 10.7203 10.198 9.43437 10.198 8.14844Z" fill="#587DBD"/>
<path d="M1.36719 14.4373C2.4474 13.604 3.52708 12.7665 4.60625 11.9248C5.02376 13.1501 5.81782 14.2121 6.875 14.9592C7.5343 15.4254 8.28359 15.7489 9.075 15.9092C9.85477 16.0542 10.6546 16.0542 11.4344 15.9092C12.2119 15.7778 12.9533 15.485 13.6109 15.0498C14.6562 15.8654 15.7063 16.6748 16.7516 17.4904C15.6076 18.5306 14.2132 19.2559 12.7047 19.5951C11.0397 19.9865 9.30457 19.9678 7.64844 19.5404C6.3386 19.1907 5.11512 18.5742 4.05469 17.7295C2.93239 16.8383 2.01568 15.7153 1.36719 14.4373Z" fill="#319F43"/>
</g>
<defs>
<clipPath id="clip0_653_21430">
<rect width="20" height="20" fill="white"/>
</clipPath>
</defs>
</svg>
