<svg width="23" height="23" viewBox="0 0 23 23" fill="none" xmlns="http://www.w3.org/2000/svg">
<path d="M18.9655 14.3079C16.9914 16.2725 14.1643 16.8762 11.6822 16.1L7.16845 20.6041C6.84262 20.9396 6.20054 21.1408 5.74054 21.0737L3.65137 20.7862C2.96137 20.6904 2.31929 20.0387 2.21387 19.3487L1.92637 17.2596C1.85929 16.7996 2.0797 16.1575 2.39595 15.8316L6.90012 11.3275C6.13345 8.83581 6.72762 6.00872 8.70179 4.04414C11.5289 1.21706 16.1193 1.21706 18.956 4.04414C21.7926 6.87122 21.7926 11.4808 18.9655 14.3079Z" stroke="#AEAEAE" stroke-width="1.5" stroke-miterlimit="10" stroke-linecap="round" stroke-linejoin="round"/>
<path d="M6.60303 16.7612L8.80719 18.9654" stroke="#AEAEAE" stroke-width="1.5" stroke-miterlimit="10" stroke-linecap="round" stroke-linejoin="round"/>
<path d="M13.8958 10.5417C14.6897 10.5417 15.3333 9.89816 15.3333 9.10425C15.3333 8.31034 14.6897 7.66675 13.8958 7.66675C13.1018 7.66675 12.4583 8.31034 12.4583 9.10425C12.4583 9.89816 13.1018 10.5417 13.8958 10.5417Z" stroke="#AEAEAE" stroke-width="1.5" stroke-linecap="round" stroke-linejoin="round"/>
</svg>
