<svg width="250" height="250" viewBox="0 0 250 250" fill="none" xmlns="http://www.w3.org/2000/svg">
<path d="M236.769 168.895C212.792 225.473 148.924 257.169 93.5376 248.619C84.5249 247.228 59.8168 243.083 37.9412 223.533C-4.171 185.896 -13.1765 111.37 20.7942 58.8496C45.5186 20.6244 89.8402 -1.04463 131.954 0.0387756C141.025 0.271845 175.791 1.71122 206.343 26.9592C210.831 30.6673 220.728 39.4793 229.648 53.4598C250.595 86.2871 252.394 132.023 236.769 168.895Z" fill="url(#paint0_linear_194_5017)"/>
<path d="M63.3721 83.8453C63.5229 84.3734 63.2531 84.9415 62.7334 85.1509C61.596 85.6088 60.4223 86.024 59.245 86.3854C58.6717 86.5611 58.0649 86.2379 57.8896 85.6635C57.8877 85.6562 57.8859 85.6498 57.8841 85.6434C57.7224 85.0753 58.044 84.4799 58.61 84.306C59.7292 83.9628 60.8438 83.5686 61.924 83.1334C62.48 82.9094 63.1122 83.1798 63.3357 83.737C63.3503 83.7725 63.3621 83.8089 63.373 83.8453H63.3721ZM54.2639 86.3754C54.2757 86.4164 54.2848 86.4583 54.2921 86.5011C54.3875 87.0937 53.985 87.6518 53.3936 87.7474C52.179 87.9441 50.9435 88.0897 49.7217 88.1817C49.1239 88.2272 48.6052 87.7802 48.5579 87.1793C48.5134 86.5803 48.9613 86.0586 49.5581 86.014C50.7191 85.9266 51.8929 85.7873 53.0475 85.6006C53.5962 85.5123 54.1149 85.8519 54.263 86.3745L54.2639 86.3754ZM44.8269 86.8325C44.8596 86.949 44.8741 87.0728 44.866 87.2003C44.8269 87.7993 44.3109 88.2536 43.7131 88.2154C42.4876 88.1362 41.2503 88.0023 40.0348 87.8184C39.4425 87.7283 39.0355 87.1739 39.1246 86.5803C39.2145 85.9867 39.7677 85.5779 40.3601 85.668C41.5138 85.8437 42.6884 85.9703 43.8531 86.0458C44.3236 86.0759 44.7043 86.4027 44.8269 86.8325ZM35.5225 85.1627C35.577 85.3548 35.5798 85.5651 35.518 85.7709C35.3472 86.3463 34.7422 86.6731 34.168 86.502C32.9907 86.1496 31.8133 85.7418 30.6705 85.2911C30.1136 85.0708 29.8402 84.4398 30.0591 83.8808C30.2789 83.3228 30.9085 83.0478 31.4663 83.2681C32.5519 83.6969 33.6693 84.0839 34.7885 84.4189C35.1573 84.5291 35.4235 84.8186 35.5216 85.1636L35.5225 85.1627ZM26.8232 81.4555C26.8995 81.725 26.8732 82.0245 26.7251 82.2876C26.4307 82.8111 25.7685 82.995 25.247 82.7C24.1796 82.0964 23.1222 81.4382 22.1056 80.7435C21.6105 80.4058 21.4824 79.7293 21.8203 79.2331C22.1574 78.7369 22.8324 78.6086 23.3284 78.9473C24.2941 79.6073 25.2988 80.2328 26.3136 80.8072C26.5725 80.9538 26.7487 81.1905 26.8241 81.4564L26.8232 81.4555ZM19.1595 75.9128C19.2585 76.2624 19.1813 76.6539 18.9197 76.9425C18.5172 77.3877 17.8313 77.4205 17.3871 77.0171C16.4777 76.1905 15.592 75.3137 14.7553 74.4124C14.3474 73.9727 14.3719 73.2844 14.8116 72.8756C15.2504 72.4668 15.9372 72.4914 16.3451 72.9312C17.14 73.7879 17.9812 74.62 18.8452 75.4057C19.0005 75.5468 19.1059 75.7234 19.1595 75.9119V75.9128ZM5.77525 38.3086C5.81613 38.4533 5.82794 38.609 5.80432 38.7674C5.63172 39.9228 5.50635 41.1009 5.43367 42.2698C5.39643 42.8689 4.88134 43.3241 4.28358 43.2868C3.68581 43.2495 3.23068 42.7332 3.26884 42.1342C3.34605 40.9033 3.47687 39.6624 3.65856 38.446C3.74759 37.8525 4.29993 37.4428 4.89224 37.532C5.32648 37.5975 5.66261 37.9125 5.77525 38.3095V38.3086ZM12.9166 68.8106C13.0401 69.2439 12.8839 69.7274 12.4942 69.9996C12.0027 70.3437 11.3268 70.2236 10.9834 69.731C10.2803 68.7223 9.61165 67.6707 8.99754 66.6046C8.70047 66.0838 8.8749 65.4192 9.39453 65.1188C9.91326 64.8184 10.5773 64.9968 10.8771 65.5166C11.4604 66.529 12.0945 67.5278 12.7631 68.4855C12.8339 68.5875 12.8857 68.6968 12.9175 68.8097L12.9166 68.8106ZM5.43731 47.7743C5.4573 47.8435 5.47002 47.9154 5.47637 47.9891C5.56631 49.1545 5.70712 50.3317 5.89608 51.487C5.99238 52.0797 5.59175 52.6387 5.00035 52.7352C4.40894 52.8317 3.84843 52.4311 3.75486 51.8375C3.55681 50.6212 3.40783 49.383 3.31335 48.1566C3.26702 47.5576 3.71398 47.035 4.31174 46.9886C4.83501 46.9476 5.30014 47.2863 5.43822 47.7734L5.43731 47.7743ZM8.4134 60.4884C8.5633 61.0164 8.2953 61.5836 7.77658 61.793C7.2206 62.0179 6.58923 61.7493 6.36393 61.1921C5.90426 60.0523 5.48728 58.8769 5.12571 57.6988C5.12299 57.6915 5.12117 57.6843 5.11935 57.677C4.95765 57.1098 5.27833 56.5144 5.84339 56.3405C6.41662 56.1638 7.02347 56.4852 7.19971 57.0597C7.5431 58.1786 7.93919 59.2948 8.37615 60.3773C8.39069 60.4137 8.40341 60.451 8.4134 60.4875V60.4884Z" fill="#B3D7A5"/>
<path d="M7.58175 30.8914C7.63989 31.0972 7.63898 31.323 7.56449 31.5406C7.3828 32.0713 7.21019 32.614 7.04939 33.1547C6.87861 33.7301 6.27449 34.0579 5.70034 33.8867C5.1262 33.7156 4.79825 33.1101 4.96995 32.5347C5.13892 31.9657 5.32061 31.3949 5.51138 30.8368C5.70579 30.2687 6.32263 29.9655 6.8886 30.1604C7.23835 30.2805 7.48727 30.5609 7.58084 30.8923L7.58175 30.8914Z" fill="#B3D7A5"/>
<path d="M29.6671 6.21427C29.8107 6.71864 29.5717 7.26763 29.0821 7.49615C28.5752 7.73286 28.0646 7.98504 27.565 8.2436C27.0326 8.51946 26.3785 8.31098 26.1023 7.77838C25.8253 7.24305 26.0351 6.58845 26.5666 6.3126C27.0926 6.03947 27.6304 5.77453 28.1636 5.52507C28.7069 5.27107 29.3519 5.50687 29.6053 6.05039C29.6299 6.10411 29.6499 6.15873 29.6662 6.21336L29.6671 6.21427Z" fill="#B3D7A5"/>
<path d="M88.1865 32.9217C88.3237 33.4024 88.4527 33.8877 88.5744 34.3775C88.7188 34.9602 88.3654 35.5501 87.784 35.6958C87.2026 35.8406 86.6112 35.4837 86.4686 34.9037C86.1879 33.7748 85.8627 32.6595 85.4956 31.577C85.304 31.0071 85.6074 30.3907 86.1742 30.1986C86.742 30.0056 87.358 30.3106 87.5506 30.8796C87.7768 31.5497 87.9912 32.2371 88.1865 32.9236V32.9217ZM89.5755 40.0294C89.5919 40.0877 89.6037 40.1487 89.6109 40.2115C89.7417 41.4178 89.8235 42.6423 89.8535 43.8523C89.868 44.4523 89.3947 44.9512 88.796 44.9658C88.1974 44.9803 87.6977 44.5051 87.685 43.9051C87.6568 42.7562 87.5796 41.5926 87.4552 40.4464C87.3907 39.8492 87.8204 39.3129 88.4163 39.2483C88.9496 39.19 89.4347 39.5296 89.5773 40.0294H89.5755ZM85.3476 25.6001C85.4875 26.0926 85.2631 26.6316 84.7898 26.8692C84.2538 27.1378 83.6024 26.9202 83.3335 26.3831C82.8211 25.3561 82.257 24.3364 81.6574 23.3532C81.3458 22.8406 81.5066 22.1714 82.0172 21.8582C82.5286 21.5451 83.1963 21.7071 83.5089 22.2188C84.1402 23.2539 84.7334 24.3273 85.274 25.4098C85.3049 25.4717 85.3294 25.5354 85.3476 25.5992V25.6001ZM89.5582 49.3531C89.5964 49.486 89.6082 49.628 89.5928 49.7737C89.4565 50.9782 89.2666 52.1909 89.0295 53.379C88.9123 53.9681 88.3409 54.3495 87.7531 54.2312C87.1654 54.1137 86.7847 53.5411 86.9019 52.952C87.1272 51.824 87.3071 50.6723 87.4361 49.5288C87.5033 48.9325 88.0411 48.5037 88.6362 48.571C89.0858 48.622 89.441 48.9425 89.5573 49.3531H89.5582ZM80.2947 17.7823C80.4101 18.1865 80.2838 18.639 79.9386 18.9221C79.4753 19.3027 78.7913 19.2335 78.4115 18.7692C77.6866 17.8806 76.9126 17.0102 76.1122 16.1826C75.6952 15.7511 75.7052 15.0628 76.1358 14.6449C76.5665 14.227 77.2523 14.238 77.6693 14.6686C78.5124 15.5399 79.3263 16.4558 80.0903 17.3917C80.1866 17.51 80.2548 17.643 80.2938 17.7813L80.2947 17.7823ZM73.6512 11.2645C73.743 11.5877 73.6848 11.9492 73.4623 12.2341C73.0925 12.7066 72.4103 12.7895 71.9388 12.4189C71.034 11.7088 70.0892 11.0287 69.1308 10.3969C68.6293 10.0682 68.4903 9.3936 68.8201 8.89104C69.1489 8.3894 69.8221 8.2501 70.3227 8.57967C71.3319 9.24428 72.3258 9.95988 73.2779 10.7082C73.465 10.8548 73.5913 11.0515 73.6521 11.2654L73.6512 11.2645ZM65.7486 6.35277C65.8186 6.59859 65.8031 6.86989 65.6841 7.11844C65.4261 7.66014 64.7784 7.88957 64.2378 7.63101C63.1995 7.13483 62.1302 6.67597 61.0574 6.26992C60.4968 6.05779 60.2143 5.43051 60.4269 4.86787C60.6395 4.30613 61.2654 4.02299 61.8259 4.23603C62.9542 4.66393 64.0807 5.14646 65.1735 5.66813C65.4661 5.80834 65.6668 6.06235 65.7495 6.35186L65.7486 6.35277ZM56.9657 3.28555C57.0138 3.4558 57.022 3.64061 56.9793 3.82543C56.8458 4.41083 56.2643 4.77682 55.6802 4.64299C54.5592 4.38625 53.4154 4.17412 52.2799 4.01389C51.6867 3.93013 51.2733 3.37932 51.3569 2.78572C51.4405 2.19121 51.9892 1.77697 52.5833 1.86073C53.7797 2.03007 54.9843 2.25312 56.1644 2.52352C56.5641 2.61547 56.8612 2.91773 56.9666 3.28646L56.9657 3.28555ZM47.7213 2.2249C47.7485 2.32049 47.7631 2.42155 47.7621 2.52625C47.7603 3.12622 47.2734 3.61239 46.6747 3.61057C45.5283 3.60784 44.3663 3.65336 43.2208 3.74804C42.6239 3.79721 42.0998 3.35019 42.0507 2.75295C42.0016 2.1548 42.4459 1.62948 43.0436 1.58032C44.2492 1.48108 45.4728 1.43283 46.6793 1.43647C47.1744 1.43738 47.5914 1.7706 47.7204 2.2249H47.7213ZM38.4768 3.22546C38.4832 3.24731 38.4887 3.26916 38.4932 3.29101C38.6222 3.87733 38.2525 4.45726 37.6674 4.58655C36.8416 4.76863 36.0113 4.97894 35.2001 5.2111C34.9066 5.29486 34.6141 5.38226 34.3234 5.47239C33.7511 5.64992 33.1433 5.32763 32.9671 4.75406C32.7772 4.17685 33.1106 3.57142 33.6829 3.3948C33.9891 3.30011 34.2962 3.20907 34.605 3.11985C35.459 2.87586 36.332 2.65462 37.2014 2.46343C37.7646 2.3387 38.3215 2.67738 38.4778 3.22637L38.4768 3.22546Z" fill="#B3D7A5"/>
<path d="M87.4837 58.4676C87.5427 58.6751 87.5409 58.9027 87.4646 59.1222C87.272 59.6784 87.063 60.2402 86.845 60.7937C86.6252 61.3527 85.9947 61.6258 85.4378 61.4055C84.8809 61.1843 84.6066 60.5543 84.8273 59.9953C85.0345 59.4699 85.2325 58.9355 85.416 58.4075C85.6122 57.8403 86.2309 57.5408 86.7969 57.7383C87.1439 57.8594 87.3901 58.1389 87.4837 58.4676Z" fill="#B3D7A5"/>
<path d="M74.9807 60.5138C75.1042 60.3363 75.1015 60.0986 74.9743 59.9238L71.3378 54.9265C72.4025 52.2426 73.0484 49.3693 73.2065 46.4013L78.5927 43.3905C78.7816 43.2849 78.8825 43.0709 78.8452 42.857L77.5434 35.5536C77.5053 35.3405 77.3363 35.1748 77.1228 35.1411L71.0298 34.1852C69.8561 31.4557 68.2572 28.9839 66.3304 26.8353L68.0156 20.8857C68.0746 20.6772 67.9956 20.4541 67.8175 20.3303L61.7445 16.0886C61.5674 15.9648 61.3303 15.9676 61.1558 16.095L56.1693 19.7394C53.4912 18.6724 50.6242 18.0251 47.6626 17.8667L44.6574 12.4688C44.5521 12.2794 44.3386 12.1784 44.1251 12.2157L36.8375 13.5203C36.6249 13.5586 36.4596 13.7279 36.426 13.9419L35.4721 20.0481C32.7485 21.2244 30.2821 22.8267 28.1391 24.7568L22.2023 23.068C21.9943 23.0088 21.7717 23.0889 21.6482 23.2664L17.4157 29.3526C17.2921 29.5302 17.2949 29.7678 17.422 29.9426L21.0586 34.9399C19.993 37.6239 19.348 40.4972 19.1899 43.4651L13.8037 46.4768C13.6147 46.5824 13.5139 46.7964 13.5511 47.0103L14.8529 54.3138C14.8911 54.5268 15.0601 54.6925 15.2735 54.7262L21.3665 55.6822C22.5403 58.4116 24.1391 60.8834 26.0651 63.032L24.3799 68.9817C24.3208 69.1902 24.3999 69.4132 24.5779 69.537L30.6509 73.7787C30.8281 73.9025 31.0652 73.8998 31.2396 73.7723L36.2261 70.1279C38.9042 71.1949 41.7713 71.8422 44.7328 72.0006L47.7371 77.3986C47.8425 77.5879 48.056 77.689 48.2695 77.6507L55.5561 76.3461C55.7687 76.3079 55.9341 76.1385 55.9677 75.9246L56.9216 69.8183C59.6451 68.6421 62.1115 67.0397 64.2546 65.1096L70.1913 66.7985C70.3994 66.8576 70.6219 66.7784 70.7455 66.6L74.978 60.5138H74.9807Z" fill="#B3D7A5"/>
<g style="mix-blend-mode:soft-light">
<path d="M53.3561 42.8941C54.3508 46.3901 52.6629 50.1912 49.2608 51.7307C45.5207 53.4223 41.1056 51.7498 39.4168 48.0025C38.5983 46.1871 38.5356 44.1605 39.2378 42.2978C39.9401 40.4341 41.3245 38.9565 43.1369 38.1371C46.877 36.4456 51.2921 38.118 52.9809 41.8653C53.1326 42.2031 53.258 42.5472 53.357 42.8932L53.3561 42.8941ZM40.7077 46.4903C40.7849 46.7607 40.8812 47.0256 40.9984 47.2869C42.2929 50.1602 45.6787 51.4421 48.5458 50.1456C51.4129 48.8483 52.6938 45.456 51.3984 42.5818C50.1038 39.7085 46.718 38.4266 43.8509 39.7231C42.4619 40.3513 41.3999 41.4848 40.8612 42.9132C40.4233 44.074 40.3734 45.3186 40.7077 46.4903Z" fill="#F0F0F0"/>
</g>
<g style="mix-blend-mode:soft-light">
<path d="M63.6489 39.7941C63.8196 40.394 63.9614 41.0068 64.0722 41.6295C64.1076 41.8252 64.1394 42.0219 64.1676 42.2194C64.3093 43.1918 64.3729 44.1732 64.3584 45.1501C64.3584 45.1638 64.3584 45.1765 64.3584 45.1902C64.3584 45.2275 64.3565 45.2657 64.3556 45.3031C64.3538 45.3768 64.352 45.4505 64.3493 45.5234C64.3429 45.7164 64.2112 45.8757 64.035 45.9267C63.9923 45.9385 63.9468 45.9449 63.8996 45.9431C63.6598 45.9349 63.4735 45.7328 63.4817 45.4933C63.5253 44.2579 63.4363 43.0097 63.2173 41.7833C62.1317 35.6908 57.9974 30.8974 52.6711 28.6996C49.7086 27.476 46.3774 27.0563 42.9961 27.6617C42.4029 27.7673 41.8197 27.903 41.2482 28.0669C37.4028 29.1658 34.0796 31.5374 31.7622 34.8696C29.1004 38.697 28.0857 43.3347 28.9042 47.9269C30.5957 57.4117 39.6666 63.7428 49.1254 62.0485C49.7087 61.9438 50.2846 61.8109 50.8506 61.6488C53.3034 60.9478 55.5763 59.716 57.5004 58.0354C57.5504 57.9917 57.6067 57.9616 57.6667 57.9452C57.823 57.9006 57.9992 57.9461 58.1127 58.0772C58.2699 58.2593 58.2517 58.5334 58.071 58.6909C56.0506 60.4562 53.6641 61.749 51.0895 62.4855C50.4954 62.6558 49.8913 62.796 49.279 62.9052C39.3468 64.6833 29.8235 58.0299 28.0502 48.0798C27.1908 43.2582 28.2565 38.3902 31.0499 34.3725C33.4819 30.8737 36.9712 28.3846 41.0084 27.2302C41.608 27.059 42.2203 26.917 42.8426 26.805C47.6537 25.9438 52.5112 27.0117 56.5211 29.8112C60.0123 32.2494 62.4979 35.7472 63.6489 39.7941Z" fill="#F0F0F0"/>
</g>
<path d="M20.5297 143.918C20.2554 144.103 19.882 144.093 19.6158 143.87C19.1171 143.454 18.6247 143.018 18.1523 142.572C17.8452 142.282 17.8298 141.798 18.1187 141.489C18.4067 141.18 18.8909 141.166 19.1988 141.456C19.6494 141.88 20.1191 142.296 20.5942 142.693C20.9185 142.963 20.9621 143.446 20.6923 143.771C20.6442 143.828 20.5897 143.877 20.5306 143.917L20.5297 143.918Z" fill="#B3D7A5"/>
<path d="M16.3781 139.75C16.0565 139.966 15.6177 139.907 15.3651 139.602C14.652 138.741 13.9752 137.833 13.3538 136.905C13.223 136.709 13.094 136.511 12.9659 136.312C12.7388 135.955 12.8696 135.483 13.1967 135.254C13.5519 135.026 14.0243 135.13 14.2523 135.485C14.374 135.677 14.4976 135.865 14.6229 136.052C15.2161 136.937 15.8611 137.803 16.5416 138.625C16.8114 138.951 16.766 139.433 16.4417 139.703C16.4208 139.72 16.3999 139.736 16.379 139.75H16.3781ZM12.1002 133.056C12.0702 133.076 12.0384 133.095 12.0048 133.111C11.6241 133.294 11.1681 133.134 10.9846 132.752C10.3977 131.53 9.88262 130.26 9.45202 128.979C9.31666 128.578 9.53468 128.144 9.93168 128.009C10.3323 127.874 10.7647 128.089 10.8992 128.49C11.3098 129.712 11.8022 130.923 12.3618 132.089C12.528 132.436 12.4099 132.848 12.0992 133.056H12.1002ZM9.5692 125.523C9.48835 125.576 9.3966 125.616 9.29576 125.637C8.88241 125.722 8.47906 125.453 8.39549 125.039C8.12658 123.712 7.93763 122.352 7.83497 121C7.80227 120.578 8.11659 120.211 8.53902 120.179C8.95964 120.147 9.32665 120.462 9.35844 120.884C9.45656 122.174 9.63643 123.469 9.89352 124.735C9.95711 125.048 9.81903 125.356 9.57011 125.523L9.5692 125.523ZM8.96418 117.595C8.83245 117.684 8.67347 117.732 8.50359 117.724C8.08207 117.704 7.75594 117.345 7.77683 116.923C7.84133 115.567 7.98941 114.204 8.21925 112.87C8.29101 112.453 8.6871 112.175 9.10226 112.247C9.51833 112.319 9.79723 112.714 9.72546 113.132C9.50652 114.403 9.3648 115.703 9.30394 116.996C9.29213 117.248 9.1604 117.465 8.96599 117.595H8.96418ZM10.3096 109.761C10.1261 109.884 9.8908 109.928 9.66278 109.859C9.25943 109.737 9.0305 109.31 9.15223 108.905C9.54377 107.607 10.018 106.322 10.5631 105.083C10.7329 104.696 11.1844 104.521 11.5705 104.692C11.9566 104.863 12.132 105.315 11.9612 105.702C11.4415 106.883 10.9882 108.109 10.6157 109.347C10.5621 109.524 10.4513 109.667 10.3096 109.761ZM13.511 102.492C13.273 102.652 12.955 102.671 12.6934 102.513C12.3318 102.297 12.2137 101.827 12.4299 101.464C13.124 100.3 13.8962 99.1694 14.7274 98.1033C14.989 97.77 15.4678 97.7109 15.8003 97.9712C16.1328 98.2307 16.1918 98.7123 15.932 99.0455C15.1398 100.062 14.4031 101.14 13.7417 102.249C13.6818 102.349 13.6027 102.431 13.5119 102.492H13.511ZM18.3866 96.2305C18.0896 96.4308 17.6826 96.398 17.421 96.1349C17.123 95.8354 17.1239 95.351 17.4228 95.0515C18.3767 94.0974 19.4032 93.1915 20.4743 92.3575C20.8122 92.1035 21.2882 92.1591 21.5462 92.4932C21.8052 92.8273 21.7452 93.308 21.4118 93.5675C20.3898 94.3623 19.4114 95.2263 18.5011 96.1358C18.4657 96.1713 18.4266 96.2032 18.3866 96.2296V96.2305ZM28.1825 89.5289C28.1462 89.5534 28.1062 89.5753 28.0644 89.5935C27.0451 90.0432 26.0331 90.5576 25.0547 91.1212C24.9057 91.2059 24.7613 91.2905 24.6177 91.377C24.2553 91.5937 23.7865 91.4763 23.5703 91.113C23.3532 90.7497 23.4667 90.2681 23.8337 90.0624C23.9873 89.9713 24.1408 89.8803 24.297 89.792C25.319 89.2029 26.3801 88.6649 27.4494 88.1924C27.8355 88.0221 28.2861 88.1969 28.4559 88.5838C28.6076 88.9289 28.485 89.3249 28.1834 89.528L28.1825 89.5289Z" fill="#B3D7A5"/>
<path d="M59.4886 145.667C59.1425 145.9 58.6719 145.811 58.4348 145.465C58.1949 145.118 58.2822 144.641 58.6301 144.401C59.6757 143.678 60.6859 142.885 61.6334 142.045C61.9496 141.769 62.432 141.794 62.7118 142.111C62.9916 142.427 62.9616 142.911 62.6464 143.191C61.6525 144.073 60.5933 144.904 59.4977 145.662C59.4949 145.664 59.4922 145.666 59.4886 145.668V145.667ZM56.1437 147.692C56.1209 147.708 56.0973 147.722 56.0728 147.735C54.8954 148.355 53.669 148.91 52.4263 149.384C52.032 149.534 51.5905 149.336 51.4406 148.941C51.2898 148.545 51.4906 148.103 51.8821 147.953C53.0676 147.5 54.2377 146.971 55.3615 146.38C55.7349 146.183 56.1963 146.327 56.3926 146.701C56.5761 147.051 56.4625 147.478 56.1428 147.692H56.1437ZM65.3263 140.482C65.0447 140.671 64.6613 140.655 64.3951 140.42C64.079 140.14 64.049 139.657 64.3279 139.34C65.1682 138.384 65.9577 137.371 66.6744 136.324C66.9152 135.976 67.3885 135.887 67.7364 136.126C68.0844 136.365 68.1725 136.842 67.9336 137.191C67.1823 138.287 66.3547 139.35 65.4735 140.352C65.4289 140.403 65.379 140.445 65.3263 140.482ZM48.8488 150.47C48.777 150.518 48.6953 150.556 48.6053 150.578C47.3135 150.896 45.9881 151.137 44.6672 151.295C44.2484 151.345 43.8677 151.045 43.8178 150.625C43.7687 150.206 44.0676 149.826 44.4855 149.775C45.7446 149.624 47.0074 149.393 48.2401 149.09C48.6498 148.989 49.0641 149.24 49.164 149.651C49.2421 149.971 49.1068 150.295 48.8479 150.469L48.8488 150.47ZM69.7405 134.037C69.5161 134.188 69.2181 134.214 68.9619 134.081C68.5867 133.885 68.4423 133.422 68.6367 133.048C69.2227 131.922 69.745 130.748 70.1902 129.557C70.3382 129.16 70.7788 128.96 71.174 129.109C71.5692 129.257 71.769 129.699 71.621 130.095C71.154 131.342 70.6053 132.574 69.9921 133.756C69.9312 133.873 69.8431 133.969 69.7405 134.037ZM72.4831 126.719C72.3114 126.835 72.0934 126.88 71.8771 126.827C71.4674 126.727 71.2149 126.314 71.3148 125.902C71.6146 124.664 71.8417 123.398 71.9907 122.139C72.0407 121.718 72.4204 121.418 72.8392 121.468C73.258 121.519 73.5569 121.898 73.5078 122.318C73.3516 123.639 73.1136 124.966 72.7992 126.264C72.752 126.458 72.6357 126.616 72.4831 126.719ZM73.397 118.953C73.2762 119.034 73.1317 119.082 72.9746 119.082C72.553 119.084 72.2096 118.743 72.2078 118.319C72.2042 117.047 72.1215 115.762 71.9635 114.503C71.9117 114.084 72.2078 113.701 72.6257 113.648C73.0445 113.595 73.4261 113.892 73.4797 114.312C73.645 115.632 73.7322 116.978 73.7367 118.314C73.7367 118.58 73.6023 118.815 73.3979 118.952L73.397 118.953Z" fill="#B3D7A5"/>
<path d="M41.0644 151.399C40.9417 151.481 40.7946 151.529 40.6365 151.528C39.9824 151.525 39.3256 151.503 38.6842 151.462C38.2636 151.436 37.9429 151.072 37.9693 150.65C37.9974 150.23 38.359 149.908 38.7796 149.935C39.391 149.974 40.0179 149.995 40.642 149.997C41.0635 149.999 41.4042 150.343 41.4023 150.766C41.4014 151.03 41.267 151.262 41.0635 151.399H41.0644Z" fill="#B3D7A5"/>
<path d="M36.0938 142.832C36.2519 142.88 36.4226 142.822 36.5198 142.689L39.2843 138.869C41.4782 139.013 43.7112 138.808 45.8978 138.226L49.3436 141.436C49.4644 141.549 49.6433 141.572 49.7887 141.494L54.7716 138.831C54.9169 138.753 54.9978 138.592 54.9714 138.428L54.2319 133.771C55.9335 132.276 57.347 130.533 58.4508 128.626L63.1557 128.454C63.321 128.448 63.4636 128.338 63.5118 128.179L65.1561 122.765C65.2042 122.606 65.147 122.435 65.0135 122.338L61.2025 119.567C61.346 117.369 61.1416 115.131 60.5602 112.94L63.7634 109.486C63.8761 109.365 63.8988 109.186 63.8216 109.04L61.1644 104.047C61.0871 103.901 60.9254 103.82 60.7619 103.846L56.1152 104.587C54.6235 102.882 52.8838 101.465 50.9815 100.359L50.8098 95.6442C50.8034 95.4794 50.6935 95.3356 50.5364 95.2873L45.1338 93.6395C44.9757 93.5912 44.8049 93.6486 44.7077 93.7824L41.9433 97.6016C39.7494 97.4578 37.5164 97.6626 35.3298 98.2453L31.8831 95.0351C31.7623 94.9222 31.5833 94.8995 31.438 94.9769L26.4551 97.6399C26.3097 97.7173 26.2289 97.8793 26.2552 98.0432L26.9947 102.7C25.2932 104.195 23.8796 105.938 22.7759 107.845L18.071 108.017C17.9057 108.023 17.763 108.133 17.7149 108.291L16.0706 113.705C16.0224 113.864 16.0797 114.035 16.2132 114.132L20.0242 116.903C19.8806 119.101 20.085 121.339 20.6664 123.531L17.4632 126.985C17.3506 127.106 17.3279 127.285 17.4051 127.431L20.0623 132.425C20.1404 132.57 20.3012 132.651 20.4648 132.625L25.1115 131.884C26.6032 133.588 28.3429 135.006 30.2452 136.112L30.4169 140.827C30.4232 140.993 30.5331 141.135 30.6903 141.184L36.0938 142.832Z" fill="#B3D7A5"/>
<g style="mix-blend-mode:soft-light">
<path d="M43.8228 123.053C42.7989 123.741 41.588 124.08 40.3343 124.02C38.7927 123.946 37.3728 123.274 36.3353 122.128C34.1941 119.765 34.3703 116.096 36.7287 113.949C39.0943 111.804 42.7499 111.98 44.8911 114.344C45.9286 115.49 46.4591 116.971 46.3846 118.516C46.3101 120.061 45.6397 121.485 44.4968 122.524C44.2834 122.718 44.0571 122.895 43.8228 123.053V123.053ZM38.2476 114.697C38.0768 114.811 37.9124 114.94 37.7561 115.082C36.021 116.661 35.8911 119.36 37.4672 121.099C38.2303 121.941 39.2751 122.435 40.4088 122.49C41.5435 122.545 42.63 122.153 43.4712 121.389C44.3115 120.624 44.8048 119.577 44.8593 118.441C44.9138 117.304 44.5241 116.214 43.7601 115.372C42.3275 113.791 39.9682 113.54 38.2476 114.697Z" fill="#F0F0F0"/>
</g>
<g style="mix-blend-mode:soft-light">
<path d="M48.6642 130.089C48.2627 130.359 47.8448 130.611 47.4097 130.844C46.5457 131.307 45.6336 131.681 44.6961 131.957C44.6543 131.969 44.6116 131.982 44.5698 131.994C44.2437 132.088 43.9058 131.953 43.7259 131.685C43.6823 131.62 43.6478 131.547 43.6251 131.468C43.5097 131.061 43.7459 130.639 44.1501 130.522C45.0277 130.271 45.8816 129.925 46.6893 129.493C46.7338 129.469 46.7783 129.445 46.8219 129.421C48.7242 128.381 50.2958 126.905 51.4396 125.127C52.0609 124.162 52.5561 123.108 52.9085 121.984C52.9113 121.975 52.914 121.966 52.9167 121.956C52.9249 121.928 52.934 121.901 52.9422 121.873C53.9424 118.579 53.6035 115.092 51.9865 112.054C51.7775 111.66 51.5504 111.281 51.306 110.916C49.6617 108.459 47.2443 106.66 44.3827 105.786C41.0959 104.784 37.6165 105.124 34.585 106.744C31.5563 108.365 29.3333 111.07 28.3322 114.364C27.332 117.658 27.6708 121.145 29.2879 124.183C29.4932 124.57 29.7185 124.944 29.9601 125.306C31.0094 126.873 32.3884 128.192 34.0036 129.164C34.1036 129.224 34.1844 129.303 34.2444 129.394C34.4043 129.632 34.4224 129.952 34.2653 130.214C34.0472 130.575 33.5794 130.694 33.2169 130.476C31.41 129.388 29.8665 127.912 28.6919 126.16C28.4212 125.755 28.1696 125.336 27.9397 124.903C26.131 121.504 25.7512 117.603 26.8714 113.917C27.9906 110.233 30.4725 107.204 33.8665 105.392C37.2577 103.579 41.1504 103.199 44.8288 104.321C48.0301 105.297 50.7346 107.311 52.5742 110.059C52.8477 110.467 53.102 110.892 53.3355 111.331C56.8367 117.912 54.7154 126.02 48.6633 130.088L48.6642 130.089Z" fill="#F0F0F0"/>
</g>
<path d="M185.694 249.138L64.2422 249.661C54.2511 249.704 46.0495 242.556 45.7534 233.543C44.4379 193.518 41.1621 76.6868 41.6208 38.5773C41.6999 32.0277 47.4849 26.6963 54.7398 26.4769C82.9518 25.6201 150.794 24.1343 182.312 28.4152C188.949 29.3165 193.931 34.3475 194.172 40.4018C195.505 73.9374 199.818 199.174 199.034 237.266C198.898 243.836 192.974 249.107 185.693 249.138H185.694Z" fill="url(#paint1_linear_194_5017)"/>
<path d="M180.953 239.301L67.9875 239.788C62.277 239.812 57.6057 235.754 57.4985 230.673L53.8656 47.9246C53.7593 42.8881 58.2961 38.7393 63.9585 38.6956L175.913 37.8699C179.962 37.8389 183.291 40.694 183.405 44.2948L188.98 231.921C189.107 235.948 185.482 239.282 180.954 239.301H180.953Z" fill="#ABD19D"/>
<g style="mix-blend-mode:soft-light">
<path d="M118.307 35.6319C119.577 35.1049 120.18 33.6462 119.654 32.3738C119.128 31.1014 117.672 30.4972 116.403 31.0242C115.133 31.5513 114.53 33.01 115.056 34.2824C115.582 35.5547 117.038 36.1589 118.307 35.6319Z" fill="white"/>
</g>
<path d="M214.51 213.284H70.3748C68.9524 213.284 67.7993 214.44 67.7993 215.865V227.864C67.7993 229.289 68.9524 230.445 70.3748 230.445H214.51C215.932 230.445 217.085 229.289 217.085 227.864V215.865C217.085 214.44 215.932 213.284 214.51 213.284Z" fill="#FF9E2F"/>
<path d="M85.1538 207.93V184.982H89.4145V204.195H95.3194V207.93H85.1547H85.1538Z" fill="#FF9E2F"/>
<path d="M113.801 196.425C113.801 200.224 113.091 203.143 111.671 205.183C110.251 207.224 108.219 208.244 105.578 208.244C102.936 208.244 100.889 207.226 99.4692 205.192C98.0493 203.157 97.3389 200.223 97.3389 196.393C97.3389 192.563 98.0493 189.683 99.4692 187.658C100.889 185.633 102.936 184.621 105.609 184.621C108.283 184.621 110.277 185.638 111.687 187.673C113.097 189.708 113.802 192.625 113.802 196.424L113.801 196.425ZM101.694 196.425C101.694 199.042 102.023 201.035 102.681 202.406C103.338 203.777 104.304 204.462 105.579 204.462C108.148 204.462 109.431 201.784 109.431 196.425C109.431 191.066 108.158 188.389 105.609 188.389C104.315 188.389 103.338 189.072 102.681 190.437C102.023 191.803 101.694 193.8 101.694 196.426V196.425Z" fill="#FF9E2F"/>
<path d="M127.975 207.93L126.659 202.138H120.692L119.376 207.93H115.116L120.785 184.887H126.565L132.251 207.93H127.975ZM125.86 198.355L124.638 193.018C124.565 192.694 124.4 191.88 124.145 190.577C123.889 189.275 123.735 188.403 123.682 187.964C123.546 188.864 123.374 189.855 123.166 190.938C122.957 192.021 122.414 194.493 121.537 198.354H125.86V198.355Z" fill="#FF9E2F"/>
<path d="M148.839 196.237C148.839 200.025 148.068 202.921 146.528 204.925C144.988 206.929 142.772 207.931 139.879 207.931H134.272V184.983H140.396C143.059 184.983 145.131 185.969 146.615 187.942C148.097 189.915 148.839 192.68 148.839 196.238V196.237ZM144.469 196.362C144.469 191.235 143.059 188.671 140.24 188.671H138.533V204.195H139.911C141.467 204.195 142.616 203.543 143.357 202.24C144.098 200.937 144.469 198.978 144.469 196.361V196.362Z" fill="#FF9E2F"/>
<path d="M152.942 207.93V184.982H156.952V207.93H152.942Z" fill="#FF9E2F"/>
<path d="M177.829 207.93H172.629L165.549 191.308H165.346C165.606 192.574 165.737 193.934 165.737 195.389V207.931H161.79V184.983H167.021L174.038 201.433H174.21C174.012 200.335 173.913 199.027 173.913 197.509V184.984H177.829V207.932V207.93Z" fill="#FF9E2F"/>
<path d="M188.793 195.2H195.795V206.973C193.811 207.821 191.701 208.244 189.466 208.244C186.804 208.244 184.754 207.229 183.319 205.199C181.883 203.169 181.165 200.244 181.165 196.424C181.165 192.604 181.987 189.858 183.632 187.775C185.277 185.693 187.577 184.651 190.532 184.651C192.359 184.651 194.103 185.122 195.763 186.064L194.416 189.549C193.121 188.795 191.909 188.419 190.782 188.419C189.163 188.419 187.882 189.143 186.936 190.593C185.992 192.042 185.519 194.017 185.519 196.519C185.519 199.021 185.861 201.065 186.545 202.437C187.229 203.808 188.223 204.493 189.528 204.493C190.218 204.493 190.917 204.405 191.627 204.226V198.968H188.791V195.2H188.793Z" fill="#FF9E2F"/>
<path d="M120.343 165.1C150.686 165.1 175.284 140.448 175.284 110.039C175.284 79.63 150.686 54.9785 120.343 54.9785C89.9995 54.9785 65.4014 79.63 65.4014 110.039C65.4014 140.448 89.9995 165.1 120.343 165.1Z" fill="#738D6A"/>
<path d="M120.343 161.911C148.929 161.911 172.102 138.687 172.102 110.039C172.102 81.3914 148.929 58.1677 120.343 58.1677C91.7573 58.1677 68.584 81.3914 68.584 110.039C68.584 138.687 91.7573 161.911 120.343 161.911Z" fill="#CCE4C3"/>
<path d="M124.007 107.513L167.828 106.317C165.129 80.1618 148.999 63.8161 123.564 61.1931L124.008 107.514L124.007 107.513Z" fill="#738D6A"/>
<path d="M115.83 154.803C112.977 154.556 110.122 154.018 107.302 153.174C84.3897 146.318 71.5778 121.652 79.0044 98.3729C82.6763 86.8651 90.6171 77.5942 101.319 72.2755C102.627 71.6255 104.21 72.1672 104.855 73.4855C105.5 74.8028 104.964 76.3988 103.658 77.0507C94.2755 81.7312 87.3167 89.8722 84.1008 99.9688C77.599 120.383 88.8175 142.026 108.907 148.072C123.482 152.459 139.174 147.551 148.941 135.662C149.861 134.542 151.48 134.381 152.555 135.302C153.631 136.221 153.759 137.874 152.841 138.993C143.628 150.232 129.769 156.006 115.829 154.803H115.83Z" fill="#738D6A"/>
<path d="M96.1801 87.1173L101.059 75.2999L89.3076 70.3818L96.3781 67.4612L108.074 72.3811L103.221 84.1666L96.1801 87.1173Z" fill="#738D6A"/>
<path d="M122.799 109.44C122.799 111.195 121.446 112.647 119.773 112.683C118.099 112.718 116.741 111.321 116.741 109.562C116.741 107.803 118.1 106.351 119.773 106.319C121.446 106.287 122.799 107.685 122.799 109.44Z" fill="url(#paint2_linear_194_5017)"/>
<path d="M119.73 86.4685C119.079 86.4785 118.592 86.8235 118.592 87.8341L118.55 107.821C118.55 108.83 119.079 109.633 119.73 109.614C120.38 109.595 120.908 108.762 120.908 107.753L120.866 87.8013C120.866 86.7926 120.381 86.4585 119.73 86.4685Z" fill="url(#paint3_linear_194_5017)"/>
<path d="M119.606 109.926C119.257 109.517 118.658 109.493 118.268 109.875L96.2199 131.881C95.822 132.269 95.7893 132.918 96.1454 133.327C96.5015 133.737 97.112 133.753 97.509 133.365L119.533 111.357C119.922 110.975 119.955 110.335 119.606 109.926Z" fill="url(#paint4_linear_194_5017)"/>
<path d="M216.943 72.4118L216.474 72.003C216.46 71.9912 216.435 71.9684 216.398 71.9338C216.268 71.8118 215.996 71.5569 215.6 71.2301C215.493 71.1418 215.47 70.9724 215.549 70.8523C215.628 70.7321 215.779 70.7066 215.886 70.7949C216.055 70.9351 216.202 71.0616 216.326 71.1709C216.357 71.0899 216.423 71.0271 216.506 71.0107C216.636 70.9852 216.762 71.0835 216.784 71.2301C216.837 71.5678 216.861 71.7518 216.861 71.7518L216.944 72.4127L216.943 72.4118ZM216.352 69.7761C216.333 69.788 216.311 69.7971 216.288 69.8025C216.159 69.8344 216.03 69.7433 216.001 69.5977C215.89 69.0332 215.765 68.4578 215.632 67.887C215.598 67.7422 215.674 67.5948 215.804 67.5574C215.932 67.5201 216.065 67.6057 216.099 67.7504C216.233 68.3286 216.359 68.9103 216.473 69.4812C216.496 69.6013 216.446 69.7215 216.353 69.777L216.352 69.7761ZM214.546 70.2641C214.473 70.3087 214.383 70.3096 214.306 70.2587C213.852 69.9509 213.391 69.6733 212.938 69.4338C212.817 69.3701 212.766 69.2089 212.823 69.0742C212.88 68.9404 213.023 68.8812 213.143 68.9449C213.612 69.1925 214.087 69.4784 214.555 69.7952C214.669 69.8726 214.706 70.0383 214.637 70.1667C214.614 70.2095 214.582 70.2423 214.546 70.2641ZM211.692 68.7701C211.635 68.8047 211.567 68.8138 211.502 68.7901C210.997 68.6053 210.494 68.4669 210.007 68.3786C209.877 68.355 209.787 68.2157 209.808 68.0691C209.829 67.9216 209.954 67.8214 210.085 67.8451C210.595 67.938 211.122 68.0827 211.651 68.2767C211.777 68.3231 211.846 68.476 211.805 68.6172C211.785 68.6854 211.743 68.7392 211.692 68.771V68.7701ZM215.554 66.3511C215.539 66.3602 215.524 66.3675 215.507 66.373C215.38 66.4158 215.246 66.3347 215.207 66.1918C215.057 65.6301 214.896 65.0665 214.729 64.5166C214.686 64.3755 214.753 64.2216 214.879 64.1734C215.005 64.1251 215.142 64.2007 215.185 64.3418C215.354 64.8981 215.517 65.468 215.669 66.0361C215.703 66.1608 215.652 66.291 215.554 66.3511ZM208.59 68.2284C208.558 68.2484 208.521 68.2594 208.482 68.2612C208.117 68.2739 207.754 68.3167 207.404 68.3905C207.248 68.4232 207.097 68.4515 206.949 68.477C206.817 68.4988 206.694 68.3977 206.674 68.2503C206.654 68.1028 206.744 67.9653 206.877 67.9425C207.02 67.9189 207.165 67.8906 207.316 67.8597C207.69 67.7814 208.078 67.735 208.468 67.7213C208.6 67.7167 208.712 67.8342 208.716 67.9835C208.718 68.0891 208.667 68.182 208.59 68.2293V68.2284ZM203.143 71.0689L202.718 71.3175C202.53 70.9888 202.26 70.7858 201.816 70.6383C201.689 70.5955 201.616 70.4453 201.653 70.3024C201.691 70.1594 201.825 70.0775 201.953 70.1203C202.305 70.2377 202.578 70.3916 202.795 70.6001C202.896 70.5928 202.994 70.6574 203.034 70.7685L203.143 71.0689ZM205.459 68.5744C205.423 68.5962 205.383 68.608 205.34 68.6071C204.752 68.5962 204.208 68.5116 203.722 68.355C203.594 68.3131 203.52 68.1638 203.557 68.0199C203.593 67.8761 203.726 67.7941 203.854 67.8351C204.3 67.9789 204.802 68.0563 205.347 68.0663C205.48 68.0691 205.586 68.192 205.584 68.3413C205.582 68.4424 205.532 68.5298 205.459 68.5744ZM214.533 63.0016C214.524 63.0071 214.514 63.0117 214.504 63.0162C214.38 63.0699 214.241 63.0007 214.193 62.8614C214.004 62.3106 213.804 61.7635 213.599 61.2345C213.547 61.097 213.603 60.9395 213.725 60.8785C213.847 60.8194 213.988 60.8822 214.042 61.0187C214.249 61.555 214.452 62.1094 214.642 62.6666C214.686 62.795 214.638 62.937 214.533 63.0016ZM202.343 69.4575C202.334 69.4629 202.325 69.4675 202.315 69.472C202.19 69.5267 202.051 69.4575 202.003 69.3182C201.78 68.6763 201.592 68.1155 201.444 67.6512C201.4 67.511 201.466 67.3571 201.59 67.3052C201.715 67.2552 201.853 67.328 201.898 67.4682C202.044 67.928 202.23 68.4842 202.452 69.1215C202.496 69.2499 202.448 69.3928 202.343 69.4566V69.4575ZM200.453 70.2869C200.408 70.3151 200.354 70.3269 200.3 70.3169C199.832 70.2313 199.319 70.1303 198.735 69.9682C198.606 69.9327 198.527 69.7861 198.559 69.6405C198.591 69.4957 198.723 69.4074 198.851 69.4429C199.418 69.6004 199.92 69.6987 200.377 69.7825C200.508 69.8062 200.598 69.9455 200.576 70.093C200.563 70.1785 200.516 70.2486 200.453 70.2869ZM202.506 67.541C202.424 67.5911 202.319 67.5847 202.241 67.5146C201.782 67.1049 201.506 66.6643 201.341 66.4003C201.289 66.3174 201.248 66.251 201.213 66.2054C201.114 66.1053 201.096 65.9214 201.185 65.8112C201.274 65.7011 201.415 65.6792 201.514 65.7794C201.532 65.7976 201.552 65.8194 201.573 65.8467C201.618 65.9032 201.671 65.986 201.735 66.0889C201.895 66.3438 202.137 66.7298 202.541 67.0913C202.645 67.1842 202.663 67.3544 202.579 67.4709C202.558 67.5001 202.534 67.5228 202.506 67.5401V67.541ZM213.276 59.756C213.276 59.756 213.27 59.7596 213.267 59.7614C213.147 59.827 213.004 59.7715 212.944 59.6376C212.739 59.166 212.525 58.7017 212.308 58.2556L212.222 58.0799C212.158 57.9488 212.2 57.7849 212.317 57.713C212.433 57.6411 212.579 57.6884 212.643 57.8186L212.73 57.9961C212.95 58.4495 213.168 58.9211 213.376 59.4C213.433 59.5302 213.388 59.6868 213.275 59.756H213.276ZM197.403 69.4247C197.344 69.4611 197.272 69.4693 197.204 69.4411C196.716 69.2399 196.222 69.0014 195.734 68.7328C195.614 68.6672 195.565 68.5052 195.624 68.3704C195.682 68.2366 195.826 68.1811 195.946 68.2466C196.42 68.507 196.898 68.7382 197.371 68.9331C197.495 68.985 197.56 69.1397 197.513 69.2799C197.493 69.3437 197.453 69.3938 197.403 69.4238V69.4247ZM194.575 67.8779C194.502 67.9225 194.41 67.9234 194.334 67.8715C194.238 67.806 194.139 67.7386 194.041 67.6694C193.683 67.4163 193.335 67.1404 193.011 66.8491C192.908 66.7562 192.89 66.586 192.973 66.4695C193.058 66.3529 193.208 66.3338 193.312 66.4276C193.623 66.7062 193.954 66.9702 194.298 67.2124C194.394 67.2807 194.489 67.3462 194.584 67.4099C194.697 67.4873 194.734 67.653 194.665 67.7814C194.642 67.8233 194.61 67.8569 194.575 67.8788V67.8779ZM211.747 56.6633C211.636 56.7306 211.496 56.6915 211.428 56.5695C211.148 56.0678 210.854 55.578 210.558 55.1146C210.481 54.9935 210.505 54.8242 210.613 54.7377C210.721 54.6458 210.872 54.6785 210.949 54.7996C211.252 55.2721 211.55 55.771 211.836 56.2818C211.907 56.4083 211.872 56.575 211.76 56.6542C211.755 56.6569 211.752 56.6596 211.747 56.6624V56.6633ZM192.125 65.671C192.03 65.7293 191.908 65.7102 191.832 65.6164C191.47 65.1757 191.133 64.6987 190.833 64.197C190.758 64.0732 190.787 63.9057 190.898 63.8219C191.013 63.7418 191.159 63.771 191.232 63.8948C191.52 64.3728 191.84 64.828 192.186 65.2495C192.276 65.3596 192.27 65.5299 192.173 65.6319C192.158 65.6473 192.142 65.6601 192.125 65.671ZM209.906 53.7945C209.807 53.8555 209.679 53.8309 209.605 53.729C209.27 53.2747 208.92 52.8367 208.566 52.427C208.473 52.3196 208.476 52.1485 208.571 52.0447C208.667 51.9418 208.819 51.9436 208.912 52.051C209.274 52.4707 209.632 52.9196 209.977 53.3839C210.061 53.4986 210.047 53.6689 209.945 53.7645C209.933 53.7763 209.919 53.7854 209.906 53.7936V53.7945ZM190.366 62.7495C190.366 62.7495 190.358 62.754 190.355 62.7558C190.235 62.8205 190.091 62.764 190.033 62.6293C189.803 62.0921 189.604 61.5277 189.44 60.9514C189.399 60.8084 189.47 60.6555 189.596 60.6118C189.724 60.5663 189.859 60.6446 189.899 60.7866C190.056 61.3392 190.247 61.8809 190.468 62.3953C190.523 62.5255 190.478 62.6812 190.366 62.7495ZM207.71 51.2617C207.625 51.3145 207.515 51.3045 207.436 51.2289C207.041 50.8447 206.632 50.4824 206.217 50.151C206.109 50.0645 206.084 49.8952 206.161 49.7741C206.238 49.653 206.389 49.6248 206.497 49.7113C206.923 50.0527 207.346 50.4259 207.752 50.8211C207.853 50.9194 207.863 51.0896 207.776 51.2025C207.757 51.228 207.734 51.248 207.71 51.2626V51.2617ZM189.409 59.39C189.386 59.4036 189.361 59.4137 189.335 59.4191C189.204 59.4446 189.079 59.3454 189.057 59.1988C188.996 58.8046 188.863 57.7066 188.952 57.327H188.949L189.119 56.5859C189.153 56.4411 189.284 56.3537 189.413 56.392C189.542 56.4293 189.619 56.5768 189.585 56.7206L189.409 57.4845C189.396 57.6192 189.396 58.2219 189.531 59.1068C189.549 59.2234 189.496 59.3363 189.409 59.39ZM205.145 49.2169C205.075 49.2597 204.986 49.2624 204.911 49.2142C204.46 48.9274 203.994 48.6661 203.526 48.4385C203.404 48.3793 203.348 48.22 203.4 48.0834C203.454 47.9468 203.595 47.8831 203.717 47.9423C204.202 48.1781 204.684 48.4476 205.15 48.7444C205.265 48.8181 205.306 48.9829 205.241 49.1131C205.218 49.1586 205.184 49.1941 205.147 49.2169H205.145ZM202.258 47.8167C202.203 47.8503 202.137 47.8604 202.072 47.8376C201.583 47.6692 201.078 47.5281 200.57 47.4188C200.439 47.3906 200.353 47.2495 200.378 47.1029C200.403 46.9563 200.53 46.8607 200.659 46.888C201.185 47.0009 201.708 47.1466 202.213 47.3205C202.34 47.3651 202.412 47.5153 202.373 47.6582C202.354 47.7283 202.311 47.783 202.257 47.8157L202.258 47.8167ZM189.862 55.1775C189.81 55.2093 189.748 55.2202 189.686 55.202C189.557 55.1647 189.48 55.0172 189.513 54.8725L189.907 53.1599C189.941 53.0152 190.071 52.9278 190.2 52.966C190.329 53.0034 190.407 53.1508 190.373 53.2947L189.979 55.0072C189.962 55.0828 189.917 55.1419 189.861 55.1765L189.862 55.1775ZM199.17 47.1502C199.131 47.1748 199.083 47.1866 199.035 47.1821C198.531 47.1338 198.01 47.1129 197.484 47.1193C197.352 47.1211 197.243 47.0009 197.241 46.8516C197.239 46.7023 197.345 46.5803 197.479 46.5785C198.019 46.5721 198.556 46.594 199.075 46.6431C199.208 46.6559 199.306 46.787 199.295 46.9354C199.288 47.0291 199.239 47.1074 199.17 47.1502ZM190.651 51.7515C190.599 51.7834 190.537 51.7943 190.476 51.7761C190.347 51.7388 190.269 51.5913 190.303 51.4474L190.697 49.7349C190.731 49.5902 190.862 49.5028 190.991 49.541C191.12 49.5783 191.197 49.7258 191.163 49.8697L190.769 51.5822C190.752 51.6577 190.707 51.7169 190.651 51.7515ZM196.025 47.1866C195.998 47.203 195.967 47.2149 195.935 47.2176C195.431 47.274 194.913 47.356 194.394 47.4607C194.263 47.4871 194.138 47.3897 194.114 47.2431C194.09 47.0965 194.177 46.9545 194.308 46.929C194.84 46.8216 195.371 46.7378 195.886 46.6795C196.019 46.665 196.137 46.7733 196.15 46.9217C196.16 47.0328 196.108 47.1357 196.025 47.1866ZM192.928 47.8094C192.91 47.8203 192.891 47.8285 192.871 47.834C192.423 47.9614 191.964 48.1089 191.504 48.2719C191.446 48.3438 191.355 48.3784 191.265 48.352C191.136 48.3147 191.059 48.1672 191.092 48.0224L191.134 47.8358L191.262 47.7902C191.762 47.6109 192.264 47.4488 192.753 47.3095C192.882 47.2731 193.013 47.3605 193.046 47.5053C193.074 47.6273 193.022 47.7511 192.928 47.8094Z" fill="#B3D7A5"/>
<path d="M190.424 53.7234C190.424 53.7234 191.002 61.5349 196.159 61.6778C201.317 61.8208 206.552 60.5289 208.235 62.4927C208.235 62.4927 204.54 47.7365 191.3 51.1387L190.424 53.7234Z" fill="url(#paint5_linear_194_5017)"/>
<path d="M175.847 55.9789C175.847 55.9789 173.984 63.3853 175.655 65.1997C177.244 66.9259 192.048 72.1954 193.488 72.7053C193.553 72.728 193.621 72.6907 193.647 72.6197C193.857 72.0352 193.807 71.3751 193.51 70.8389C192.078 68.2524 187.743 60.5693 185.768 58.7184C183.383 56.4824 175.846 55.978 175.846 55.978L175.847 55.9789Z" fill="url(#paint6_linear_194_5017)"/>
<path opacity="0.68" d="M188.529 69.8465C188.491 69.8692 188.446 69.8756 188.403 69.8592C188.323 69.8282 180.259 66.7856 176.833 65.3235C176.224 65.0631 175.807 64.424 175.773 63.6947C175.707 62.2899 175.692 60.1805 175.995 58.1111C176.008 58.0146 176.09 57.949 176.176 57.9654C176.262 57.9809 176.32 58.0719 176.306 58.1684C175.991 60.3143 176.034 62.5403 176.087 63.6765C176.116 64.2655 176.452 64.7827 176.945 64.993C180.364 66.4524 188.422 69.4941 188.503 69.5242C188.586 69.5551 188.63 69.6553 188.602 69.7481C188.589 69.7918 188.562 69.8264 188.528 69.8474L188.529 69.8465Z" fill="white"/>
<path d="M181.819 39.4019C181.819 39.4019 185.066 32.6228 187.392 32.6201C189.604 32.6174 203.515 40.3651 204.868 41.1208C204.929 41.1545 204.954 41.2346 204.929 41.3047C204.718 41.8892 204.273 42.3253 203.728 42.4791C201.096 43.2239 193.22 45.3706 190.652 45.1631C187.553 44.9127 181.819 39.4019 181.819 39.4019Z" fill="url(#paint7_linear_194_5017)"/>
<path opacity="0.68" d="M199.452 39.5185C199.41 39.5449 199.357 39.5486 199.309 39.5231C199.231 39.4821 191.552 35.3897 188.189 33.7737C187.704 33.5407 187.142 33.6499 186.757 34.0523C186.014 34.828 184.605 36.3958 183.502 38.1838C183.453 38.2649 183.354 38.284 183.283 38.2285C183.211 38.1729 183.194 38.0628 183.243 37.9826C184.363 36.1672 185.791 34.5786 186.541 33.7938C187.018 33.2967 187.713 33.161 188.313 33.4487C191.682 35.0675 199.366 39.1625 199.443 39.2035C199.522 39.2454 199.555 39.351 199.518 39.4393C199.503 39.4748 199.479 39.5012 199.45 39.5185H199.452Z" fill="white"/>
<path d="M154.519 46.2025C157.072 48.6115 160.201 50.8939 163.986 52.6246C175.737 57.9962 185.202 59.6641 187.905 60.0574C188.393 60.1284 188.874 59.8889 189.164 59.4419C191.45 55.9195 192.889 52.0074 193.485 47.7083C193.597 46.8999 193.292 46.0878 192.703 45.6053C190.147 43.5104 182.481 37.6363 171.211 32.5698C167.446 30.8773 163.808 30.0798 160.5 29.8167C156.515 35.6188 155.117 42.3432 154.52 46.2034L154.519 46.2025Z" fill="#FFB866"/>
<path d="M160.499 29.8161C153.193 29.2353 147.502 31.2664 145.63 32.0467C145.264 32.1987 145.095 32.6694 145.264 33.0636C146.125 35.0775 148.944 40.9397 154.52 46.202C155.117 42.3417 156.515 35.6183 160.5 29.8152L160.499 29.8161Z" fill="url(#paint8_linear_194_5017)"/>
<path d="M169.214 35.6155C172.261 36.9967 173.66 41.0908 172.338 44.7599C171.016 48.4289 167.475 50.2834 164.427 48.9023C161.38 47.5212 159.981 43.427 161.303 39.758C162.625 36.089 166.166 34.2344 169.214 35.6165V35.6155Z" fill="url(#paint9_linear_194_5017)"/>
<path d="M168.639 36.709C171.067 37.8097 172.181 41.0718 171.129 43.9952C170.076 46.9185 167.253 48.3962 164.825 47.2955C162.397 46.1947 161.282 42.9327 162.335 40.0093C163.388 37.0859 166.21 35.6083 168.638 36.709H168.639Z" fill="#34432F"/>
<path d="M164.58 45.3401C164.525 45.3738 164.456 45.3692 164.405 45.3228C163.096 44.1329 162.642 42.0261 163.3 40.1998C163.466 39.7391 163.692 39.3158 163.974 38.9425C164.03 38.8679 164.129 38.8588 164.196 38.9216C164.263 38.9844 164.271 39.0964 164.215 39.171C163.956 39.5161 163.747 39.9067 163.593 40.3327C162.987 42.0161 163.402 43.9544 164.604 45.0478C164.672 45.1097 164.682 45.2208 164.628 45.2964C164.614 45.3155 164.599 45.3301 164.581 45.3401H164.58Z" fill="#91B3FA"/>
<path d="M179.49 42.8963C181.503 43.8085 182.427 46.5134 181.554 48.937C180.681 51.3605 178.341 52.586 176.328 51.6737C174.315 50.7615 173.391 48.0566 174.264 45.633C175.137 43.2095 177.477 41.984 179.49 42.8963Z" fill="url(#paint10_linear_194_5017)"/>
<path d="M179.11 43.6193C180.715 44.3467 181.45 46.5017 180.755 48.4327C180.06 50.3637 178.195 51.3406 176.591 50.6131C174.987 49.8857 174.251 47.7307 174.946 45.7997C175.642 43.8687 177.506 42.8927 179.11 43.6193Z" fill="#34432F"/>
<path d="M176.454 49.373C176.399 49.4067 176.33 49.4021 176.279 49.3548C175.396 48.5527 175.089 47.1324 175.533 45.9015C175.644 45.592 175.797 45.307 175.987 45.0548C176.042 44.9802 176.142 44.9711 176.21 45.0339C176.276 45.0967 176.284 45.2087 176.228 45.2833C176.06 45.5064 175.924 45.7595 175.825 46.0344C175.434 47.1224 175.702 48.3742 176.478 49.0798C176.546 49.1417 176.556 49.2528 176.501 49.3284C176.488 49.3475 176.472 49.362 176.454 49.3721V49.373Z" fill="#91B3FA"/>
<path d="M221.853 204.923C221.67 204.833 221.586 204.594 221.666 204.389L222.026 203.459C222.105 203.253 222.318 203.158 222.501 203.247C222.685 203.336 222.769 203.574 222.69 203.78L222.329 204.712C222.293 204.805 222.23 204.875 222.156 204.915C222.064 204.965 221.955 204.971 221.854 204.923H221.853ZM223.208 201.377C223.024 201.291 222.936 201.053 223.014 200.847C223.153 200.472 223.292 200.097 223.43 199.722C223.506 199.515 223.717 199.416 223.902 199.502C224.086 199.588 224.175 199.824 224.098 200.032C223.96 200.409 223.821 200.785 223.681 201.16C223.646 201.255 223.582 201.327 223.505 201.368C223.415 201.418 223.308 201.424 223.208 201.377ZM224.579 197.62C224.393 197.537 224.303 197.301 224.376 197.093C224.51 196.717 224.642 196.339 224.774 195.961C224.847 195.753 225.057 195.65 225.243 195.731C225.429 195.813 225.521 196.048 225.448 196.256C225.316 196.635 225.183 197.014 225.049 197.392C225.015 197.49 224.949 197.565 224.871 197.606C224.783 197.654 224.678 197.662 224.58 197.618L224.579 197.62ZM225.89 193.837C225.703 193.758 225.608 193.525 225.678 193.315C225.805 192.936 225.931 192.556 226.056 192.176C226.125 191.966 226.333 191.858 226.52 191.935C226.707 192.013 226.804 192.246 226.735 192.456C226.609 192.838 226.483 193.219 226.355 193.6C226.321 193.702 226.255 193.778 226.174 193.822C226.088 193.868 225.986 193.877 225.89 193.836V193.837ZM227.133 190.027C226.945 189.953 226.846 189.721 226.912 189.51C227.032 189.128 227.15 188.746 227.268 188.363C227.333 188.151 227.539 188.038 227.727 188.112C227.916 188.184 228.016 188.416 227.952 188.627C227.834 189.011 227.715 189.395 227.595 189.779C227.562 189.884 227.494 189.964 227.411 190.009C227.328 190.054 227.229 190.064 227.134 190.026L227.133 190.027ZM228.303 186.19C228.114 186.121 228.01 185.891 228.072 185.678C228.184 185.294 228.294 184.909 228.403 184.524C228.464 184.311 228.668 184.192 228.858 184.261C229.047 184.329 229.153 184.556 229.092 184.77C228.982 185.157 228.87 185.544 228.758 185.93C228.726 186.039 228.657 186.123 228.571 186.17C228.491 186.213 228.394 186.224 228.302 186.19H228.303ZM229.393 182.324C229.201 182.259 229.093 182.034 229.15 181.819C229.254 181.431 229.355 181.044 229.456 180.656C229.512 180.441 229.712 180.317 229.904 180.38C230.096 180.443 230.206 180.668 230.15 180.883C230.049 181.273 229.947 181.661 229.842 182.051C229.812 182.165 229.742 182.252 229.653 182.299C229.575 182.342 229.483 182.353 229.393 182.323V182.324ZM230.394 178.43C230.201 178.372 230.087 178.149 230.139 177.932C230.234 177.542 230.327 177.152 230.417 176.762C230.468 176.546 230.665 176.415 230.859 176.473C231.052 176.529 231.168 176.751 231.117 176.968C231.025 177.36 230.933 177.753 230.838 178.145C230.81 178.264 230.737 178.356 230.646 178.405C230.571 178.446 230.482 178.457 230.395 178.431L230.394 178.43ZM231.297 174.506C231.102 174.454 230.983 174.235 231.03 174.017C231.113 173.625 231.196 173.233 231.276 172.839C231.32 172.62 231.515 172.484 231.709 172.534C231.904 172.584 232.025 172.802 231.981 173.02C231.9 173.416 231.817 173.811 231.733 174.206C231.707 174.329 231.633 174.425 231.538 174.476C231.466 174.515 231.381 174.528 231.297 174.505V174.506ZM232.093 170.555C231.897 170.509 231.771 170.296 231.811 170.076C231.884 169.681 231.954 169.286 232.022 168.891C232.06 168.671 232.25 168.527 232.445 168.569C232.641 168.612 232.769 168.824 232.731 169.045C232.662 169.442 232.591 169.84 232.519 170.239C232.495 170.367 232.42 170.469 232.322 170.523C232.252 170.56 232.173 170.574 232.092 170.555H232.093ZM232.768 166.576C232.57 166.539 232.438 166.33 232.471 166.109C232.53 165.711 232.588 165.311 232.643 164.913C232.674 164.692 232.859 164.54 233.056 164.574C233.254 164.609 233.389 164.817 233.358 165.038C233.303 165.439 233.245 165.842 233.185 166.244C233.165 166.379 233.087 166.487 232.985 166.542C232.919 166.577 232.845 166.591 232.768 166.576ZM233.31 162.566C233.112 162.538 232.972 162.335 232.997 162.113C233.042 161.711 233.086 161.31 233.126 160.91C233.148 160.687 233.327 160.527 233.526 160.553C233.724 160.579 233.867 160.78 233.844 161.002C233.803 161.406 233.76 161.81 233.713 162.215C233.697 162.357 233.618 162.472 233.512 162.53C233.451 162.562 233.381 162.577 233.309 162.567L233.31 162.566ZM233.703 158.534C233.504 158.516 233.356 158.32 233.373 158.096C233.403 157.692 233.429 157.29 233.453 156.889C233.467 156.665 233.64 156.495 233.839 156.512C234.038 156.527 234.188 156.72 234.175 156.943C234.15 157.349 234.123 157.755 234.093 158.162C234.082 158.311 234.001 158.434 233.89 158.495C233.833 158.525 233.77 158.54 233.702 158.534H233.703ZM233.929 154.486C233.73 154.479 233.573 154.291 233.58 154.067C233.592 153.663 233.601 153.26 233.607 152.857C233.611 152.633 233.774 152.454 233.975 152.458C234.175 152.462 234.334 152.647 234.33 152.871C234.324 153.278 234.315 153.685 234.303 154.094C234.298 154.249 234.216 154.382 234.098 154.446C234.048 154.473 233.99 154.489 233.929 154.486ZM233.97 150.43C233.771 150.435 233.605 150.257 233.601 150.033C233.592 149.63 233.582 149.226 233.568 148.823C233.561 148.599 233.716 148.411 233.915 148.402C234.115 148.394 234.283 148.568 234.29 148.792C234.304 149.2 234.315 149.608 234.323 150.016C234.326 150.18 234.242 150.323 234.118 150.39C234.073 150.415 234.023 150.429 233.969 150.43H233.97ZM233.809 146.378C233.61 146.396 233.435 146.229 233.419 146.006C233.39 145.605 233.357 145.203 233.322 144.803C233.302 144.58 233.446 144.381 233.645 144.358C233.844 144.336 234.021 144.499 234.041 144.722C234.078 145.128 234.11 145.535 234.14 145.942C234.153 146.114 234.068 146.268 233.938 146.339C233.899 146.36 233.855 146.374 233.81 146.379L233.809 146.378ZM233.421 142.345C233.224 142.379 233.039 142.226 233.009 142.005C232.968 141.7 232.925 141.395 232.879 141.091C232.818 141.044 232.77 140.977 232.743 140.894C232.675 140.684 232.77 140.449 232.96 140.375C233.296 140.239 233.63 140.096 233.959 139.946C234.145 139.862 234.356 139.961 234.43 140.17C234.505 140.377 234.412 140.613 234.231 140.698C234.02 140.793 233.808 140.887 233.594 140.977C233.64 141.278 233.682 141.582 233.723 141.884C233.748 142.064 233.662 142.234 233.523 142.31C233.492 142.327 233.456 142.34 233.42 142.345H233.421ZM236.073 139.324C235.982 139.124 236.051 138.88 236.228 138.777C236.545 138.594 236.858 138.402 237.168 138.204C237.342 138.093 237.562 138.16 237.661 138.355C237.76 138.55 237.7 138.797 237.527 138.909C237.209 139.112 236.887 139.309 236.561 139.498C236.559 139.499 236.555 139.501 236.552 139.503C236.377 139.599 236.164 139.52 236.073 139.325V139.324ZM239.184 137.263C239.068 137.08 239.106 136.827 239.268 136.696C239.558 136.464 239.844 136.225 240.124 135.978C240.282 135.84 240.509 135.87 240.632 136.047C240.756 136.224 240.727 136.479 240.57 136.616C240.285 136.867 239.988 137.116 239.689 137.356C239.672 137.37 239.655 137.382 239.636 137.392C239.481 137.476 239.289 137.425 239.185 137.263H239.184ZM230.763 141.999C230.41 142.105 230.055 142.204 229.698 142.297C229.504 142.348 229.309 142.212 229.265 141.993C229.219 141.775 229.339 141.558 229.535 141.507C229.884 141.416 230.23 141.319 230.575 141.216C230.768 141.157 230.967 141.286 231.019 141.502C231.064 141.694 230.981 141.889 230.827 141.972C230.807 141.983 230.785 141.992 230.764 141.999H230.763ZM241.992 134.713C241.852 134.553 241.856 134.296 241.998 134.14L242.171 133.949C242.366 133.731 242.558 133.51 242.745 133.284C242.881 133.121 243.11 133.111 243.257 133.264C243.403 133.417 243.41 133.674 243.275 133.837C243.081 134.07 242.883 134.299 242.682 134.525L242.504 134.721C242.475 134.752 242.444 134.777 242.409 134.795C242.273 134.869 242.104 134.842 241.993 134.713H241.992ZM227.185 142.834C226.824 142.895 226.462 142.951 226.099 142.999C225.901 143.026 225.721 142.866 225.697 142.644C225.673 142.422 225.816 142.219 226.013 142.193C226.369 142.146 226.724 142.092 227.077 142.032C227.274 141.999 227.459 142.151 227.489 142.373C227.513 142.553 227.428 142.723 227.289 142.799C227.257 142.816 227.222 142.828 227.185 142.834ZM232.769 138.357C232.575 138.408 232.381 138.273 232.335 138.055C232.253 137.662 232.167 137.273 232.076 136.884C232.025 136.667 232.141 136.444 232.334 136.389C232.528 136.332 232.725 136.461 232.776 136.678C232.868 137.073 232.957 137.471 233.039 137.87C233.078 138.058 232.994 138.247 232.845 138.328C232.821 138.34 232.796 138.35 232.769 138.358V138.357ZM223.551 143.233C223.186 143.251 222.821 143.264 222.456 143.27C222.256 143.274 222.091 143.096 222.089 142.871C222.086 142.647 222.245 142.462 222.445 142.459C222.803 142.453 223.161 142.44 223.518 142.422C223.718 142.412 223.887 142.585 223.896 142.809C223.903 142.976 223.818 143.125 223.692 143.193C223.649 143.216 223.602 143.23 223.551 143.233ZM244.412 131.707C244.251 131.573 244.219 131.319 244.338 131.14C244.548 130.821 244.756 130.493 244.954 130.164C245.065 129.978 245.29 129.929 245.455 130.054C245.62 130.178 245.665 130.431 245.553 130.616C245.35 130.956 245.135 131.295 244.918 131.623C244.882 131.678 244.836 131.719 244.786 131.746C244.668 131.81 244.524 131.8 244.412 131.707ZM219.9 143.217C219.535 143.195 219.171 143.168 218.807 143.133C218.608 143.114 218.46 142.918 218.477 142.695C218.493 142.472 218.667 142.305 218.866 142.324C219.223 142.357 219.58 142.385 219.938 142.406C220.138 142.418 220.291 142.609 220.28 142.832C220.273 142.985 220.191 143.114 220.076 143.177C220.023 143.206 219.962 143.22 219.899 143.217H219.9ZM246.382 128.315C246.205 128.21 246.138 127.964 246.232 127.767C246.398 127.414 246.558 127.057 246.711 126.695C246.796 126.493 247.011 126.407 247.192 126.502C247.373 126.598 247.449 126.84 247.364 127.042C247.207 127.414 247.041 127.785 246.87 128.146C246.833 128.225 246.776 128.284 246.709 128.32C246.609 128.375 246.488 128.377 246.382 128.314V128.315ZM231.818 134.444C231.629 134.515 231.424 134.4 231.36 134.188C231.247 133.807 231.129 133.428 231.004 133.051C230.935 132.841 231.028 132.609 231.219 132.53C231.406 132.453 231.614 132.56 231.683 132.77C231.809 133.155 231.93 133.542 232.045 133.93C232.104 134.126 232.022 134.336 231.86 134.424C231.846 134.431 231.832 134.438 231.816 134.444H231.818ZM216.269 142.8C215.908 142.738 215.547 142.671 215.188 142.598C214.992 142.558 214.861 142.346 214.897 142.126C214.932 141.906 215.12 141.759 215.317 141.799C215.67 141.871 216.022 141.937 216.377 141.998C216.574 142.031 216.711 142.238 216.681 142.459C216.663 142.597 216.584 142.708 216.48 142.764C216.416 142.799 216.344 142.812 216.268 142.8H216.269ZM247.883 124.629C247.695 124.554 247.597 124.322 247.664 124.11C247.784 123.734 247.898 123.354 248.005 122.972C248.065 122.758 248.268 122.639 248.458 122.706C248.649 122.772 248.755 123 248.695 123.214C248.586 123.607 248.469 123.997 248.346 124.384C248.312 124.488 248.245 124.568 248.163 124.612C248.079 124.658 247.979 124.667 247.884 124.629L247.883 124.629ZM212.691 141.989C212.336 141.888 211.984 141.78 211.632 141.665C211.441 141.603 211.331 141.378 211.386 141.163C211.443 140.947 211.642 140.824 211.834 140.886C212.178 140.998 212.523 141.104 212.87 141.203C213.063 141.258 213.18 141.479 213.13 141.696C213.103 141.816 213.03 141.911 212.937 141.961C212.863 142.001 212.776 142.014 212.691 141.989ZM248.917 120.744C248.722 120.696 248.597 120.482 248.64 120.262C248.715 119.871 248.784 119.477 248.845 119.081C248.88 118.86 249.067 118.713 249.264 118.752C249.461 118.791 249.592 119 249.558 119.222C249.494 119.627 249.424 120.031 249.347 120.432C249.322 120.56 249.248 120.66 249.151 120.713C249.081 120.751 248.999 120.764 248.917 120.744ZM230.533 130.656C230.351 130.748 230.137 130.658 230.054 130.454C229.953 130.207 229.851 129.96 229.744 129.715C229.694 129.599 229.643 129.484 229.593 129.368C229.504 129.168 229.576 128.924 229.755 128.825C229.756 128.825 229.758 128.824 229.759 128.823C229.937 128.726 230.151 128.808 230.24 129.008C230.293 129.126 230.345 129.244 230.396 129.363C230.504 129.614 230.609 129.865 230.712 130.118C230.794 130.32 230.716 130.556 230.54 130.652C230.537 130.654 230.535 130.655 230.533 130.656ZM209.205 140.745C208.863 140.596 208.524 140.438 208.188 140.273C208.006 140.183 207.922 139.944 208.003 139.739C208.084 139.533 208.297 139.44 208.48 139.53C208.806 139.691 209.136 139.844 209.469 139.989C209.655 140.07 209.746 140.305 209.675 140.515C209.64 140.614 209.575 140.689 209.495 140.732C209.408 140.779 209.304 140.788 209.206 140.745H209.205ZM249.499 116.741C249.301 116.721 249.153 116.524 249.172 116.301C249.203 115.901 249.229 115.502 249.247 115.1C249.257 114.877 249.428 114.706 249.627 114.717C249.827 114.729 249.979 114.92 249.968 115.143C249.949 115.553 249.923 115.964 249.891 116.373C249.879 116.52 249.799 116.642 249.688 116.702C249.631 116.733 249.567 116.748 249.499 116.741ZM228.388 126.912C228.203 126.57 228.01 126.233 227.813 125.899C227.702 125.712 227.747 125.46 227.914 125.336C228.082 125.211 228.304 125.262 228.415 125.449C228.619 125.791 228.815 126.138 229.006 126.489C229.109 126.681 229.056 126.93 228.885 127.047C228.875 127.054 228.864 127.06 228.854 127.066C228.689 127.156 228.486 127.091 228.388 126.912ZM205.895 138.97C205.574 138.76 205.258 138.541 204.955 138.318C204.788 138.195 204.742 137.944 204.852 137.756C204.962 137.568 205.186 137.517 205.352 137.64C205.644 137.855 205.948 138.066 206.258 138.269C206.431 138.381 206.489 138.63 206.389 138.823C206.352 138.896 206.297 138.95 206.234 138.984C206.13 139.041 206.003 139.041 205.895 138.97ZM249.648 112.687C249.449 112.694 249.282 112.517 249.277 112.293C249.267 111.892 249.251 111.491 249.229 111.09C249.216 110.867 249.368 110.674 249.568 110.661C249.767 110.647 249.938 110.816 249.951 111.04C249.974 111.45 249.99 111.861 250 112.271C250.004 112.436 249.92 112.581 249.796 112.648C249.751 112.673 249.701 112.686 249.648 112.688V112.687ZM202.903 136.563C202.626 136.287 202.354 136.001 202.098 135.709C201.957 135.55 201.959 135.293 202.101 135.136C202.243 134.977 202.472 134.98 202.612 135.139C202.858 135.418 203.117 135.692 203.383 135.956C203.533 136.104 203.546 136.361 203.414 136.529C203.381 136.571 203.342 136.602 203.3 136.625C203.173 136.694 203.016 136.675 202.903 136.564V136.563ZM226.337 123.638C226.112 123.326 225.883 123.019 225.649 122.718C225.518 122.549 225.534 122.292 225.683 122.145C225.834 121.996 226.062 122.015 226.193 122.184C226.434 122.494 226.669 122.809 226.899 123.129C227.024 123.304 227 123.559 226.844 123.699C226.823 123.719 226.799 123.735 226.775 123.748C226.626 123.828 226.444 123.787 226.336 123.637L226.337 123.638ZM249.384 108.642C249.186 108.673 249.003 108.519 248.975 108.297C248.925 107.9 248.869 107.503 248.807 107.108C248.773 106.887 248.904 106.678 249.102 106.639C249.299 106.6 249.486 106.748 249.52 106.968C249.583 107.372 249.64 107.777 249.692 108.184C249.715 108.364 249.629 108.531 249.491 108.606C249.459 108.624 249.422 108.636 249.384 108.642ZM200.443 133.47C200.235 133.127 200.037 132.77 199.854 132.409C199.756 132.214 199.817 131.967 199.991 131.856C200.165 131.746 200.385 131.815 200.484 132.009C200.656 132.352 200.845 132.689 201.041 133.014C201.153 133.199 201.111 133.452 200.945 133.578C200.93 133.59 200.915 133.6 200.899 133.608C200.74 133.695 200.545 133.639 200.443 133.471V133.47ZM223.921 120.698C223.662 120.423 223.398 120.155 223.129 119.892C222.978 119.744 222.963 119.488 223.093 119.319C223.225 119.15 223.453 119.131 223.604 119.279C223.88 119.548 224.152 119.825 224.418 120.107C224.563 120.261 224.57 120.518 224.433 120.681C224.402 120.718 224.366 120.746 224.327 120.767C224.195 120.838 224.034 120.816 223.921 120.696V120.698ZM248.721 104.656C248.527 104.711 248.33 104.581 248.281 104.363C248.192 103.975 248.098 103.588 247.998 103.203C247.941 102.989 248.051 102.765 248.243 102.7C248.435 102.637 248.636 102.76 248.692 102.975C248.795 103.368 248.891 103.764 248.982 104.161C249.025 104.352 248.941 104.545 248.789 104.627C248.768 104.639 248.745 104.648 248.721 104.656ZM221.168 118.167C220.875 117.937 220.576 117.713 220.28 117.502C220.112 117.382 220.062 117.131 220.169 116.942C220.276 116.753 220.5 116.697 220.668 116.817C220.973 117.035 221.281 117.266 221.584 117.504C221.747 117.632 221.786 117.885 221.672 118.068C221.635 118.126 221.587 118.171 221.534 118.2C221.419 118.262 221.279 118.255 221.168 118.167H221.168ZM199.248 130.006C199.059 130.079 198.854 129.965 198.79 129.754C198.67 129.36 198.563 128.957 198.472 128.556C198.423 128.339 198.541 128.117 198.733 128.064C198.927 128.008 199.124 128.14 199.173 128.357C199.258 128.736 199.36 129.118 199.474 129.492C199.534 129.688 199.452 129.9 199.289 129.988C199.277 129.995 199.263 130.002 199.248 130.007V130.006ZM247.666 100.777C247.48 100.857 247.271 100.752 247.2 100.542C247.073 100.167 246.94 99.7958 246.801 99.4261C246.724 99.2195 246.813 98.9782 246.994 98.8953C247.178 98.8079 247.39 98.9054 247.467 99.112C247.609 99.4899 247.745 99.8704 247.875 100.255C247.942 100.453 247.862 100.673 247.695 100.764C247.686 100.769 247.676 100.774 247.666 100.777ZM218.108 116.138C217.791 115.965 217.464 115.798 217.138 115.643C216.954 115.555 216.868 115.318 216.946 115.111C217.024 114.904 217.237 114.808 217.42 114.896C217.758 115.056 218.096 115.229 218.425 115.409C218.605 115.507 218.679 115.749 218.592 115.951C218.555 116.037 218.495 116.101 218.425 116.139C218.329 116.191 218.212 116.195 218.109 116.139L218.108 116.138ZM198.463 126.058C198.264 126.068 198.095 125.895 198.086 125.671C198.068 125.25 198.068 124.828 198.086 124.415C198.096 124.192 198.265 124.019 198.465 124.03C198.664 124.041 198.819 124.232 198.809 124.456C198.792 124.842 198.791 125.239 198.809 125.635C198.816 125.802 198.731 125.95 198.605 126.019C198.563 126.042 198.515 126.056 198.464 126.059L198.463 126.058ZM214.796 114.717C214.455 114.608 214.108 114.51 213.764 114.424C213.568 114.374 213.446 114.158 213.489 113.939C213.533 113.72 213.726 113.582 213.921 113.632C214.279 113.721 214.639 113.824 214.992 113.936C215.184 113.997 215.295 114.221 215.241 114.436C215.212 114.553 215.14 114.642 215.05 114.691C214.973 114.733 214.883 114.744 214.795 114.716L214.796 114.717ZM245.738 96.8888C245.573 96.5337 245.402 96.1814 245.226 95.8336C245.127 95.6388 245.188 95.3911 245.361 95.281C245.531 95.1681 245.756 95.2382 245.855 95.433C246.036 95.7899 246.211 96.1504 246.38 96.5146C246.473 96.7131 246.403 96.958 246.226 97.0617C246.223 97.0636 246.22 97.0654 246.216 97.0672C246.041 97.1619 245.829 97.0845 245.738 96.8897V96.8888ZM198.766 122.033C198.575 121.968 198.467 121.742 198.525 121.527C198.634 121.122 198.764 120.724 198.912 120.341C198.992 120.137 199.205 120.042 199.387 120.131C199.571 120.22 199.654 120.459 199.575 120.665C199.439 121.018 199.318 121.387 199.217 121.762C199.186 121.874 199.116 121.962 199.028 122.009C198.949 122.052 198.856 122.063 198.765 122.032L198.766 122.033ZM211.316 114.018C210.966 113.991 210.609 113.977 210.256 113.977C210.056 113.977 209.895 113.794 209.895 113.57C209.895 113.347 210.058 113.165 210.258 113.165C210.626 113.165 210.998 113.181 211.366 113.209C211.565 113.225 211.716 113.418 211.702 113.642C211.693 113.793 211.612 113.917 211.499 113.979C211.444 114.009 211.382 114.024 211.317 114.018H211.316ZM200.329 118.402C200.175 118.26 200.153 118.004 200.279 117.831C200.516 117.508 200.773 117.196 201.043 116.904C201.186 116.748 201.416 116.752 201.554 116.914C201.693 117.075 201.689 117.331 201.545 117.487C201.294 117.758 201.057 118.047 200.838 118.347C200.804 118.394 200.762 118.429 200.716 118.454C200.594 118.52 200.442 118.506 200.329 118.402ZM207.793 114.193C207.444 114.257 207.095 114.334 206.756 114.425C206.561 114.477 206.366 114.343 206.321 114.125C206.274 113.906 206.394 113.687 206.589 113.636C206.945 113.54 207.312 113.459 207.679 113.392C207.876 113.357 208.061 113.507 208.093 113.728C208.119 113.909 208.034 114.082 207.894 114.158C207.863 114.174 207.83 114.187 207.794 114.193H207.793ZM203.003 115.703C202.903 115.509 202.963 115.26 203.137 115.149C203.453 114.946 203.788 114.753 204.13 114.577C204.312 114.484 204.527 114.573 204.61 114.777C204.693 114.981 204.609 115.225 204.432 115.314C204.11 115.481 203.794 115.661 203.497 115.852C203.49 115.857 203.482 115.861 203.475 115.866C203.306 115.958 203.099 115.888 203.004 115.703H203.003ZM243.909 93.4446C243.71 93.1105 243.506 92.78 243.299 92.4541C243.183 92.2711 243.221 92.018 243.384 91.8878C243.547 91.7576 243.772 91.8004 243.888 91.9825C244.1 92.3157 244.307 92.6526 244.51 92.9931C244.621 93.1797 244.577 93.431 244.41 93.5557C244.396 93.5666 244.381 93.5757 244.367 93.5839C244.207 93.6704 244.011 93.614 243.909 93.4437V93.4446ZM241.777 90.2226C241.55 89.9122 241.319 89.6054 241.084 89.3022C240.953 89.1328 240.968 88.877 241.119 88.7295C241.27 88.5839 241.498 88.6012 241.63 88.7696C241.868 89.0782 242.104 89.3914 242.335 89.7073C242.462 89.8803 242.44 90.1361 242.285 90.2782C242.263 90.2991 242.238 90.3164 242.213 90.3301C242.066 90.4102 241.884 90.3701 241.776 90.2217L241.777 90.2226ZM239.379 87.2401C239.128 86.9542 238.872 86.672 238.613 86.3934C238.469 86.2386 238.464 85.9819 238.603 85.8198C238.742 85.6587 238.97 85.6532 239.114 85.808C239.377 86.0911 239.637 86.3788 239.893 86.6701C240.033 86.8295 240.032 87.0862 239.891 87.2437C239.862 87.2756 239.829 87.302 239.794 87.3202C239.659 87.3939 239.491 87.3666 239.38 87.2401H239.379ZM236.751 84.5061C236.478 84.2457 236.202 83.988 235.923 83.7349C235.767 83.5938 235.744 83.3389 235.869 83.165C235.994 82.9902 236.222 82.9638 236.378 83.1049C236.661 83.3626 236.942 83.6239 237.219 83.8888C237.371 84.0345 237.39 84.2903 237.26 84.4605C237.226 84.5051 237.186 84.5388 237.142 84.5625C237.016 84.6308 236.862 84.6135 236.749 84.5061H236.751ZM233.929 82.0233C233.638 81.7875 233.344 81.5554 233.048 81.3278C232.884 81.2003 232.842 80.9481 232.956 80.7633C233.069 80.5785 233.294 80.5311 233.459 80.6586C233.76 80.8908 234.058 81.1266 234.353 81.3651C234.515 81.4962 234.551 81.7493 234.434 81.9314C234.397 81.9878 234.35 82.0306 234.298 82.0588C234.182 82.1217 234.04 82.1135 233.929 82.0224V82.0233ZM230.942 79.7901C230.637 79.5788 230.329 79.3713 230.019 79.1673C229.846 79.0544 229.789 78.8059 229.89 78.612C229.99 78.419 230.212 78.3543 230.385 78.4672C230.699 78.6739 231.012 78.8842 231.321 79.0981C231.491 79.2156 231.545 79.465 231.439 79.6562C231.402 79.7245 231.349 79.7764 231.29 79.8083C231.182 79.8665 231.052 79.8638 230.942 79.7891V79.7901ZM227.82 77.7999C227.502 77.6123 227.182 77.4293 226.861 77.2491C226.682 77.1489 226.609 76.9058 226.699 76.7055C226.787 76.5052 227.005 76.4233 227.184 76.5235C227.51 76.7055 227.835 76.8913 228.156 77.0815C228.333 77.1853 228.402 77.4311 228.309 77.6287C228.272 77.7088 228.213 77.7689 228.146 77.8053C228.046 77.859 227.926 77.8618 227.821 77.7999H227.82ZM224.585 76.0464C224.257 75.8825 223.927 75.7223 223.596 75.5657C223.412 75.4783 223.326 75.2407 223.403 75.034C223.481 74.8282 223.693 74.7308 223.877 74.8182C224.213 74.9776 224.547 75.1396 224.879 75.3053C225.061 75.3963 225.143 75.6358 225.062 75.8406C225.026 75.9317 224.963 76.0009 224.889 76.0409C224.797 76.091 224.686 76.0965 224.585 76.0464Z" fill="#B3D7A5"/>
<defs>
<linearGradient id="paint0_linear_194_5017" x1="269.712" y1="290.773" x2="92.136" y2="105.105" gradientUnits="userSpaceOnUse">
<stop stop-color="#F2FFEE"/>
<stop offset="1" stop-color="#ECFFE5"/>
</linearGradient>
<linearGradient id="paint1_linear_194_5017" x1="160.646" y1="55.2458" x2="306.443" y2="-75.8723" gradientUnits="userSpaceOnUse">
<stop stop-color="#7D9574"/>
<stop offset="1" stop-color="#74A85F"/>
</linearGradient>
<linearGradient id="paint2_linear_194_5017" x1="161.895" y1="99.0958" x2="151.964" y2="125.791" gradientUnits="userSpaceOnUse">
<stop stop-color="#FFBD57"/>
<stop offset="1" stop-color="#FF8600"/>
</linearGradient>
<linearGradient id="paint3_linear_194_5017" x1="136.127" y1="60.2037" x2="106.759" y2="68.6539" gradientUnits="userSpaceOnUse">
<stop stop-color="#FFBD57"/>
<stop offset="1" stop-color="#FF8600"/>
</linearGradient>
<linearGradient id="paint4_linear_194_5017" x1="274.395" y1="82.3218" x2="238.168" y2="184.234" gradientUnits="userSpaceOnUse">
<stop stop-color="#FFBD57"/>
<stop offset="1" stop-color="#FF8600"/>
</linearGradient>
<linearGradient id="paint5_linear_194_5017" x1="323.165" y1="37.1679" x2="310.51" y2="90.8236" gradientUnits="userSpaceOnUse">
<stop stop-color="#FFBD57"/>
<stop offset="1" stop-color="#FF8600"/>
</linearGradient>
<linearGradient id="paint6_linear_194_5017" x1="315.198" y1="36.9897" x2="292.308" y2="109.677" gradientUnits="userSpaceOnUse">
<stop stop-color="#FFBD57"/>
<stop offset="1" stop-color="#FF8600"/>
</linearGradient>
<linearGradient id="paint7_linear_194_5017" x1="354.127" y1="18.3714" x2="343.008" y2="76.1857" gradientUnits="userSpaceOnUse">
<stop stop-color="#FFBD57"/>
<stop offset="1" stop-color="#FF8600"/>
</linearGradient>
<linearGradient id="paint8_linear_194_5017" x1="259.247" y1="11.003" x2="233.027" y2="79.7236" gradientUnits="userSpaceOnUse">
<stop stop-color="#FFBD57"/>
<stop offset="1" stop-color="#FF8600"/>
</linearGradient>
<linearGradient id="paint9_linear_194_5017" x1="250.476" y1="19.0455" x2="226.354" y2="76.7632" gradientUnits="userSpaceOnUse">
<stop stop-color="#FFBD57"/>
<stop offset="1" stop-color="#FF8600"/>
</linearGradient>
<linearGradient id="paint10_linear_194_5017" x1="233.175" y1="31.9496" x2="217.24" y2="70.0795" gradientUnits="userSpaceOnUse">
<stop stop-color="#FFBD57"/>
<stop offset="1" stop-color="#FF8600"/>
</linearGradient>
</defs>
</svg>
