<svg width="25" height="25" viewBox="0 0 25 25" fill="none" xmlns="http://www.w3.org/2000/svg">
<path d="M21.8854 11.6875V16.3646C21.8854 21.0417 20.0208 22.9167 15.3333 22.9167H9.71877C9.1146 22.9167 8.56248 22.8855 8.05206 22.8126" stroke="#FE9F0C" stroke-width="1.5" stroke-linecap="round" stroke-linejoin="round"/>
<path d="M3.16663 16.1667V11.6875" stroke="#FE9F0C" stroke-width="1.5" stroke-linecap="round" stroke-linejoin="round"/>
<path d="M12.5313 12.4999C14.4376 12.4999 15.8438 10.9479 15.6563 9.04164L14.9583 2.08325H10.0938L9.39588 9.04164C9.20838 10.9479 10.6251 12.4999 12.5313 12.4999Z" stroke="#FE9F0C" stroke-width="1.5" stroke-linecap="round" stroke-linejoin="round"/>
<path d="M19.0938 12.4999C21.1979 12.4999 22.7396 10.7916 22.5313 8.69781L22.2396 5.83323C21.8646 3.12489 20.8229 2.08325 18.0938 2.08325H14.9167L15.6459 9.38535C15.8334 11.1041 17.375 12.4999 19.0938 12.4999Z" stroke="#FE9F0C" stroke-width="1.5" stroke-linecap="round" stroke-linejoin="round"/>
<path d="M5.90624 12.4999C7.62499 12.4999 9.17706 11.1041 9.34373 9.38535L9.57293 7.0833L10.0729 2.08325H6.89583C4.16667 2.08325 3.12502 3.12489 2.75002 5.83323L2.45832 8.69781C2.24999 10.7916 3.80207 12.4999 5.90624 12.4999Z" stroke="#FE9F0C" stroke-width="1.5" stroke-linecap="round" stroke-linejoin="round"/>
<path d="M9.37502 19.7917C9.37502 20.5729 9.15625 21.3126 8.77084 21.9376C8.57292 22.2709 8.33333 22.5729 8.05208 22.8125C8.02083 22.8542 7.98961 22.8854 7.94794 22.9167C7.21878 23.5729 6.26044 23.9583 5.20835 23.9583C3.93752 23.9583 2.80207 23.3854 2.05207 22.4895C2.03124 22.4583 2.00005 22.4375 1.97921 22.4063C1.85421 22.2604 1.73962 22.1042 1.64587 21.9376C1.26045 21.3126 1.04169 20.5729 1.04169 19.7917C1.04169 18.4792 1.64585 17.3021 2.60419 16.5417C2.78127 16.3958 2.96875 16.2709 3.16666 16.1667C3.77083 15.8229 4.46877 15.625 5.20835 15.625C6.25002 15.625 7.18749 16 7.91666 16.6354C8.04166 16.7291 8.15626 16.8438 8.26043 16.9584C8.94793 17.7084 9.37502 18.6979 9.37502 19.7917Z" stroke="#FE9F0C" stroke-width="1.5" stroke-miterlimit="10" stroke-linecap="round" stroke-linejoin="round"/>
<path d="M6.7604 19.7708H3.65625" stroke="#FE9F0C" stroke-width="1.5" stroke-miterlimit="10" stroke-linecap="round" stroke-linejoin="round"/>
<path d="M5.20831 18.25V21.3646" stroke="#FE9F0C" stroke-width="1.5" stroke-miterlimit="10" stroke-linecap="round" stroke-linejoin="round"/>
</svg>
