<svg width="40" height="40" viewBox="0 0 40 40" fill="none" xmlns="http://www.w3.org/2000/svg">
<rect width="40" height="40" rx="20" fill="#FCFCFC"/>
<path d="M20.0167 11.6667C16.95 11.6667 14.4667 14.1501 14.4667 17.2167V18.9667C14.4667 19.5334 14.2334 20.3834 13.9417 20.8667L12.8834 22.6334C12.2334 23.7251 12.6834 24.9417 13.8834 25.3417C17.8667 26.6667 22.175 26.6667 26.1584 25.3417C27.2834 24.9667 27.7667 23.6501 27.1584 22.6334L26.1 20.8667C25.8084 20.3834 25.575 19.5251 25.575 18.9667V17.2167C25.5667 14.1667 23.0667 11.6667 20.0167 11.6667Z" stroke="#222222" stroke-width="1.5" stroke-miterlimit="10" stroke-linecap="round"/>
<path d="M22.775 25.6833C22.775 27.2083 21.525 28.4583 20 28.4583C19.2416 28.4583 18.5416 28.1417 18.0416 27.6417C17.5416 27.1417 17.225 26.4417 17.225 25.6833" stroke="#222222" stroke-width="1.5" stroke-miterlimit="10"/>
</svg>
