<svg width="53" height="52" viewBox="0 0 53 52" fill="none" xmlns="http://www.w3.org/2000/svg">
<g clip-path="url(#clip0_2570_4443)">
<path d="M26.5001 4.33334L9.16675 10.8333V24.0283C9.16675 34.97 16.5551 45.175 26.5001 47.6667C36.4451 45.175 43.8334 34.97 43.8334 24.0283V10.8333L26.5001 4.33334ZM39.5001 24.0283C39.5001 32.695 33.9751 40.7117 26.5001 43.16C19.0251 40.7117 13.5001 32.7167 13.5001 24.0283V13.845L26.5001 8.97L39.5001 13.845V24.0283ZM21.9717 18.4167L18.9167 21.4717L23.4451 26L18.9167 30.5283L21.9717 33.5833L26.5001 29.0767L31.0284 33.5833L34.0834 30.5283L29.5767 26L34.0834 21.4717L31.0284 18.4167L26.5001 22.945L21.9717 18.4167Z" fill="#FF6C29"/>
</g>
<defs>
<clipPath id="clip0_2570_4443">
<rect width="52" height="52" fill="white" transform="translate(0.5)"/>
</clipPath>
</defs>
</svg>
