<svg width="144" height="163" viewBox="0 0 144 163" fill="none" xmlns="http://www.w3.org/2000/svg">
<path d="M138.931 85.2622H25.6924V162.857H138.931V85.2622Z" fill="#FF9418"/>
<path d="M115.463 155.537V112.815H86.3877V155.537H115.463Z" fill="#71C1DC"/>
<mask id="mask0_267_3599" style="mask-type:luminance" maskUnits="userSpaceOnUse" x="86" y="112" width="30" height="44">
<path d="M115.463 155.537V112.815H86.3877V155.537H115.463Z" fill="white"/>
</mask>
<g mask="url(#mask0_267_3599)">
<g style="mix-blend-mode:soft-light" opacity="0.8">
<path d="M96.7881 155.537H109.431L85.8369 112.815H73.188L96.7881 155.537Z" fill="#D6F0EF"/>
</g>
<g style="mix-blend-mode:soft-light" opacity="0.8">
<path d="M114.499 155.537H119.279L95.6791 112.815H90.8989L114.499 155.537Z" fill="#D6F0EF"/>
</g>
<g style="mix-blend-mode:multiply" opacity="0.6">
<path d="M102.056 119.441H86.3877V155.536H102.056V119.441Z" fill="#71C1DC"/>
</g>
<g style="mix-blend-mode:multiply" opacity="0.6">
<path d="M115.463 140.003H109.844V155.538H115.463V140.003Z" fill="#71C1DC"/>
</g>
</g>
<path d="M83.2432 109.686V158.666H118.615V109.686H83.2432ZM86.3882 155.537V134.179H115.464V132.116H86.3882V112.822H115.464V155.543H86.3882V155.537Z" fill="#80412F"/>
<path d="M82.3164 158.719H83.2437V109.682H82.3164V158.719Z" fill="#A46D47"/>
<path d="M79.1646 155.536V112.815H50.0889V155.536H79.1646Z" fill="#71C1DC"/>
<mask id="mask1_267_3599" style="mask-type:luminance" maskUnits="userSpaceOnUse" x="50" y="112" width="30" height="44">
<path d="M79.1646 155.536V112.815H50.0889V155.536H79.1646Z" fill="white"/>
</mask>
<g mask="url(#mask1_267_3599)">
<g style="mix-blend-mode:multiply" opacity="0.6">
<path d="M79.1645 142.937H50.0889V155.536H79.1645V142.937Z" fill="#71C1DC"/>
</g>
<g style="mix-blend-mode:multiply" opacity="0.6">
<path d="M65.7575 132.534H50.0889V142.234H65.7575V132.534Z" fill="#71C1DC"/>
</g>
<g style="mix-blend-mode:multiply" opacity="0.6">
<path d="M65.7575 122.103H50.0889V131.803H65.7575V122.103Z" fill="#71C1DC"/>
</g>
<g style="mix-blend-mode:multiply" opacity="0.6">
<path d="M79.1335 135.051H72.5615V142.227H79.1335V135.051Z" fill="#71C1DC"/>
</g>
<g style="mix-blend-mode:multiply" opacity="0.6">
<path d="M79.1335 127.202H72.5615V134.378H79.1335V127.202Z" fill="#71C1DC"/>
</g>
<g style="mix-blend-mode:soft-light" opacity="0.8">
<path d="M60.4884 155.536H73.1373L49.5372 112.815H36.8945L60.4884 155.536Z" fill="#D6F0EF"/>
</g>
<g style="mix-blend-mode:soft-light" opacity="0.8">
<path d="M78.1997 155.536H82.9799L59.3798 112.815H54.5996L78.1997 155.536Z" fill="#D6F0EF"/>
</g>
</g>
<path d="M46.9434 109.686V158.666H82.3153V109.686H46.9434ZM50.0884 155.537V134.179H79.164V132.116H50.0884V112.821H79.164V155.543H50.0884V155.537Z" fill="#80412F"/>
<path d="M46.0166 158.719H46.9438L46.9438 109.682H46.0166L46.0166 158.719Z" fill="#A46D47"/>
<path d="M138.938 80.0754H25.6924V102.755C26.8765 104.045 28.5805 104.856 30.4725 104.856C34.0498 104.856 36.9568 101.969 36.9568 98.4034C36.9568 101.963 39.8574 104.856 43.441 104.856C47.0246 104.856 49.9252 101.969 49.9252 98.4034C49.9252 101.963 52.8259 104.856 56.4095 104.856C59.9867 104.856 62.8937 101.969 62.8937 98.4034C62.8937 101.963 65.7944 104.856 69.3779 104.856C72.9615 104.856 75.8621 101.969 75.8621 98.4034C75.8621 101.963 78.7628 104.856 82.3464 104.856C85.9237 104.856 88.8306 101.969 88.8306 98.4034C88.8306 101.963 91.7313 104.856 95.3148 104.856C98.8984 104.856 101.799 101.969 101.799 98.4034C101.799 101.963 104.7 104.856 108.283 104.856C111.861 104.856 114.768 101.969 114.768 98.4034C114.768 101.963 117.668 104.856 121.252 104.856C124.835 104.856 127.736 101.969 127.736 98.4034C127.736 101.963 130.637 104.856 134.22 104.856C136.093 104.856 137.779 104.058 138.957 102.798V80.0754H138.938Z" fill="#C98439"/>
<path d="M30.454 97.6491C26.8767 97.6491 23.9697 94.7628 23.9697 91.1969V72.8628H36.9382V91.1969C36.9382 94.7566 34.0375 97.6491 30.454 97.6491Z" fill="#76440A"/>
<path d="M36.938 72.8682H49.9065V91.2023C49.9065 94.7619 46.9995 97.6545 43.4222 97.6545C39.8449 97.6545 36.938 94.7619 36.938 91.2023V72.8682Z" fill="#E2E0E3"/>
<path d="M134.176 97.6491C130.599 97.6491 127.692 94.7628 127.692 91.1969V72.8628H140.66V91.1969C140.66 94.7566 137.76 97.6491 134.176 97.6491Z" fill="#76440A"/>
<path d="M56.3841 97.6491C52.8068 97.6491 49.8999 94.7628 49.8999 91.1969V72.8628H62.8684V91.1969C62.8684 94.7566 59.9677 97.6491 56.3841 97.6491Z" fill="#76440A"/>
<path d="M62.8687 72.8682H75.8371V91.2023C75.8371 94.7619 72.9302 97.6545 69.3529 97.6545C65.7756 97.6545 62.8687 94.7619 62.8687 91.2023V72.8682Z" fill="#E2E0E3"/>
<path d="M82.3153 97.6491C78.738 97.6491 75.8311 94.7628 75.8311 91.1969V72.8628H88.7995V91.1969C88.7995 94.7566 85.8988 97.6491 82.3153 97.6491Z" fill="#76440A"/>
<path d="M88.7993 72.8682H101.768V91.2023C101.768 94.7619 98.8608 97.6545 95.2835 97.6545C91.7063 97.6545 88.7993 94.7619 88.7993 91.2023V72.8682Z" fill="#E2E0E3"/>
<path d="M108.246 97.6491C104.669 97.6491 101.762 94.7628 101.762 91.1969V72.8628H114.73V91.1969C114.73 94.7566 111.83 97.6491 108.246 97.6491Z" fill="#76440A"/>
<path d="M114.729 72.8682H127.698V91.2023C127.698 94.7619 124.791 97.6545 121.214 97.6545C117.636 97.6545 114.729 94.7619 114.729 91.2023V72.8682Z" fill="#E2E0E3"/>
<path d="M144 159.066H20.6309V162.85H144V159.066Z" fill="#D28429"/>
<path d="M144 158.718H20.6304V159.69H144V158.718Z" fill="#D28429"/>
<path d="M124.729 59.4099H39.9014V63.5493H124.729V59.4099Z" fill="#D28429"/>
<path d="M49.3303 63.5564H39.9015L23.9697 72.87H36.9382L49.3303 63.5564Z" fill="#A6671E"/>
<path d="M58.7526 63.5566H49.3301L36.938 72.8702H49.9002L58.7526 63.5566Z" fill="#F3EFF1"/>
<path d="M68.1748 63.5566H58.7523L49.8999 72.8702H62.8684L68.1748 63.5566Z" fill="#A6671E"/>
<path d="M124.729 63.5566H115.307L127.692 72.8702H140.661L124.729 63.5566Z" fill="#A6671E"/>
<path d="M77.6038 63.5566H68.1751L62.8687 72.8702H75.8309L77.6038 63.5566Z" fill="#F3EFF1"/>
<path d="M87.0265 63.5566H77.604L75.8311 72.8702H88.7995L87.0265 63.5566Z" fill="#A6671E"/>
<path d="M96.4546 63.5566H87.0259L88.7989 72.8702H101.761L96.4546 63.5566Z" fill="#F3EFF1"/>
<path d="M105.878 63.5566H96.4551L101.761 72.8702H114.73L105.878 63.5566Z" fill="#A6671E"/>
<path d="M115.307 63.5566H105.878L114.73 72.8702H127.693L115.307 63.5566Z" fill="#F3EFF1"/>
<path d="M81.0438 0C92.0388 0 100.954 8.87097 100.954 19.8116C100.954 38.1021 81.0438 53.6559 81.0438 53.6559C81.0438 53.6559 61.1338 38.1021 61.1338 19.8116C61.1338 8.87097 70.0488 0 81.0438 0Z" fill="#52674A"/>
<path d="M81.0438 0C81.971 0 82.8794 0.0685739 83.7691 0.18702C73.9769 0.523655 65.6947 8.01067 64.6798 17.9788C62.8191 36.1758 81.0438 53.6559 81.0438 53.6559C81.0438 53.6559 61.1338 38.1021 61.1338 19.8116C61.1338 8.87097 70.0488 0 81.0438 0Z" fill="#374532"/>
<path d="M81.6891 29.6129C86.7926 29.6129 90.9299 25.4961 90.9299 20.4178C90.9299 15.3395 86.7926 11.2227 81.6891 11.2227C76.5855 11.2227 72.4482 15.3395 72.4482 20.4178C72.4482 25.4961 76.5855 29.6129 81.6891 29.6129Z" fill="#FFFEFF"/>
<path d="M13.7959 136.767H7.7627V163H13.7959V136.767Z" fill="#A5784C"/>
<path d="M21.564 131.232C21.564 137.16 16.7337 141.961 10.782 141.961C4.83029 141.961 0 137.154 0 131.232C0 125.31 4.83029 95.6357 10.782 95.6357C16.7337 95.6357 21.564 125.31 21.564 131.232Z" fill="#52674A"/>
<path d="M13.9834 137.878C8.02541 137.878 3.20139 133.071 3.20139 127.149C3.20139 122.623 6.02063 104.233 10.0051 95.8044C4.41053 98.1921 0 125.566 0 131.232C0 136.899 4.83029 141.961 10.782 141.961C15.18 141.961 18.9578 139.336 20.6305 135.584C18.7949 137.017 16.4956 137.878 13.9834 137.878Z" fill="#374532"/>
</svg>
