<svg width="16" height="17" viewBox="0 0 16 17" fill="none" xmlns="http://www.w3.org/2000/svg">
<path d="M8.00005 1.8335C9.14471 1.83355 10.2494 2.25424 11.1042 3.01558C11.9589 3.77691 12.5041 4.82581 12.6361 5.96283C13.4656 6.18904 14.1892 6.69957 14.6805 7.40518C15.1718 8.1108 15.3995 8.96662 15.3238 9.82309C15.2481 10.6796 14.8739 11.4822 14.2664 12.0907C13.659 12.6992 12.857 13.0749 12.0007 13.1522V11.8095C12.3075 11.7657 12.6025 11.6612 12.8684 11.5021C13.1344 11.3431 13.366 11.1326 13.5498 10.8831C13.7335 10.6336 13.8657 10.3499 13.9386 10.0487C14.0116 9.74753 14.0238 9.43483 13.9745 9.12888C13.9253 8.82292 13.8156 8.52983 13.6519 8.26673C13.4881 8.00363 13.2736 7.77577 13.0209 7.59648C12.7681 7.41718 12.4822 7.29002 12.1797 7.22244C11.8773 7.15485 11.5644 7.14818 11.2594 7.20283C11.3638 6.71675 11.3581 6.21348 11.2429 5.72986C11.1276 5.24625 10.9056 4.79455 10.5931 4.40785C10.2807 4.02115 9.88565 3.70923 9.43703 3.49496C8.98842 3.28068 8.49755 3.16947 8.00038 3.16947C7.50322 3.16947 7.01235 3.28068 6.56374 3.49496C6.11512 3.70923 5.72011 4.02115 5.40765 4.40785C5.09519 4.79455 4.87319 5.24625 4.75791 5.72986C4.64262 6.21348 4.63698 6.71675 4.74139 7.20283C4.13316 7.08861 3.50446 7.22069 2.99361 7.57C2.48276 7.91932 2.1316 8.45727 2.01739 9.0655C1.90317 9.67373 2.03524 10.3024 2.38456 10.8133C2.73388 11.3241 3.27182 11.6753 3.88005 11.7895L4.00005 11.8095V13.1522C3.14369 13.075 2.34166 12.6994 1.73414 12.091C1.12663 11.4825 0.752269 10.6799 0.676501 9.82338C0.600732 8.96689 0.828371 8.11102 1.31963 7.40535C1.81089 6.69967 2.53452 6.18909 3.36405 5.96283C3.49586 4.82575 4.04099 3.77677 4.89577 3.01541C5.75055 2.25404 6.85536 1.8334 8.00005 1.8335Z" fill="black"/>
<path d="M5.17079 12.3385L7.99946 15.1665L10.8281 12.3385L9.88479 11.3952L8.66613 12.6152L8.66613 8.8905L7.33279 8.8905L7.33279 12.6138L6.11413 11.3952L5.17079 12.3385Z" fill="black"/>
</svg>
